<svg width="169" height="170" viewBox="0 0 169 170" fill="none" xmlns="http://www.w3.org/2000/svg">
<path d="M52.8948 88.0246C53.6599 84.1197 55.1675 79.937 59.2934 79.1436C64.7059 78.1064 71.0083 78.7355 76.5285 78.5428C77.8547 78.4975 79.2206 78.4408 80.4278 77.8797C82.9441 76.7065 84.6444 70.4495 84.6161 67.7404C84.599 66.4086 81.9013 58.0149 79.9913 58.2586C77.3276 58.5987 74.6639 58.9387 72.0001 59.2845C71.7621 58.3777 69.3477 52.5117 71.7451 52.2794C67.3074 52.7101 63.5384 47.2126 65.5391 43.2283C58.4433 46.1301 49.7153 42.6842 45.4533 36.3082C41.1913 29.9379 41.0269 21.3912 43.8153 14.2444C46.3034 7.86277 52.005 1.9345 58.8514 2.25188C64.4906 2.51259 69.0133 6.80293 72.9692 10.8269C79.9403 17.917 86.9058 25.0071 93.8769 32.0916C95.8492 34.0979 97.9292 36.3252 98.2352 39.125C98.5412 41.9247 95.9398 45.0929 93.2761 44.1861C94.4889 45.4273 94.7893 47.4733 93.9845 49.0092C93.1797 50.5451 91.3264 51.4632 89.6148 51.1742C96.6653 58.491 96.977 71.277 90.2893 78.9339C98.9606 78.1064 107.694 77.9251 116.388 78.4011C118.451 78.5145 120.662 78.7185 122.26 80.0277C124.453 81.8243 124.737 85.0152 124.85 87.8489C125.337 99.9548 125.813 112.219 123.155 124.036C122.532 126.808 121.733 129.613 122.005 132.436C122.322 135.751 124.079 138.744 124.992 141.946C126.862 148.526 124.839 156.064 119.914 160.819C113.356 167.161 100.814 167.914 92.1823 167.455C90.8674 167.387 89.3598 167.149 88.691 166.016C87.5802 164.14 89.7395 162.02 90.1022 159.867C90.5103 157.441 88.385 155.168 86.016 154.511C83.6469 153.853 81.1249 154.386 78.7218 154.924C81.7143 157.123 80.9152 162.185 78.0927 164.599C75.2646 167.013 71.2973 167.467 67.5907 167.676C62.1045 167.988 56.6013 167.999 51.1038 168.011C43.0672 168.028 35.0306 168.045 26.9941 168.062C25.7132 168.062 24.387 168.062 23.2138 167.552C20.4537 166.367 19.4846 162.938 19.3825 159.94C19.0878 151.609 23.0721 143.244 29.7258 138.228C32.945 135.796 36.7536 134.187 40.7209 133.461C44.9432 132.691 49.0522 134.023 53.1101 133.303C50.7354 119.876 51.2512 106.115 52.3337 92.5247C52.4527 91.0568 52.6227 89.5152 52.9174 88.0076L52.8948 88.0246Z" fill="white"/>
<path d="M88.9346 156.313C85.8798 156.568 82.7967 156.506 79.7419 156.324C76.687 156.143 73.3319 155.792 70.1807 155.174C67.0295 154.556 63.884 153.598 61.1069 151.983C58.0975 150.237 55.7794 147.659 54.3796 144.473C52.9797 141.288 52.3449 137.678 51.8121 134.164C51.2284 130.265 50.7863 126.343 50.52 122.41C49.9759 114.447 50.1005 106.433 50.894 98.4869C51.2851 94.5649 51.8348 90.6543 52.5433 86.7777C52.8663 84.9924 53.059 83.0145 53.8922 81.3766C54.7253 79.7386 56.3405 78.9055 58.0408 78.4804C61.8948 77.5169 65.9697 77.6246 69.9087 77.585C73.9553 77.5396 78.0076 77.5113 82.0542 77.4886C90.3402 77.4433 98.6261 77.4433 106.912 77.4886C110.913 77.5113 114.92 77.5056 118.922 77.585C120.605 77.619 122.334 77.7776 123.852 78.5541C125.371 79.3306 126.397 80.7928 126.873 82.4137C127.349 84.0346 127.321 85.7632 127.321 87.4351C127.321 89.4981 127.304 91.5555 127.27 93.6185C127.202 97.6481 127.06 101.672 126.856 105.696C126.652 109.72 126.363 113.925 126.006 118.034C125.672 121.888 125.451 125.838 124.669 129.636C124.306 131.393 123.728 133.099 122.872 134.674C121.965 136.335 119.42 134.856 120.333 133.189C121.965 130.191 122.226 126.683 122.566 123.35C122.963 119.434 123.297 115.512 123.563 111.59C124.09 103.831 124.368 96.0555 124.385 88.2796C124.385 85.8596 124.867 81.9093 121.959 80.9231C120.497 80.4301 118.893 80.5264 117.374 80.5094C115.442 80.4924 113.515 80.4754 111.582 80.4584C103.721 80.4017 95.8604 80.3791 87.9938 80.4017C80.2406 80.4244 72.459 80.3167 64.7172 80.6114C62.8809 80.6794 61.0503 80.8211 59.2536 81.2179C57.9104 81.5126 56.7146 81.9149 56.2725 83.3262C55.7398 85.0321 55.5074 86.8741 55.2014 88.631C54.8953 90.388 54.5949 92.3093 54.3512 94.1569C53.3707 101.621 52.991 109.17 53.2007 116.697C53.3084 120.505 53.5691 124.308 53.9828 128.1C54.3682 131.642 54.8273 135.218 55.6151 138.692C56.2839 141.64 57.304 144.643 59.3953 146.905C61.4867 149.166 64.3488 150.515 67.2619 151.405C72.9181 153.128 79.0617 153.553 84.9447 153.53C86.2765 153.524 87.6141 153.479 88.9403 153.366C89.7337 153.298 90.4139 154.091 90.4139 154.839C90.4139 155.69 89.7394 156.245 88.9403 156.313H88.9346Z" fill="#181755"/>
<path d="M95.1691 134.822C95.4298 120.041 94.5966 105.26 95.1011 90.4843C95.2257 86.7551 95.4468 83.0259 95.8662 79.3193C95.9569 78.5315 96.4783 77.8457 97.3397 77.8457C98.0652 77.8457 98.8983 78.5202 98.8133 79.3193C98.0425 86.1544 97.9122 93.0574 97.8952 99.9322C97.8781 107.487 98.0539 115.042 98.1332 122.597C98.1729 126.672 98.1899 130.747 98.1162 134.822C98.0822 136.715 95.1407 136.72 95.1747 134.822H95.1691Z" fill="#181755"/>
<path d="M82.2527 154.409C83.4429 155.996 84.31 157.837 84.6047 159.81C84.9165 161.884 84.9221 164.315 83.6129 166.072C82.4454 167.642 80.6034 168.045 78.7388 168.016C76.6248 167.988 74.5165 167.914 72.4025 167.897C62.626 167.801 52.8494 167.863 43.0786 168.09C38.1931 168.203 33.3077 168.356 28.4223 168.555C27.2038 168.606 25.9796 168.657 24.761 168.708C23.5879 168.759 22.3183 168.963 21.1565 168.77C18.7931 168.373 18.1527 165.398 17.909 163.397C17.6426 161.238 17.9146 159.073 18.1753 156.925C18.4531 154.624 18.7364 152.306 19.3089 150.062C20.312 146.134 22.358 142.609 25.2711 139.781C31.4771 133.767 40.2278 131.665 48.6611 131.818C49.7833 131.84 50.9111 131.897 52.0333 131.988C52.8268 132.05 53.5069 132.617 53.5069 133.461C53.5069 134.209 52.8324 134.997 52.0333 134.935C44.2234 134.323 36.0055 135.258 29.5275 140.013C26.8467 141.98 24.6307 144.598 23.2421 147.625C21.5872 151.24 21.1848 155.514 20.8504 159.436C20.6861 161.34 20.6294 163.324 21.3152 165.137C21.3718 165.296 21.5135 165.778 21.6552 165.863C21.8423 165.976 22.3013 165.874 22.5224 165.863C23.7409 165.806 24.9651 165.749 26.1836 165.698C30.6893 165.506 35.2007 165.347 39.7064 165.228C48.7234 164.984 57.7462 164.877 66.7689 164.911C69.308 164.922 71.8471 164.939 74.3861 164.973C75.4686 164.984 76.5568 164.984 77.6393 165.03C78.4044 165.064 79.3452 165.132 79.997 165.013C80.6488 164.894 81.0908 164.701 81.4309 164.06C81.8956 163.171 81.8843 162.077 81.822 161.102C81.6973 159.158 80.8811 157.429 79.725 155.888C79.2489 155.253 79.623 154.244 80.2521 153.876C81.0058 153.434 81.788 153.768 82.264 154.403L82.2527 154.409Z" fill="#181755"/>
<path d="M37.4789 166.804C35.6257 164.786 34.9286 162.173 34.6962 159.498C34.4412 156.528 34.6792 153.496 35.2573 150.577C36.3398 145.131 38.8448 139.537 43.1182 135.853C45.5609 133.745 48.7631 131.721 52.1182 131.954C52.9117 132.01 53.5918 132.589 53.5918 133.427C53.5918 134.181 52.9174 134.952 52.1182 134.901C49.7039 134.731 47.3858 136.142 45.5779 137.621C43.7699 139.101 42.234 141.022 41.0608 143.113C38.5671 147.545 37.4393 152.754 37.5526 157.82C37.6036 160.201 37.8757 162.887 39.5589 164.724C40.8398 166.118 38.7598 168.203 37.4789 166.804Z" fill="#181755"/>
<path d="M122.634 135.638C118.655 135.32 114.637 135.224 110.658 135.553C106.929 135.864 103.206 136.613 100.003 138.636C92.8453 143.159 90.9864 152.227 90.4593 160.071C90.3856 161.164 90.3573 162.292 90.516 163.38C90.5953 163.902 90.72 164.418 90.89 164.916C90.9637 165.126 91.1167 165.778 91.3208 165.902C91.5248 166.027 92.2332 165.874 92.5223 165.863C92.868 165.851 93.208 165.834 93.5538 165.823C95.4184 165.761 97.2887 165.715 99.1533 165.67C104.486 165.551 109.82 165.466 115.153 165.387C120.849 165.302 126.545 165.228 132.24 165.16C136.264 165.115 140.294 165.069 144.318 165.03C145.066 165.024 145.809 165.007 146.557 165.013C147.203 165.018 147.849 165.075 148.501 165.075C149.226 165.081 149.986 165.075 150.524 164.707C151.652 163.936 151.782 161.981 151.743 160.649C151.629 157.112 150.139 153.479 148.166 150.577C145.735 146.996 142.261 143.941 138.69 141.521C135.12 139.101 131.424 137.446 127.315 136.658C123.966 136.012 120.259 135.978 117.085 137.349C113.504 138.891 111.049 142.45 109.446 145.879C107.49 150.056 106.89 155.157 107.337 159.719C107.513 161.499 108 163.375 109.236 164.724C110.471 166.073 108.437 168.204 107.156 166.804C103.874 163.233 103.965 157.577 104.543 153.065C104.872 150.498 105.427 147.919 106.419 145.516C107.36 143.244 108.658 141.203 110.165 139.259C111.435 137.627 112.903 136.227 114.739 135.235C116.575 134.244 118.514 133.722 120.543 133.467C124.504 132.963 128.67 133.66 132.411 135.003C136.922 136.624 140.974 139.237 144.579 142.376C147.974 145.329 151.011 148.752 152.791 152.924C154.35 156.568 155.619 161.153 153.93 164.973C153.046 166.979 151.289 167.903 149.164 168.011C148.229 168.056 147.299 167.954 146.364 167.954C143.292 167.954 140.215 168.011 137.143 168.045C131.407 168.107 125.672 168.175 119.936 168.255C114.025 168.334 108.114 168.425 102.208 168.544C99.9468 168.589 97.6911 168.64 95.4297 168.702C94.5966 168.725 93.7635 168.753 92.9304 168.782C92.6016 168.793 92.2729 168.81 91.9442 168.821C90.6236 168.872 89.4845 168.487 88.776 167.314C87.4952 165.205 87.3761 162.445 87.5348 160.054C87.7049 157.486 88.0449 154.896 88.4983 152.363C89.2861 147.959 91.094 143.725 93.8938 140.223C96.3932 137.094 99.9014 134.873 103.738 133.762C107.893 132.56 112.359 132.356 116.66 132.402C118.661 132.424 120.662 132.521 122.657 132.679C123.45 132.742 124.13 133.308 124.13 134.153C124.13 134.901 123.456 135.689 122.657 135.626L122.634 135.638Z" fill="#181755"/>
<path d="M37.8758 164.276C37.8078 163.993 37.7795 163.686 37.7001 163.352C37.4451 162.258 37.0144 161.266 36.867 160.127C36.2096 155.191 37.003 150.13 38.6749 145.443C39.5364 143.017 40.6473 140.648 42.2682 138.647C43.8891 136.647 46.0541 135.026 48.5478 134.368C49.6474 134.079 50.9169 134.011 51.835 134.686C52.6965 135.315 53.0309 136.414 53.3426 137.434C54.7765 142.138 56.8621 146.899 60.7331 149.937C65.1311 153.383 71.0537 154.023 76.6306 154.363C78.2515 154.46 80.0198 154.607 81.1986 155.724C82.2414 156.715 82.5588 158.229 82.7912 159.651C83.0916 161.465 83.2729 163.528 82.0941 164.933C80.8699 166.39 78.0305 166.838 76.2112 166.724C73.7968 166.566 71.4334 166.141 69.0587 166.605C66.361 167.132 63.2268 166.775 60.4837 166.758C54.5838 166.724 48.6839 166.486 42.8009 166.05C42.1548 166.004 41.5087 165.953 40.8626 165.897C40.0975 165.834 39.3041 165.761 38.6523 165.358C38.1422 165.047 37.9722 164.69 37.8758 164.276Z" fill="#181755"/>
<path d="M43.7303 147.358C44.2291 145.953 44.9035 144.575 45.9747 143.635C47.0458 142.694 48.5874 142.286 49.823 142.943C50.8545 143.493 51.4949 144.649 51.9596 145.8C53.7335 150.158 53.8412 155.31 52.243 159.747C51.6819 161.306 50.8431 162.865 49.4829 163.624C46.5244 165.273 44.3594 161.765 43.2373 159.215C41.69 155.684 42.4891 150.827 43.7247 147.352L43.7303 147.358Z" fill="white"/>
<path d="M43.0672 147.177C43.7133 145.403 44.6201 143.527 46.3203 142.546C47.8562 141.662 49.7492 141.736 51.0471 143.011C52.345 144.286 53.0137 146.406 53.4501 148.174C53.9602 150.226 54.1529 152.368 54.0112 154.471C53.8695 156.574 53.4671 158.563 52.702 160.462C52.0219 162.139 50.9904 163.828 49.2222 164.497C45.986 165.715 43.7246 162.026 42.6478 159.56C40.9588 155.684 41.7126 151.031 43.0672 147.171C43.3562 146.344 44.6824 146.701 44.3877 147.534C43.3676 150.436 42.7045 153.7 43.2372 156.772C43.4753 158.161 44.025 159.447 44.7391 160.66C45.3399 161.674 46.156 162.865 47.3292 163.256C48.7347 163.726 50.0043 162.559 50.69 161.453C51.5685 160.042 52.0446 158.353 52.3506 156.732C53.0137 153.269 52.6907 149.608 51.4268 146.321C50.826 144.757 49.7889 142.887 47.8109 143.397C45.9406 143.878 44.9828 145.879 44.382 147.534C44.0817 148.356 42.7554 148.004 43.0615 147.171L43.0672 147.177Z" fill="#181755"/>
<path d="M120.157 96.2029C120.577 96.6167 120.543 97.3988 120.582 97.9372C120.667 99.0424 120.69 100.153 120.713 101.264C120.781 104.512 120.775 107.759 120.741 111.007C120.713 113.886 120.679 116.765 120.565 119.644C120.48 121.826 120.339 125.379 117.686 125.918C116.298 126.201 114.784 126.116 113.373 126.105C111.435 126.088 109.497 126.014 107.564 125.89C106.816 125.839 106.062 125.788 105.32 125.697C104.447 125.595 103.302 125.499 102.86 124.614C102.367 123.628 102.548 122.342 102.497 121.259C102.22 115.609 102.14 109.935 102.038 104.279C102.004 102.33 101.919 100.352 102.106 98.4019C102.185 97.5631 102.384 96.577 103.166 96.1066C103.648 95.8175 104.248 95.8005 104.793 95.7382C105.609 95.6475 106.425 95.5682 107.247 95.5002C110.392 95.2451 113.555 95.1771 116.706 95.3074C117.913 95.3585 119.171 95.3811 120.146 96.1916C120.792 96.73 119.863 97.6538 119.222 97.1154C118.757 96.7243 118.055 96.6847 117.477 96.645C116.762 96.5996 116.048 96.5827 115.334 96.5657C113.872 96.5317 112.404 96.543 110.942 96.5883C109.48 96.6337 108.017 96.73 106.561 96.8604C105.835 96.9284 105.099 96.9737 104.384 97.0871C103.846 97.1721 103.642 97.3138 103.506 97.8409C103.274 98.7193 103.308 99.7395 103.302 100.658C103.296 101.576 103.313 102.415 103.325 103.293C103.415 108.887 103.551 114.486 103.755 120.08C103.778 120.641 103.806 121.202 103.835 121.769C103.863 122.37 103.659 123.464 104.005 123.985C104.322 124.456 105.541 124.41 106.096 124.461C109.417 124.762 112.818 124.909 116.15 124.75C116.626 124.728 117.102 124.728 117.533 124.603C117.556 124.597 117.579 124.592 117.607 124.58C117.386 124.654 117.669 124.541 117.703 124.524C117.919 124.376 118.117 124.229 118.281 124.025C118.61 123.617 118.791 123.112 118.922 122.608C119.029 122.206 119.103 121.786 119.154 121.373C119.12 121.645 119.16 121.282 119.165 121.208C119.188 120.885 119.205 120.562 119.222 120.239C119.335 117.745 119.369 115.246 119.404 112.752C119.443 109.641 119.46 106.524 119.426 103.412C119.415 102.143 119.392 100.867 119.347 99.5978C119.33 99.1217 119.307 98.6513 119.279 98.1809C119.267 97.9939 119.256 97.8125 119.239 97.6255C119.233 97.5348 119.182 97.1551 119.211 97.3194C119.194 97.2287 119.154 97.1154 119.154 97.0247C119.154 96.8377 119.233 97.1267 119.222 97.1154C118.621 96.526 119.545 95.6022 120.146 96.1916L120.157 96.2029Z" fill="#181755"/>
<path d="M106.94 120.823C106.345 119.508 106.498 118.046 106.504 116.64C106.504 115.15 106.504 113.665 106.51 112.174C106.51 109.057 106.521 105.94 106.527 102.823C106.527 101.871 106.226 100.159 107.23 99.5582C107.564 99.3541 108.051 99.3655 108.425 99.3258C109.91 99.1784 111.412 99.1388 112.903 99.1161C113.549 99.1104 114.201 99.1048 114.847 99.1388C115.232 99.1558 115.708 99.1444 116.043 99.3541C117.057 99.9776 116.87 101.871 116.944 102.862C117.051 104.387 117.125 105.911 117.165 107.436C117.25 110.485 117.199 113.54 117.012 116.589C116.932 117.927 116.983 119.44 116.473 120.698C116.252 121.248 116.026 121.509 115.459 121.605C113.929 121.871 112.296 121.837 110.755 121.781C109.956 121.752 109.145 121.701 108.352 121.554C107.836 121.458 107.235 121.299 106.94 120.817C106.498 120.097 107.632 119.44 108.068 120.16C107.995 120.041 108.04 120.126 108.159 120.16C108.391 120.222 108.618 120.279 108.85 120.318C109.429 120.415 110.018 120.443 110.602 120.466C111.894 120.517 113.197 120.505 114.484 120.403C114.83 120.375 115.124 120.403 115.402 120.279C115.107 120.415 115.226 120.307 115.306 120.069C115.385 119.831 115.442 119.587 115.476 119.338C115.583 118.663 115.6 117.961 115.646 117.281C115.822 114.651 115.895 112.015 115.873 109.374C115.85 106.733 115.731 104.104 115.51 101.474C115.487 101.196 115.408 100.896 115.396 100.624C115.391 100.459 115.385 100.476 115.413 100.499C115.317 100.42 115.221 100.465 115.051 100.454C114.512 100.42 113.968 100.414 113.43 100.414C112.092 100.414 110.749 100.459 109.412 100.55C108.969 100.578 108.42 100.607 108.034 100.669C107.978 100.68 107.774 100.76 107.813 100.703C107.859 100.641 107.813 101.207 107.813 101.281C107.802 101.655 107.813 102.024 107.813 102.398C107.813 105.328 107.802 108.258 107.802 111.188C107.802 112.679 107.802 114.163 107.796 115.654C107.796 116.396 107.796 117.145 107.796 117.887C107.796 118.629 107.74 119.446 108.057 120.154C108.403 120.914 107.275 121.582 106.929 120.811L106.94 120.823Z" fill="#181755"/>
<path d="M91.1224 88.4497C90.9241 93.3125 90.5217 98.1696 90.295 103.032C90.2383 104.234 90.1986 105.435 90.1703 106.643C90.1533 107.487 90.2439 108.507 89.5468 109.119C88.6344 109.924 86.9965 109.777 85.8799 109.709C84.4177 109.624 82.9895 109.499 81.5273 109.482C79.0846 109.454 76.6475 109.42 74.2048 109.374C71.762 109.329 69.3023 109.272 66.854 109.204C65.5788 109.17 64.3092 109.131 63.034 109.091C62.0536 109.057 60.8917 109.182 59.9622 108.813C58.1146 108.088 58.5283 105.356 58.4943 103.78C58.4376 101.474 58.432 99.1671 58.602 96.8604C58.772 94.5537 59.0951 92.451 59.7015 90.32C59.9736 89.3679 60.2456 88.2514 60.8463 87.4409C61.4074 86.6871 62.3029 86.3754 63.2154 86.3187C65.1367 86.194 67.092 86.2904 69.0133 86.2904C71.8017 86.2904 74.5902 86.2904 77.3786 86.2904C80.0084 86.2961 82.6324 86.3074 85.2622 86.3471C86.1746 86.3584 87.0871 86.3754 87.9996 86.4038C88.6287 86.4264 89.3201 86.4037 89.9379 86.5624C90.8504 86.7948 91.1564 87.5656 91.1281 88.4441C91.0998 89.3225 89.7905 89.2885 89.8189 88.4441C89.8302 88.002 89.7679 87.8376 89.2975 87.781C89.2124 87.7696 89.1218 87.7696 89.0368 87.7583C88.7817 87.7413 88.5323 87.7299 88.2773 87.7243C87.4952 87.6959 86.7131 87.6789 85.9309 87.6676C83.6299 87.6279 81.3232 87.6166 79.0165 87.6053C74.3294 87.5883 69.6424 87.5883 64.9553 87.6053C64.1165 87.6053 62.9434 87.4352 62.2179 87.9113C61.4528 88.4101 61.2317 89.7306 60.9937 90.5411C60.7047 91.5329 60.478 92.5417 60.3023 93.5619C59.5882 97.6879 59.6902 101.956 59.8659 106.121C59.8829 106.507 59.8659 107.017 60.1096 107.34C60.3533 107.663 60.7613 107.68 61.1297 107.708C62.3256 107.793 63.5328 107.793 64.7286 107.827C66.99 107.895 69.2513 107.957 71.5183 108.008C73.7854 108.059 75.9957 108.099 78.2287 108.133C80.048 108.161 81.8956 108.082 83.7093 108.218C85.0638 108.326 86.458 108.553 87.8182 108.383C88.0563 108.354 88.3793 108.326 88.5833 108.19C88.9347 107.963 88.8441 107.419 88.8497 107.045C88.8724 105.843 88.9121 104.636 88.9631 103.435C89.1785 98.4303 89.6035 93.4428 89.8076 88.4384C89.8416 87.5996 91.1508 87.5939 91.1168 88.4384L91.1224 88.4497Z" fill="#181755"/>
<path d="M62.4334 108.348C61.9403 103.877 62.014 99.3427 62.4674 94.871C62.5977 93.5845 62.7394 92.2866 63.0058 91.0171C63.2721 89.7475 64.1393 88.9371 65.4881 88.8974C67.0354 88.8521 68.5883 88.9144 70.1355 88.9258C73.2754 88.9428 76.4152 88.9598 79.555 88.9938C83.0576 89.0278 86.5545 89.0674 90.057 89.1751C90.8958 89.2035 90.9015 90.507 90.057 90.4843C84.0041 90.2973 77.9455 90.2746 71.8925 90.2463C69.9825 90.235 68.0726 90.235 66.1626 90.218C65.4031 90.2123 64.6267 90.1273 64.349 91.0058C64.0486 91.9749 63.9749 93.0687 63.8616 94.0719C63.3175 98.7986 63.2211 103.622 63.7426 108.354C63.8332 109.187 62.524 109.182 62.4334 108.354V108.348Z" fill="#181755"/>
<path d="M61.6965 88.0189C62.6883 88.3646 63.6574 88.7954 64.5756 89.2998C64.876 89.4642 65.0007 89.9006 64.808 90.1953C64.6153 90.49 64.2355 90.6033 63.9125 90.4276C63.4818 90.1896 63.0454 89.9742 62.5976 89.7759C62.5409 89.7532 62.4899 89.7305 62.4333 89.7022C62.3993 89.6908 62.2292 89.6115 62.3822 89.6795C62.2746 89.6342 62.1612 89.5888 62.0535 89.5435C61.8155 89.4528 61.5831 89.3621 61.3394 89.2771C61.0163 89.1638 60.767 88.8237 60.8803 88.4723C60.9823 88.1549 61.3394 87.8942 61.6851 88.0133L61.6965 88.0189Z" fill="#181755"/>
<path d="M80.031 97.3307C80.0707 97.308 80.1103 97.2853 80.15 97.2627C81.2892 96.6902 82.8421 97.5687 83.1254 98.7872C83.3068 99.5807 82.9668 100.47 82.298 100.935C80.8414 101.95 79.0562 100.709 79.0732 99.0536C79.0788 98.3678 79.4472 97.6877 80.031 97.3363V97.3307Z" fill="#181755"/>
<path d="M79.6968 96.764C80.7113 96.1802 81.9128 96.4353 82.7969 97.1324C83.6811 97.8295 84.0495 99.0083 83.6867 100.068C83.324 101.128 82.2755 102.001 81.091 101.944C80.0708 101.899 79.1187 101.247 78.7049 100.318C78.1325 99.048 78.4896 97.5177 79.7024 96.7583C79.9915 96.5769 80.4336 96.6846 80.5979 96.9907C80.768 97.3137 80.6716 97.6934 80.3655 97.8861C80.3542 97.8918 80.1955 98.0051 80.3032 97.9201C80.2635 97.9485 80.2238 97.9825 80.1898 98.0165C80.1558 98.0505 80.1162 98.0845 80.0822 98.1242C80.0822 98.1185 79.9688 98.2715 80.0198 98.1979C80.0708 98.1242 79.9632 98.2885 79.9688 98.2772C79.9348 98.3282 79.9065 98.3792 79.8781 98.4359C79.8611 98.4699 79.8441 98.5096 79.8271 98.5436C79.8782 98.4246 79.8044 98.6173 79.7988 98.6456C79.7818 98.6966 79.7704 98.7419 79.7591 98.793C79.7591 98.81 79.7308 99.0026 79.7421 98.8553C79.7308 98.9516 79.7308 99.048 79.7308 99.1443C79.7308 99.1783 79.7308 99.218 79.7364 99.252C79.7421 99.4277 79.7024 99.1217 79.7364 99.286C79.7591 99.388 79.7818 99.49 79.8158 99.5864C79.8271 99.6204 79.8385 99.6488 79.8498 99.6828C79.9065 99.8415 79.7818 99.5694 79.8668 99.7111C79.9065 99.7848 79.9462 99.8585 79.9915 99.9321C80.0142 99.9661 80.0425 100 80.0595 100.034C80.0992 100.119 79.9632 99.9265 80.0595 100.04C80.1275 100.113 80.1898 100.187 80.2635 100.255C80.2919 100.284 80.3316 100.306 80.3542 100.335C80.4166 100.403 80.2295 100.255 80.3542 100.335C80.4222 100.38 80.4902 100.425 80.5582 100.465C80.6036 100.488 80.6432 100.51 80.6886 100.533C80.6716 100.522 80.5526 100.482 80.6659 100.522C80.7566 100.556 80.8473 100.584 80.9436 100.601C80.9833 100.607 81.1363 100.624 80.9607 100.607C80.9947 100.607 81.023 100.612 81.057 100.612C81.142 100.612 81.2213 100.612 81.3007 100.612C81.4651 100.612 81.1647 100.646 81.3234 100.612C81.363 100.601 81.4084 100.595 81.4481 100.584C81.4877 100.573 81.5331 100.561 81.5727 100.55C81.6237 100.533 81.7144 100.493 81.6124 100.539C81.7031 100.493 81.7938 100.448 81.8788 100.391C81.9185 100.363 81.9581 100.34 81.9978 100.306C81.9014 100.38 81.9978 100.301 82.0205 100.278C82.0545 100.244 82.0885 100.21 82.1225 100.176C82.1338 100.165 82.2528 100.017 82.1678 100.13C82.2358 100.04 82.2982 99.9378 82.3492 99.8358C82.3662 99.8018 82.3832 99.7678 82.4002 99.7338C82.3435 99.8641 82.4115 99.6884 82.4172 99.6714C82.4455 99.5807 82.4682 99.4844 82.4909 99.388C82.5192 99.2634 82.4909 99.3654 82.4909 99.388C82.4909 99.3314 82.5022 99.2747 82.5022 99.2123C82.5022 99.1727 82.5022 99.133 82.5022 99.099C82.5022 99.0593 82.5022 99.0196 82.4909 98.9856C82.5022 99.065 82.5022 99.065 82.4909 98.9856C82.4682 98.9006 82.4455 98.8156 82.4229 98.7306C82.3775 98.5776 82.4739 98.7986 82.4229 98.7193C82.4002 98.6853 82.3832 98.6399 82.3662 98.6059C82.3265 98.5322 82.2755 98.4585 82.2302 98.3849C82.1395 98.2432 82.3209 98.4756 82.2019 98.3509C82.1678 98.3112 82.1338 98.2715 82.0942 98.2375C82.0658 98.2035 82.0318 98.1752 81.9978 98.1468C81.9751 98.1242 81.8221 98.0052 81.9468 98.0959C81.8618 98.0335 81.7768 97.9768 81.6804 97.9201C81.6521 97.9031 81.6181 97.8861 81.5897 97.8691C81.5614 97.8521 81.3517 97.7728 81.5047 97.8295C81.4084 97.7955 81.3064 97.7615 81.2044 97.7388C81.1704 97.7331 81.1363 97.7274 81.1023 97.7161C81.0287 97.7048 81.0343 97.7048 81.125 97.7161C81.091 97.7161 81.057 97.7105 81.023 97.7048C80.921 97.6991 80.8189 97.7048 80.7169 97.7104C80.7396 97.7104 80.8586 97.6821 80.7396 97.7104C80.6829 97.7218 80.6263 97.7331 80.5639 97.7501C80.5242 97.7614 80.4846 97.7784 80.4449 97.7898C80.6036 97.7331 80.3712 97.8351 80.3372 97.8521C80.0425 98.0221 79.6061 97.9315 79.4417 97.6198C79.2774 97.308 79.3624 96.9056 79.6741 96.7243L79.6968 96.764Z" fill="#181755"/>
<path d="M67.2846 97.3307C67.3243 97.308 67.364 97.2853 67.4036 97.2627C68.5428 96.6902 70.0957 97.5687 70.3791 98.7872C70.5605 99.5807 70.2204 100.47 69.5517 100.935C68.0951 101.95 66.3098 100.709 66.3268 99.0536C66.3325 98.3678 66.7009 97.6877 67.2846 97.3363V97.3307Z" fill="#181755"/>
<path d="M66.9558 96.764C67.9703 96.1802 69.1718 96.4353 70.056 97.1324C70.9401 97.8295 71.3085 99.0083 70.9458 100.068C70.5831 101.128 69.5346 102.001 68.3501 101.944C67.3299 101.899 66.3777 101.247 65.964 100.318C65.3916 99.048 65.7487 97.5177 66.9615 96.7583C67.2506 96.5769 67.6926 96.6846 67.857 96.9907C68.027 97.3137 67.9307 97.6934 67.6246 97.8861C67.6133 97.8918 67.4546 98.0051 67.5623 97.9201C67.5226 97.9485 67.4829 97.9825 67.4489 98.0165C67.4149 98.0505 67.3752 98.0845 67.3412 98.1242C67.3412 98.1185 67.2279 98.2715 67.2789 98.1979C67.3299 98.1242 67.2222 98.2885 67.2279 98.2772C67.1939 98.3282 67.1655 98.3792 67.1372 98.4359C67.1202 98.4699 67.1032 98.5096 67.0862 98.5436C67.1372 98.4246 67.0635 98.6173 67.0578 98.6456C67.0408 98.6966 67.0295 98.7419 67.0182 98.793C67.0182 98.81 66.9899 99.0026 67.0012 98.8553C66.9899 98.9516 66.9898 99.048 66.9898 99.1443C66.9898 99.1783 66.9898 99.218 66.9955 99.252C67.0012 99.4277 66.9615 99.1217 66.9955 99.286C67.0182 99.388 67.0409 99.49 67.0749 99.5864C67.0862 99.6204 67.0975 99.6488 67.1089 99.6828C67.1655 99.8415 67.0408 99.5694 67.1259 99.7111C67.1655 99.7848 67.2052 99.8585 67.2506 99.9321C67.2732 99.9661 67.3016 100 67.3186 100.034C67.3582 100.119 67.2222 99.9265 67.3186 100.04C67.3866 100.113 67.4489 100.187 67.5226 100.255C67.5509 100.284 67.5906 100.306 67.6133 100.335C67.6756 100.403 67.4886 100.255 67.6133 100.335C67.6813 100.38 67.7493 100.425 67.8173 100.465C67.8627 100.488 67.9023 100.51 67.9477 100.533C67.9307 100.522 67.8116 100.482 67.925 100.522C68.0157 100.556 68.1064 100.584 68.2027 100.601C68.2424 100.607 68.3954 100.624 68.2197 100.607C68.2537 100.607 68.2821 100.612 68.3161 100.612C68.4011 100.612 68.4804 100.612 68.5598 100.612C68.7241 100.612 68.4237 100.646 68.5824 100.612C68.6221 100.601 68.6674 100.595 68.7071 100.584C68.7468 100.573 68.7921 100.561 68.8318 100.55C68.8828 100.533 68.9735 100.493 68.8715 100.539C68.9622 100.493 69.0528 100.448 69.1378 100.391C69.1775 100.363 69.2172 100.34 69.2569 100.306C69.1605 100.38 69.2568 100.301 69.2795 100.278C69.3135 100.244 69.3475 100.21 69.3815 100.176C69.3929 100.165 69.5119 100.017 69.4269 100.13C69.4949 100.04 69.5572 99.9378 69.6082 99.8358C69.6252 99.8018 69.6423 99.7678 69.6593 99.7338C69.6026 99.8641 69.6706 99.6884 69.6763 99.6714C69.7046 99.5807 69.7273 99.4844 69.7499 99.388C69.7783 99.2634 69.7499 99.3654 69.7499 99.388C69.7499 99.3314 69.7613 99.2747 69.7613 99.2123C69.7613 99.1727 69.7613 99.133 69.7613 99.099C69.7613 99.0593 69.7613 99.0196 69.7499 98.9856C69.7613 99.065 69.7613 99.065 69.7499 98.9856C69.7273 98.9006 69.7046 98.8156 69.6819 98.7306C69.6366 98.5776 69.7329 98.7986 69.6819 98.7193C69.6593 98.6853 69.6423 98.6399 69.6253 98.6059C69.5856 98.5322 69.5346 98.4585 69.4892 98.3849C69.3985 98.2432 69.5799 98.4756 69.4609 98.3509C69.4269 98.3112 69.3929 98.2715 69.3532 98.2375C69.3249 98.2035 69.2909 98.1752 69.2569 98.1468C69.2342 98.1242 69.0812 98.0052 69.2058 98.0959C69.1208 98.0335 69.0358 97.9768 68.9395 97.9201C68.9111 97.9031 68.8771 97.8861 68.8488 97.8691C68.8204 97.8521 68.6108 97.7728 68.7638 97.8295C68.6674 97.7955 68.5654 97.7615 68.4634 97.7388C68.4294 97.7331 68.3954 97.7274 68.3614 97.7161C68.2877 97.7048 68.2934 97.7048 68.3841 97.7161C68.3501 97.7161 68.316 97.7105 68.282 97.7048C68.18 97.6991 68.078 97.7048 67.976 97.7104C67.9987 97.7104 68.1177 97.6821 67.9986 97.7104C67.942 97.7218 67.8853 97.7331 67.823 97.7501C67.7833 97.7614 67.7436 97.7784 67.704 97.7898C67.8626 97.7331 67.6303 97.8351 67.5963 97.8521C67.3016 98.0221 66.8651 97.9315 66.7008 97.6198C66.5364 97.308 66.6215 96.9056 66.9332 96.7243L66.9558 96.764Z" fill="#181755"/>
<path d="M76.8288 101.91C76.8288 102.239 76.8458 102.568 76.7551 102.885C76.6078 103.412 76.2281 103.894 75.735 104.137C75.2419 104.381 74.6355 104.449 74.1084 104.245C73.536 104.024 73.1109 103.605 72.8899 103.038C72.7482 102.675 72.7595 102.29 72.7595 101.91C72.7595 101.57 73.0599 101.241 73.4113 101.258C73.7627 101.275 74.063 101.547 74.063 101.91V102.205C74.063 102.25 74.063 102.29 74.063 102.335C74.063 102.364 74.063 102.392 74.063 102.42C74.063 102.443 74.0687 102.471 74.0687 102.494C74.0687 102.471 74.0404 102.341 74.063 102.432C74.0744 102.483 74.0857 102.528 74.097 102.573C74.1027 102.602 74.1537 102.743 74.1141 102.63C74.0744 102.517 74.1311 102.658 74.1424 102.681C74.1707 102.726 74.2048 102.772 74.2274 102.817C74.2614 102.874 74.1821 102.755 74.1821 102.755C74.1934 102.76 74.2161 102.794 74.2274 102.811C74.2558 102.84 74.2898 102.868 74.3181 102.902C74.4201 103.01 74.2217 102.845 74.3124 102.902C74.3578 102.93 74.4031 102.964 74.4484 102.987C74.4654 102.998 74.4825 103.004 74.4938 103.01C74.5845 103.061 74.4485 102.993 74.4371 102.987C74.4768 102.993 74.5164 103.015 74.5561 103.027C74.5958 103.038 74.6412 103.049 74.6808 103.055C74.7828 103.078 74.6298 103.049 74.6185 103.049C74.6468 103.049 74.6865 103.055 74.7148 103.055C74.7488 103.055 74.7772 103.055 74.8112 103.055C74.8395 103.055 74.8622 103.055 74.8848 103.055C74.9359 103.055 74.9755 103.021 74.8225 103.066C74.9075 103.044 75.0039 103.015 75.0889 102.993C75.1682 102.97 74.9699 103.061 75.0322 103.015C75.0492 103.004 75.0662 102.998 75.0832 102.993C75.1285 102.97 75.1682 102.947 75.2079 102.919C75.2249 102.908 75.2362 102.896 75.2533 102.891C75.3213 102.851 75.1569 102.987 75.2079 102.925C75.2362 102.891 75.2816 102.862 75.3099 102.828C75.3269 102.811 75.3383 102.789 75.3553 102.777C75.4006 102.738 75.3099 102.84 75.3099 102.84C75.3269 102.8 75.3666 102.76 75.3893 102.721C75.4119 102.687 75.4289 102.647 75.4516 102.607C75.4913 102.539 75.4063 102.743 75.4289 102.664C75.4346 102.636 75.4516 102.607 75.4573 102.579C75.4743 102.534 75.4799 102.483 75.4913 102.437C75.5026 102.392 75.4913 102.335 75.4856 102.5C75.4856 102.477 75.4856 102.449 75.4913 102.426C75.4913 102.375 75.4913 102.324 75.4913 102.273V101.921C75.4913 101.581 75.7917 101.253 76.1431 101.27C76.4945 101.287 76.7948 101.559 76.7948 101.921L76.8288 101.91Z" fill="#181755"/>
<path d="M61.9686 121.22C64.264 122.585 64.3376 126.626 61.7589 127.715C60.3817 128.298 58.8231 127.879 57.854 126.757C56.9358 125.697 56.4994 124.155 57.0548 122.823C57.8199 121.004 60.2627 120.273 61.9686 121.22C62.7054 121.628 62.0479 122.755 61.3111 122.347C61.0788 122.217 60.7671 122.138 60.512 122.126C60.155 122.109 59.9056 122.132 59.5712 122.228C59.4238 122.268 59.2878 122.319 59.1972 122.364C59.1178 122.404 59.0441 122.444 58.9704 122.489C58.9421 122.506 58.8004 122.608 58.8401 122.574C58.5681 122.784 58.4944 122.891 58.3527 123.146C58.3244 123.197 58.3017 123.248 58.2733 123.299C58.2223 123.396 58.2847 123.249 58.2393 123.385C58.1997 123.515 58.1657 123.64 58.1373 123.77C58.109 123.923 58.1317 123.736 58.126 123.849C58.126 123.906 58.1203 123.963 58.1147 124.019C58.1147 124.155 58.1147 124.286 58.1317 124.422C58.1147 124.28 58.143 124.473 58.1487 124.507C58.16 124.575 58.177 124.637 58.194 124.705C58.228 124.835 58.2734 124.966 58.3244 125.096C58.2847 124.994 58.3357 125.119 58.3527 125.153C58.381 125.215 58.415 125.277 58.4434 125.334C58.5114 125.453 58.5851 125.572 58.6587 125.686C58.6757 125.708 58.6928 125.731 58.7098 125.759C58.6417 125.669 58.7041 125.748 58.7154 125.765C58.7551 125.81 58.7891 125.856 58.8288 125.895C58.9251 126.003 59.0328 126.105 59.1461 126.201C59.1688 126.218 59.1915 126.241 59.2141 126.258C59.2028 126.252 59.1348 126.201 59.1972 126.241C59.2538 126.281 59.3105 126.32 59.3672 126.354C59.4805 126.428 59.5996 126.49 59.7242 126.547C59.6166 126.496 59.7753 126.564 59.8093 126.575C59.8659 126.592 59.9169 126.609 59.9736 126.626C60.0416 126.643 60.104 126.655 60.172 126.672C60.2796 126.694 60.1096 126.672 60.2627 126.683C60.393 126.689 60.5234 126.683 60.6537 126.683C60.7841 126.683 60.6934 126.683 60.6651 126.683C60.6991 126.683 60.7274 126.672 60.7557 126.666C60.8407 126.649 60.9258 126.632 61.0051 126.604C61.0675 126.587 61.1241 126.564 61.1808 126.547C61.3225 126.496 61.1808 126.558 61.2715 126.507C61.3905 126.451 61.5039 126.377 61.6172 126.303C61.7079 126.241 61.5662 126.354 61.6796 126.252C61.7192 126.218 61.7589 126.179 61.7986 126.139C61.8439 126.094 61.8836 126.048 61.9233 126.003C61.9289 125.997 61.9856 125.924 61.9403 125.986C61.8836 126.054 61.9799 125.924 61.9856 125.924C62.0479 125.827 62.1046 125.731 62.1556 125.629C62.1669 125.606 62.2293 125.465 62.201 125.538C62.1783 125.601 62.2406 125.43 62.252 125.391C62.286 125.277 62.3143 125.17 62.337 125.051C62.337 125.022 62.371 124.841 62.3597 124.926C62.3483 125 62.3653 124.83 62.371 124.796C62.3823 124.648 62.3823 124.507 62.371 124.359C62.371 124.297 62.3597 124.235 62.354 124.167C62.3483 124.065 62.371 124.274 62.354 124.178C62.3483 124.144 62.3426 124.104 62.337 124.07C62.3143 123.934 62.2803 123.804 62.2406 123.674C62.218 123.606 62.1953 123.538 62.1726 123.47C62.167 123.441 62.1556 123.419 62.1443 123.396C62.116 123.322 62.1896 123.492 62.1386 123.379C62.0819 123.26 62.0253 123.141 61.9573 123.027C61.9232 122.965 61.8836 122.908 61.8439 122.852C61.7646 122.727 61.8779 122.88 61.8042 122.801C61.7135 122.699 61.6229 122.602 61.5208 122.512C61.5038 122.495 61.4812 122.478 61.4642 122.461C61.3962 122.398 61.5548 122.523 61.4812 122.472C61.4188 122.432 61.3565 122.387 61.2942 122.353C60.5687 121.922 61.2261 120.794 61.9516 121.225L61.9686 121.22Z" fill="#181755"/>
<path d="M61.4868 130.248C62.9094 130.928 63.6008 132.645 63.3005 134.147C62.9774 135.768 61.2715 136.618 59.7299 136.391C57.4686 136.063 56.5674 133.252 57.6272 131.41C58.4094 130.055 60.087 129.636 61.4868 130.248C61.8099 130.39 61.8836 130.86 61.7192 131.143C61.5265 131.478 61.1468 131.523 60.8237 131.376C60.5574 131.257 60.2853 131.268 59.985 131.268C59.8093 131.268 60.1096 131.24 59.9453 131.268C59.8943 131.279 59.8433 131.285 59.7923 131.296C59.6789 131.325 59.5656 131.359 59.4579 131.398C59.6166 131.342 59.4692 131.398 59.4409 131.41C59.4012 131.432 59.3559 131.455 59.3162 131.478C59.2709 131.506 59.0498 131.676 59.1858 131.557C59.1178 131.614 59.0498 131.676 58.9875 131.738C58.9591 131.772 58.9308 131.806 58.8968 131.84C58.8231 131.914 58.9591 131.733 58.8628 131.886C58.8118 131.959 58.7664 132.033 58.7211 132.113C58.6984 132.152 58.6814 132.192 58.6587 132.232C58.5851 132.362 58.7041 132.096 58.6587 132.243C58.5964 132.43 58.5454 132.617 58.5057 132.81C58.4717 132.963 58.5114 132.662 58.5057 132.815C58.5057 132.861 58.5001 132.906 58.4944 132.951C58.4944 133.042 58.4887 133.133 58.4944 133.229C58.5001 133.325 58.5057 133.41 58.5171 133.507C58.5 133.32 58.5171 133.478 58.5171 133.512C58.5284 133.575 58.5397 133.631 58.5567 133.694C58.5794 133.784 58.6021 133.869 58.6361 133.954C58.6531 134 58.6701 134.039 58.6814 134.085C58.6191 133.92 58.6701 134.062 58.6871 134.096C58.7267 134.175 58.7664 134.255 58.8174 134.334C58.8401 134.374 58.8685 134.408 58.8911 134.448C58.9875 134.601 58.8515 134.414 58.9251 134.493C58.9761 134.55 59.0215 134.606 59.0781 134.657C59.1178 134.691 59.3332 134.867 59.1858 134.759C59.2595 134.81 59.3389 134.861 59.4182 134.907C59.4579 134.929 59.5032 134.946 59.5429 134.969C59.6109 134.997 59.5996 134.997 59.5145 134.963C59.5429 134.975 59.5769 134.986 59.6052 134.997C59.7016 135.026 59.7922 135.06 59.8886 135.077C59.9396 135.088 59.9906 135.094 60.0416 135.105C59.8603 135.077 60.07 135.105 60.0926 135.105C60.4327 135.128 60.5744 135.105 60.8748 135.02C61.3452 134.884 61.7305 134.618 61.9459 134.158C61.9006 134.255 61.9856 134.045 61.9856 134.051C62.0139 133.96 62.0309 133.869 62.0536 133.773C62.1046 133.569 62.0536 133.875 62.0706 133.665C62.0763 133.569 62.082 133.478 62.082 133.382C62.082 133.184 62.0819 133.138 62.0479 132.997C62.0139 132.838 61.9743 132.679 61.9176 132.521C61.7362 132.028 61.3622 131.602 60.8408 131.347C60.5234 131.194 60.4384 130.741 60.6084 130.452C60.8011 130.129 61.1808 130.067 61.5039 130.22L61.4868 130.248Z" fill="#181755"/>
<path d="M92.5733 125.958C92.562 127.692 92.545 129.42 92.5336 131.155C92.5223 132.889 92.4203 134.72 92.4826 136.494C92.5279 137.752 92.3636 138.806 91.026 139.271C90.3289 139.514 89.5581 139.486 88.827 139.509C87.8919 139.531 86.9511 139.56 86.0159 139.582C82.4567 139.673 78.8918 139.769 75.3326 139.86C72.8842 139.922 70.0618 140.211 68.0271 138.534C66.973 137.667 66.7633 136.494 66.6839 135.19C66.5762 133.433 66.5932 131.659 66.5592 129.897C66.4912 126.32 66.4232 122.744 66.3609 119.168C66.3439 118.312 66.2758 117.439 66.3155 116.583C66.3439 115.954 66.5422 115.416 67.075 115.048C67.6417 114.656 68.3955 114.526 69.053 114.384C69.8974 114.209 70.7532 114.095 71.609 114.01C75.0832 113.665 78.5971 113.557 82.0827 113.376C83.9699 113.279 85.8742 113.115 87.7672 113.2C89.3088 113.268 91.0714 113.404 91.7968 114.985C92.0972 115.643 92.1765 116.368 92.2672 117.077C92.3862 118.023 92.4599 118.975 92.5109 119.933C92.6186 121.934 92.6016 123.94 92.5846 125.946C92.5789 126.785 91.2697 126.791 91.2754 125.946C91.2981 122.857 91.3718 119.712 90.8957 116.651C90.8163 116.136 90.72 115.529 90.3516 115.133C89.8925 114.639 89.0481 114.605 88.4246 114.554C86.9624 114.43 85.4888 114.52 84.0266 114.594C80.8755 114.747 77.7186 114.917 74.5675 115.11C73.0599 115.201 71.5467 115.274 70.0561 115.529C69.4043 115.643 68.6959 115.75 68.0781 115.994C67.3753 116.277 67.636 117.292 67.6474 117.915C67.7041 121.072 67.7664 124.229 67.8231 127.386C67.8514 128.916 67.8798 130.452 67.9081 131.982C67.9194 132.725 67.9308 133.467 67.9535 134.21C67.9761 134.952 67.9421 135.813 68.1801 136.539C68.8546 138.613 71.9094 138.636 73.655 138.591C76.7948 138.506 79.9347 138.426 83.0745 138.341C84.8087 138.296 86.543 138.25 88.2773 138.205C89.0424 138.182 90.0002 138.301 90.7143 137.984C91.4284 137.667 91.2017 136.975 91.1847 136.346C91.0827 132.889 91.2527 129.403 91.2811 125.946C91.2867 125.107 92.596 125.102 92.5903 125.946L92.5733 125.958Z" fill="#181755"/>
<path d="M92.2785 134C92.5449 134.98 92.0688 135.966 91.2244 136.499C90.1872 137.157 88.8553 137.026 87.6822 137.038C84.7067 137.066 81.7369 137.219 78.7614 137.344C77.2765 137.406 75.7916 137.457 74.3067 137.485C73.0259 137.508 71.7167 137.576 70.4471 137.44C68.5768 137.236 67.0919 136.318 66.7689 134.351C66.6329 133.529 67.8911 133.172 68.0328 134.005C68.3105 135.706 69.597 136.125 71.1612 136.182C73.5019 136.272 75.8653 136.153 78.206 136.063C80.5467 135.972 83.0348 135.842 85.4548 135.774C86.628 135.74 87.8012 135.757 88.9743 135.723C89.7225 135.7 91.3207 135.479 91.0147 134.345C90.7937 133.529 92.0575 133.184 92.2785 134Z" fill="#181755"/>
<path d="M69.1777 118.805C69.1493 116.187 72.6916 116.538 74.4995 116.464C77.2086 116.351 79.9177 116.283 82.6211 116.249C83.9757 116.232 85.3302 116.221 86.6847 116.232C87.6086 116.238 88.5607 116.43 88.8554 117.439C89.1841 118.567 89.1671 119.893 89.2238 121.055C89.2861 122.364 89.2975 123.674 89.3202 124.983C89.3428 126.292 89.3655 127.715 89.3882 129.08C89.4052 130.044 89.5299 131.109 89.2805 132.056C88.8101 133.841 86.8888 133.802 85.3812 133.864C82.6608 133.983 79.9347 134.045 77.2086 134.113C75.939 134.147 74.6695 134.164 73.4 134.221C72.6689 134.255 71.8981 134.346 71.184 134.13C70.3112 133.87 69.8578 133.195 69.7728 132.311C69.6254 130.86 69.5687 129.392 69.495 127.936C69.3364 124.892 69.274 121.843 69.1777 118.799C69.1493 117.955 70.4585 117.961 70.4869 118.799C70.5605 121.112 70.6229 123.43 70.7079 125.742C70.7419 126.745 70.7929 127.749 70.8496 128.752C70.9176 129.908 70.8723 131.166 71.082 132.305C71.1953 132.929 71.7734 132.946 72.3175 132.951C73.0996 132.951 73.8931 132.889 74.6752 132.866C76.9309 132.804 79.1866 132.753 81.4423 132.691C82.5701 132.657 83.6979 132.623 84.8258 132.572C85.6532 132.538 86.8094 132.685 87.5746 132.294C87.9599 132.096 88.0506 131.716 88.0903 131.308C88.198 130.248 88.0903 129.143 88.0733 128.077C88.0393 125.867 88.0336 123.651 87.9429 121.446C87.8976 120.352 87.8523 119.236 87.6766 118.153C87.6029 117.706 87.4782 117.57 87.0305 117.536C86.4127 117.485 85.7723 117.53 85.1545 117.536C82.6324 117.541 80.1104 117.581 77.5883 117.66C76.2791 117.7 74.9756 117.745 73.6664 117.808C73.0713 117.836 72.4705 117.847 71.8754 117.921C71.2803 117.995 70.4869 118.029 70.4925 118.805C70.5039 119.65 69.1947 119.65 69.1833 118.805H69.1777Z" fill="#181755"/>
<path d="M83.5223 123.209C82.9272 122.223 81.7994 121.951 80.7679 122.41C80.2975 122.619 79.8611 122.852 79.3283 122.835C78.7389 122.818 78.2685 122.432 77.7131 122.302C76.6419 122.047 75.6274 122.687 75.1854 123.657C74.7149 124.694 74.953 125.873 75.191 126.932C75.429 127.992 75.7748 129.171 76.5286 129.976C76.8856 130.361 77.3617 130.628 77.8944 130.463C78.4272 130.299 78.8579 129.999 79.4473 130.038C79.9121 130.072 80.3258 130.265 80.7622 130.418C81.3573 130.628 81.7087 130.503 82.1734 130.067C82.5475 129.715 82.8705 129.318 83.1369 128.882C83.2616 128.672 83.3806 128.463 83.477 128.242C83.528 128.128 83.562 127.981 83.6243 127.873L83.6753 127.72C83.868 128.14 83.851 128.259 83.6357 128.077C82.6892 127.595 82.1224 126.32 82.1054 125.311C82.0884 124.087 82.7799 122.976 83.8057 122.347C84.5255 121.905 85.1829 123.039 84.4631 123.475C83.426 124.11 83.0802 125.465 83.8114 126.468C84.1117 126.876 84.7805 127.068 84.9392 127.556C85.1035 128.072 84.6558 128.82 84.4178 129.256C83.8794 130.254 82.9385 131.506 81.7824 131.789C81.2099 131.931 80.6602 131.767 80.1274 131.563C79.9007 131.478 79.657 131.359 79.4133 131.336C79.0733 131.308 78.7729 131.5 78.4725 131.625C75.6047 132.793 74.2219 128.82 73.8195 126.751C73.5587 125.419 73.4624 124.07 74.1255 122.835C74.6979 121.775 75.7634 121.038 76.9649 120.93C77.7187 120.862 78.3365 121.129 79.0166 121.401C79.6967 121.673 80.3825 121.049 81.0739 120.913C82.5021 120.636 83.9021 121.299 84.6445 122.529C85.0809 123.248 83.953 123.906 83.5166 123.186L83.5223 123.209Z" fill="#181755"/>
<path d="M79.5038 119.003C79.9686 118.584 80.4447 118.199 81.0681 118.051C81.3685 117.983 81.6858 117.955 81.9919 118.017C82.2979 118.08 82.4453 118.374 82.4736 118.646C82.502 118.918 82.4566 119.207 82.4113 119.474C82.3093 120.058 82.0429 120.596 81.6745 121.055C81.2608 121.565 80.6657 121.928 80.0479 122.132C79.6625 122.262 79.0958 122.398 78.7784 122.07C78.461 121.741 78.546 121.265 78.6084 120.862C78.7047 120.177 79.0051 119.479 79.5095 118.998C79.7589 118.76 80.1896 118.731 80.4333 118.998C80.677 119.264 80.6997 119.672 80.4333 119.922C80.405 119.95 80.2519 120.075 80.2576 120.109C80.3143 120.035 80.3256 120.024 80.2803 120.08L80.2576 120.114C80.2349 120.148 80.2123 120.188 80.1896 120.228C80.1442 120.307 80.1046 120.386 80.0649 120.466C80.0026 120.59 80.1046 120.352 80.0649 120.477C80.0479 120.528 80.0252 120.573 80.0139 120.624C79.9572 120.794 79.9232 120.97 79.8892 121.151C79.9062 120.998 79.8779 121.214 79.8892 121.151C79.8892 121.197 79.8835 121.236 79.8779 121.282C79.8722 121.327 79.8779 121.367 79.8722 121.412C79.8722 121.435 79.8722 121.452 79.8722 121.474C79.8722 121.548 79.8722 121.531 79.8609 121.418L79.6908 121.129L79.7135 121.157L79.4245 120.987C79.3055 120.981 79.2885 120.976 79.3678 120.97C79.4415 120.964 79.4245 120.964 79.3281 120.97C79.3451 120.981 79.4358 120.947 79.4642 120.942C79.5718 120.919 79.6795 120.885 79.7815 120.845C79.8099 120.834 79.8439 120.823 79.8722 120.811C79.7929 120.845 79.7815 120.851 79.8495 120.823C79.8949 120.8 79.9402 120.783 79.9799 120.76C80.0819 120.709 80.1783 120.653 80.2746 120.59C80.3256 120.556 80.388 120.522 80.4276 120.483C80.3143 120.596 80.4106 120.494 80.439 120.471C80.5183 120.403 80.5977 120.324 80.6657 120.245C80.6883 120.222 80.711 120.194 80.728 120.171C80.7734 120.114 80.7677 120.12 80.7167 120.188C80.7507 120.16 80.7733 120.109 80.796 120.075C80.8584 119.984 80.9151 119.888 80.9604 119.786C80.9774 119.757 80.9944 119.672 81.0227 119.65C80.9831 119.74 80.9774 119.757 81.0057 119.695C81.0114 119.678 81.0171 119.655 81.0284 119.638C81.0567 119.553 81.0851 119.468 81.1077 119.383C81.1304 119.304 81.1474 119.224 81.1588 119.145C81.1644 119.111 81.1701 119.071 81.1757 119.037C81.1361 119.258 81.1644 119.134 81.1701 119.083C81.1871 118.941 81.1927 118.794 81.1814 118.652L81.6632 119.281C81.5725 119.264 81.8502 119.298 81.7935 119.298C81.7538 119.298 81.7198 119.292 81.6802 119.292C81.6235 119.292 81.5725 119.292 81.5158 119.298C81.4988 119.298 81.4818 119.298 81.4648 119.298C81.3968 119.298 81.6292 119.27 81.5612 119.287C81.5215 119.298 81.4761 119.304 81.4365 119.309C81.3514 119.332 81.2664 119.355 81.1814 119.389C81.1587 119.394 81.1361 119.411 81.1134 119.417C81.1417 119.411 81.2438 119.36 81.1644 119.4C81.1134 119.423 81.0681 119.451 81.0171 119.474C80.9661 119.502 80.915 119.536 80.864 119.564C80.83 119.587 80.8017 119.61 80.7677 119.633C80.694 119.684 80.8527 119.559 80.779 119.621C80.6657 119.718 80.558 119.825 80.4446 119.927C80.1896 120.16 79.7645 120.194 79.5208 119.927C79.2885 119.678 79.2488 119.247 79.5208 119.003H79.5038Z" fill="#181755"/>
<path d="M114.614 111.562C114.654 111.035 114.903 110.479 114.212 110.332C113.639 110.213 110.143 110.139 109.445 110.372C108.748 110.604 108.952 111.177 108.952 111.658" fill="#181755"/>
<path d="M114.252 111.562C114.269 111.364 114.405 110.99 114.32 110.797C114.291 110.723 114.229 110.712 114.15 110.689C114.116 110.678 114.087 110.678 114.053 110.666C113.974 110.649 114.099 110.666 114.025 110.666C113.623 110.621 113.209 110.61 112.806 110.598C111.826 110.57 110.749 110.525 109.803 110.666C109.672 110.683 109.44 110.717 109.344 110.859C109.208 111.063 109.304 111.432 109.31 111.658C109.315 112.123 108.596 112.123 108.59 111.658C108.59 111.341 108.533 111.018 108.629 110.712C108.737 110.36 109.026 110.128 109.372 110.02C109.808 109.884 110.313 109.89 110.766 109.879C111.888 109.839 113.073 109.805 114.184 109.969C114.507 110.015 114.813 110.162 114.96 110.468C115.125 110.814 115 111.205 114.971 111.568C114.932 112.027 114.212 112.032 114.252 111.568V111.562Z" fill="#181755"/>
<path d="M114.614 107.94C114.654 107.413 114.903 106.858 114.212 106.711C113.639 106.591 110.143 106.518 109.445 106.75C108.748 106.983 108.952 107.555 108.952 108.037" fill="#181755"/>
<path d="M114.252 107.94C114.269 107.742 114.405 107.368 114.32 107.175C114.291 107.102 114.229 107.09 114.15 107.068C114.116 107.056 114.087 107.056 114.053 107.045C113.974 107.028 114.099 107.045 114.025 107.045C113.623 107 113.209 106.988 112.806 106.977C111.826 106.949 110.749 106.903 109.803 107.045C109.672 107.062 109.44 107.096 109.344 107.238C109.208 107.442 109.304 107.81 109.31 108.037C109.315 108.501 108.596 108.501 108.59 108.037C108.59 107.719 108.533 107.396 108.629 107.09C108.737 106.739 109.026 106.506 109.372 106.399C109.808 106.263 110.313 106.268 110.766 106.257C111.888 106.217 113.073 106.183 114.184 106.348C114.507 106.393 114.813 106.54 114.96 106.846C115.125 107.192 115 107.583 114.971 107.946C114.932 108.405 114.212 108.411 114.252 107.946V107.94Z" fill="#181755"/>
<path d="M114.614 104.727C114.654 104.2 114.903 103.644 114.212 103.497C113.639 103.378 110.143 103.304 109.445 103.537C108.748 103.769 108.952 104.342 108.952 104.823" fill="#181755"/>
<path d="M114.252 104.727C114.269 104.529 114.405 104.155 114.32 103.962C114.291 103.888 114.229 103.877 114.15 103.854C114.116 103.843 114.087 103.843 114.053 103.832C113.974 103.815 114.099 103.832 114.025 103.832C113.623 103.786 113.209 103.775 112.806 103.764C111.826 103.735 110.749 103.69 109.803 103.832C109.672 103.849 109.44 103.882 109.344 104.024C109.208 104.228 109.304 104.597 109.31 104.823C109.315 105.288 108.596 105.288 108.59 104.823C108.59 104.506 108.533 104.183 108.629 103.877C108.737 103.525 109.026 103.293 109.372 103.185C109.808 103.049 110.313 103.055 110.766 103.044C111.888 103.004 113.073 102.97 114.184 103.134C114.507 103.18 114.813 103.327 114.96 103.633C115.125 103.979 115 104.37 114.971 104.733C114.932 105.192 114.212 105.197 114.252 104.733V104.727Z" fill="#181755"/>
<path d="M114.614 118.811C114.654 118.284 114.903 117.728 114.212 117.581C113.639 117.462 110.143 117.388 109.445 117.621C108.748 117.853 108.952 118.425 108.952 118.907" fill="#181755"/>
<path d="M114.252 118.811C114.269 118.612 114.405 118.238 114.32 118.046C114.291 117.972 114.229 117.961 114.15 117.938C114.116 117.927 114.087 117.927 114.053 117.915C113.974 117.898 114.099 117.915 114.025 117.915C113.623 117.87 113.209 117.859 112.806 117.847C111.826 117.819 110.749 117.774 109.803 117.915C109.672 117.932 109.44 117.966 109.344 118.108C109.208 118.312 109.304 118.68 109.31 118.907C109.315 119.372 108.596 119.372 108.59 118.907C108.59 118.59 108.533 118.267 108.629 117.961C108.737 117.609 109.026 117.377 109.372 117.269C109.808 117.133 110.313 117.139 110.766 117.127C111.888 117.088 113.073 117.054 114.184 117.218C114.507 117.263 114.813 117.411 114.96 117.717C115.125 118.063 115 118.454 114.971 118.816C114.932 119.275 114.212 119.281 114.252 118.816V118.811Z" fill="#181755"/>
<path d="M114.614 115.189C114.654 114.662 114.903 114.107 114.212 113.959C113.639 113.84 110.143 113.767 109.445 113.999C108.748 114.231 108.952 114.804 108.952 115.285" fill="#181755"/>
<path d="M114.252 115.189C114.269 114.991 114.405 114.617 114.32 114.424C114.291 114.35 114.229 114.339 114.15 114.316C114.116 114.305 114.087 114.305 114.053 114.294C113.974 114.277 114.099 114.294 114.025 114.294C113.623 114.248 113.209 114.237 112.806 114.226C111.826 114.197 110.749 114.152 109.803 114.294C109.672 114.311 109.44 114.345 109.344 114.486C109.208 114.69 109.304 115.059 109.31 115.285C109.315 115.75 108.596 115.75 108.59 115.285C108.59 114.968 108.533 114.645 108.629 114.339C108.737 113.988 109.026 113.755 109.372 113.648C109.808 113.512 110.313 113.517 110.766 113.506C111.888 113.466 113.073 113.432 114.184 113.597C114.507 113.642 114.813 113.789 114.96 114.095C115.125 114.441 115 114.832 114.971 115.195C114.932 115.654 114.212 115.66 114.252 115.195V115.189Z" fill="#181755"/>
<path d="M35.8865 160.144C33.0811 160.343 30.2757 160.541 27.4702 160.739C26.6314 160.802 26.6314 159.492 27.4702 159.43C30.2757 159.232 33.0811 159.033 35.8865 158.835C36.7253 158.773 36.7253 160.082 35.8865 160.144Z" fill="#181755"/>
<path d="M23.7238 161.057C23.6841 161.023 23.6388 161 23.5878 160.977L23.7465 161.045C23.6898 161.023 23.6331 161.006 23.5708 161L23.7465 161.023C23.6841 161.017 23.6161 161.017 23.5537 161.023L23.7294 161C23.6671 161.011 23.6104 161.023 23.5537 161.045L23.7125 160.977C23.6614 161 23.6104 161.028 23.5651 161.062L23.6954 160.96C23.6954 160.96 23.6784 160.977 23.6671 160.983C23.6104 161.045 23.5368 161.091 23.4574 161.119C23.3781 161.159 23.2931 161.181 23.208 161.176C23.1174 161.176 23.0323 161.159 22.9587 161.119C22.8793 161.091 22.8056 161.045 22.749 160.983C22.6356 160.858 22.5506 160.694 22.5563 160.518C22.5619 160.343 22.6186 160.167 22.749 160.054C22.817 159.991 22.8907 159.935 22.97 159.889C23.0494 159.844 23.14 159.81 23.225 159.776C23.2647 159.759 23.2987 159.747 23.3384 159.742C23.4347 159.725 23.5311 159.708 23.6274 159.702C23.6671 159.702 23.7068 159.702 23.7465 159.702C23.8371 159.713 23.9335 159.719 24.0242 159.747C24.1148 159.776 24.1999 159.81 24.2792 159.85C24.3189 159.867 24.3529 159.889 24.3869 159.918C24.4606 159.957 24.5229 160.014 24.5683 160.088C24.6249 160.15 24.6646 160.224 24.6873 160.309C24.7156 160.394 24.7156 160.484 24.6986 160.569C24.6986 160.654 24.6703 160.739 24.6193 160.813C24.5286 160.955 24.3925 161.074 24.2282 161.113L24.0525 161.136C23.9335 161.136 23.8258 161.108 23.7238 161.045V161.057Z" fill="#181755"/>
<path d="M36.8839 151.943C31.5677 151.32 26.2232 151.932 20.9014 152.119C20.0569 152.147 20.0626 150.838 20.9014 150.81C26.2232 150.623 31.5677 150.011 36.8839 150.634C37.7113 150.73 37.717 152.04 36.8839 151.943Z" fill="#181755"/>
<path d="M38.1761 143.946C36.5552 143.85 34.9343 143.895 33.3247 144.082C32.9733 144.122 32.6729 143.754 32.6729 143.431C32.6729 143.045 32.9733 142.818 33.3247 142.779C34.9343 142.592 36.5552 142.546 38.1761 142.643C38.5275 142.665 38.8279 142.926 38.8279 143.295C38.8279 143.635 38.5275 143.969 38.1761 143.946Z" fill="#181755"/>
<path d="M30.4683 144.179H29.3291C29.1591 144.179 28.9834 144.105 28.8643 143.986C28.7453 143.867 28.666 143.686 28.6717 143.521C28.6773 143.357 28.734 143.176 28.8643 143.057C28.9947 142.938 29.1477 142.864 29.3291 142.864H30.4683C30.6383 142.864 30.814 142.938 30.933 143.057C31.052 143.176 31.1314 143.357 31.1257 143.521C31.12 143.686 31.0634 143.867 30.933 143.986C30.8027 144.105 30.6496 144.179 30.4683 144.179Z" fill="#181755"/>
<path d="M105.371 160.303C103.376 160.303 101.375 160.303 99.3802 160.303C98.5414 160.303 98.5357 158.994 99.3802 158.994C101.375 158.994 103.376 158.994 105.371 158.994C106.21 158.994 106.215 160.303 105.371 160.303Z" fill="#181755"/>
<path d="M96.2742 160.156C95.7018 160.314 95.067 160.303 94.5059 160.099C94.3416 160.037 94.2055 159.952 94.1149 159.799C94.0355 159.657 93.9958 159.453 94.0469 159.294C94.0979 159.135 94.1942 158.982 94.3472 158.903C94.5003 158.824 94.6873 158.778 94.8516 158.835C95.016 158.892 95.1747 158.937 95.3391 158.96L95.1634 158.937C95.3674 158.965 95.5657 158.965 95.7698 158.937L95.5941 158.96C95.7018 158.943 95.8095 158.92 95.9171 158.892C96.0815 158.846 96.2742 158.875 96.4216 158.96C96.5576 159.039 96.6879 159.192 96.722 159.351C96.7616 159.521 96.7503 159.708 96.6539 159.855C96.5576 160.003 96.4329 160.11 96.2629 160.156H96.2742Z" fill="#181755"/>
<path d="M105.371 150.912C102.276 150.844 99.1931 150.6 96.0986 150.594C95.2598 150.594 95.2542 149.285 96.0986 149.285C99.1931 149.285 102.282 149.535 105.371 149.603C106.21 149.62 106.215 150.929 105.371 150.912Z" fill="#181755"/>
<path d="M108.505 141.883C106.748 142.053 104.985 142.099 103.228 142.025C102.877 142.008 102.576 141.736 102.576 141.373C102.576 141.033 102.877 140.705 103.228 140.722C104.991 140.795 106.753 140.75 108.505 140.58C108.856 140.546 109.156 140.903 109.156 141.232C109.156 141.611 108.856 141.849 108.505 141.883Z" fill="#181755"/>
<path d="M90.6803 78.0724C92.2955 74.2128 93.7634 70.2908 95.237 66.3746V67.1567C93.361 62.0616 91.3094 57.0458 88.9857 52.1433C88.6456 51.4236 88.7873 50.5564 89.5127 50.1314C90.1532 49.7573 91.1847 49.9387 91.5247 50.6584C93.8257 55.5042 95.8831 60.4576 97.7477 65.4847C97.9914 66.1479 98.2294 66.7486 97.9744 67.4287C97.81 67.8708 97.64 68.3129 97.4756 68.7549C96.8862 70.3022 96.2968 71.8494 95.6961 73.3967C94.9876 75.2216 94.2792 77.0466 93.5197 78.8545C93.2137 79.5856 92.5449 80.1127 91.7118 79.8803C91.0203 79.6876 90.3742 78.8092 90.6859 78.0724H90.6803Z" fill="#181755"/>
<path d="M79.3622 76.7235C79.5379 76.5365 79.1695 77.0635 79.2659 76.8595C79.2942 76.8028 79.3452 76.7462 79.3792 76.6895C79.4812 76.5251 79.5833 76.3608 79.6739 76.1907C79.9233 75.7487 80.1557 75.3009 80.3881 74.8475C81.0002 73.6403 81.5839 72.4218 82.1563 71.1976C82.9441 69.5257 83.7149 67.8481 84.4687 66.1592V67.6441C83.1198 64.9576 81.7766 62.2656 80.4277 59.5791C80.0707 58.8707 80.2407 57.9866 80.9548 57.5672C81.6066 57.1874 82.6097 57.3801 82.9668 58.0942C84.2647 60.6843 85.5625 63.2744 86.8604 65.8701C87.1778 66.5049 87.2798 67.0263 86.9738 67.7291C86.7811 68.1655 86.5827 68.6019 86.3843 69.0326C85.5908 70.7726 84.7917 72.5125 83.9643 74.2354C83.5052 75.1876 83.0461 76.1341 82.5531 77.0692C82.2357 77.6643 81.9183 78.3161 81.4479 78.8091C80.1387 80.1864 78.0644 78.1007 79.3679 76.7292L79.3622 76.7235Z" fill="#181755"/>
<path d="M73.3149 52.5514C73.2809 54.263 73.1562 55.986 73.2242 57.6976C73.2299 57.8619 73.2412 58.0206 73.2582 58.185C73.2185 57.8053 73.2355 58.0206 73.2582 58.117C73.2979 58.253 73.3829 58.3493 73.1959 58.0093C73.2582 58.1226 73.3035 58.1056 73.0712 57.8676C73.2129 58.015 72.9012 57.7486 72.9068 57.7542C73.1052 57.8789 72.5838 57.6862 72.7538 57.6976C72.8161 57.6976 72.9011 57.7372 72.9635 57.7542C73.3319 57.8619 72.5384 57.7373 72.8048 57.7373C72.8672 57.7373 72.9352 57.7429 72.9975 57.7486C73.1959 57.7599 73.3999 57.7599 73.5983 57.7599C75.9333 57.7826 78.2627 57.6692 80.5977 57.6919C80.626 57.6919 80.6544 57.6919 80.6827 57.6919C80.9547 57.7089 80.7677 57.6353 80.7224 57.7146L80.4163 58.0036C80.15 58.3607 80.0593 58.4117 80.1443 58.1623C80.1273 58.304 80.1216 58.321 80.133 58.2133C80.133 58.1226 80.1443 58.0376 80.1443 57.947C80.167 57.3405 80.1953 56.7284 80.2236 56.122C80.2803 54.9318 80.3427 53.7416 80.388 52.5514C80.4163 51.758 81.0398 51.0779 81.8616 51.0779C82.6323 51.0779 83.3635 51.7523 83.3351 52.5514C83.2898 53.7416 83.2274 54.9318 83.1708 56.122C83.1424 56.7284 83.1141 57.3405 83.0914 57.947C83.0574 58.6951 82.9781 59.4432 82.4283 60.0043C81.7822 60.6674 80.9491 60.6334 80.1103 60.639C79.4925 60.639 78.8748 60.656 78.257 60.6617C76.7891 60.6844 75.3155 60.7127 73.8476 60.707C72.4534 60.7014 70.9799 60.5767 70.4698 59.0181C70.1241 57.9526 70.2714 56.6491 70.2941 55.5439C70.3168 54.5464 70.3621 53.5489 70.3791 52.5514C70.3961 51.758 71.0422 51.0779 71.8527 51.0779C72.6631 51.0779 73.3376 51.7523 73.3262 52.5514H73.3149Z" fill="#181755"/>
<path d="M97.7818 34.3359C99.0796 35.9058 100.219 37.6684 100.281 39.7768C100.343 41.8851 99.363 43.5797 97.4757 44.3731C95.9058 45.0306 94.2225 44.8946 92.5619 44.8776C87.4611 44.8322 82.3603 44.8265 77.2652 44.8265C71.575 44.8265 65.8848 44.8379 60.1945 44.9399C57.1737 44.9966 54.1246 45.1779 51.1491 44.5148C47.5332 43.7044 44.6824 41.4147 42.8858 38.1955C40.9249 34.6703 40.0917 30.5726 39.831 26.5827C39.559 22.4567 40.1201 18.3477 41.69 14.5051C44.5691 7.46037 51.0358 -0.604536 59.5088 0.0358971C62.2405 0.239929 64.995 1.2714 67.0976 3.06235C68.1121 3.92949 69.0699 4.86464 70.0277 5.79412C73.2922 8.95094 76.4718 12.1928 79.6513 15.4346C83.2275 19.0845 86.781 22.7515 90.3176 26.4354C92.6299 28.8441 94.9593 31.2471 97.215 33.7125C97.4077 33.9222 97.6004 34.1262 97.7818 34.3472C98.2918 34.9537 98.3769 35.8321 97.7818 36.4272C97.2547 36.9543 96.2118 37.0393 95.7017 36.4272C94.1772 34.6079 92.4486 32.9304 90.8106 31.2131C87.6255 27.8749 84.4233 24.5537 81.2098 21.2495C77.9963 17.9454 74.5108 14.3805 71.1103 10.9969C69.0246 8.9226 66.9503 6.83127 64.7229 4.90431C64.4679 4.68327 65.046 5.07433 64.8193 4.97799C64.7682 4.95532 64.7286 4.90999 64.6776 4.88165C63.9181 4.43391 63.17 3.96918 62.3369 3.6518C60.6479 3.01136 58.789 2.75063 57.0037 3.09635C53.4615 3.77646 50.5597 6.18518 48.3267 8.91127C45.9237 11.8471 44.1894 15.3949 43.3053 19.0789C42.4211 22.7628 42.5344 26.5033 43.2089 30.1249C43.838 33.5084 45.0055 37.1924 47.6239 39.5841C49.9023 41.6641 53.0308 42.0495 56.0005 42.0835C58.3809 42.1118 60.7613 41.9985 63.1417 41.9701C65.8848 41.9361 68.6335 41.9248 71.3766 41.9135C76.9762 41.8908 82.5757 41.8964 88.1809 41.9248C89.9832 41.9361 91.7855 41.9418 93.5878 41.9644C94.1148 41.9701 94.6419 41.9928 95.1747 41.9644C95.237 41.9644 95.6111 41.9134 95.2654 41.9644C95.4014 41.9418 95.5374 41.9191 95.6677 41.8908C95.8094 41.8568 95.9511 41.8227 96.0928 41.7831C96.0928 41.7831 96.5462 41.6131 96.3082 41.7207C96.9599 41.4374 97.13 41.2503 97.2773 40.5589C97.6061 39.0173 96.6369 37.5721 95.7017 36.4442C95.1973 35.8322 95.101 34.965 95.7017 34.3643C96.2232 33.8428 97.2717 33.7465 97.7818 34.3643V34.3359Z" fill="#181755"/>
<path d="M49.84 37.9688C55.9553 40.9726 63.7255 38.6602 67.2791 32.885C69.2344 29.6998 70.0278 25.8913 70.1865 22.196C70.2772 20.065 70.1299 17.9114 69.5178 15.8597C68.9567 13.9724 68.0045 12.2268 66.8483 10.6399C64.4226 7.32435 60.0813 3.68012 55.7343 5.78845C54.9805 6.15684 54.3174 5.029 55.0768 4.66061C59.0894 2.71097 63.3741 4.8193 66.1909 7.81744C69.2457 11.0649 71.1783 15.0889 71.473 19.5606C71.7508 23.783 71.0423 28.317 69.1834 32.1313C67.4944 35.5941 64.6663 38.2522 61.0561 39.6124C57.2248 41.0577 52.8608 40.9046 49.1826 39.0967C48.4288 38.7283 49.0919 37.5948 49.84 37.9688Z" fill="#181755"/>
<path d="M53.6259 16.6135C55.2015 18.1721 55.6946 20.6318 55.6889 22.7685C55.6889 24.7521 55.2695 27.2175 53.5579 28.47C51.5629 29.9266 48.3948 29.3372 47.1989 27.1382C46.0031 24.9392 46.2185 21.8787 46.7795 19.521C47.1139 18.1154 47.8507 16.5852 49.2166 15.9334C50.7128 15.2193 52.4131 15.497 53.6259 16.6078C54.2494 17.1803 53.3199 18.1041 52.7021 17.5317C51.852 16.7495 50.5258 16.5852 49.5453 17.2483C48.6668 17.8377 48.2531 18.9542 48.0264 19.946C47.59 21.873 47.3916 24.2987 48.1794 26.1633C48.9162 27.9089 51.2399 28.5154 52.7871 27.4215C54.0793 26.5091 54.34 24.4971 54.3797 23.0518C54.4251 21.1816 54.0963 18.9146 52.7021 17.543C52.1013 16.9479 53.0252 16.0241 53.6259 16.6192V16.6135Z" fill="#181755"/>
<path d="M51.869 15.5763C56.4314 15.7917 61.0051 15.5423 65.5561 15.9504C66.3893 16.0241 66.3949 17.3333 65.5561 17.2596C61.0051 16.8459 56.4257 17.1009 51.869 16.8855C51.0302 16.8459 51.0245 15.5367 51.869 15.5763Z" fill="#181755"/>
<path d="M63.2665 32.0859C58.7211 30.9807 54.068 30.3913 49.5227 29.2861C48.7065 29.0878 49.0523 27.8239 49.8684 28.0223C54.4138 29.1218 59.0668 29.7169 63.6122 30.822C64.4283 31.0204 64.0826 32.2843 63.2665 32.0859Z" fill="#181755"/>
<path d="M57.0716 145.584C57.2927 145.465 57.5534 145.471 57.7971 145.477C68.8204 145.698 79.8382 145.913 90.8616 146.134C90.6292 146.134 89.8357 153.882 88.4812 154.703C87.5857 155.242 86.4805 155.253 85.432 155.242C81.051 155.202 76.6474 155.162 72.3174 154.494C67.772 153.791 61.7134 152.3 58.4148 148.832C57.8594 148.248 55.7114 146.315 57.0716 145.59V145.584Z" fill="#181755" stroke="#181755" stroke-width="1.15" stroke-miterlimit="10"/>
<path d="M119.732 83.8589C117.482 83.7966 115.232 83.7343 112.976 83.6719C112.138 83.6493 112.132 82.34 112.976 82.3627C115.226 82.4251 117.476 82.4874 119.732 82.5497C120.571 82.5724 120.577 83.8816 119.732 83.8589Z" fill="#181755"/>
<path d="M110.126 83.4962H108.511C108.34 83.4962 108.165 83.4225 108.046 83.3035C107.927 83.1845 107.847 83.0031 107.853 82.8388C107.87 82.4817 108.142 82.187 108.505 82.187H110.12C110.29 82.187 110.466 82.2607 110.585 82.3797C110.704 82.4987 110.783 82.6801 110.778 82.8444C110.761 83.2015 110.488 83.4962 110.126 83.4962Z" fill="#181755"/>
<path d="M59.0781 152.119C59.1177 152.023 59.1517 151.921 59.1914 151.824C59.2821 151.603 59.4124 151.348 59.6505 151.309C59.7808 151.286 59.9169 151.337 60.0359 151.388C62.5409 152.402 65.046 153.417 67.5511 154.437C67.7778 157.514 67.7041 160.819 66.0662 163.545C65.6524 164.185 65.1934 164.775 64.4169 164.871C63.4478 164.996 62.4559 165.024 61.5321 164.656C59.3388 163.783 58.6813 160.983 58.3753 158.852C58.0522 156.596 58.2733 154.256 59.0724 152.119H59.0781Z" fill="white"/>
<path d="M58.4944 151.96C58.7041 151.405 58.9648 150.753 59.6562 150.708C60.0643 150.679 60.4724 150.917 60.8294 151.065C61.2885 151.252 61.7476 151.439 62.2066 151.626C64.0429 152.368 65.8792 153.116 67.7155 153.859C67.9818 153.967 68.1406 154.148 68.1576 154.443C68.3106 156.585 68.3219 158.767 67.8062 160.864C67.4151 162.445 66.5763 164.973 64.7684 165.432C62.9604 165.891 60.8407 165.449 59.6222 163.993C58.5567 162.723 58.1147 161.04 57.8596 159.43C57.4516 156.914 57.6216 154.375 58.4944 151.966C58.7608 151.241 59.9283 151.552 59.6619 152.289C58.8344 154.567 58.6531 156.97 59.0668 159.356C59.3502 160.983 59.8319 163.018 61.3735 163.913C62.2123 164.401 63.9296 164.65 64.7967 164.112C65.6638 163.573 66.1342 162.213 66.4233 161.306C67.1317 159.096 67.1091 156.738 66.9504 154.443L67.3924 155.026C66.0152 154.465 64.638 153.91 63.2608 153.349C62.592 153.077 61.9233 152.805 61.2545 152.538C60.9201 152.402 60.5857 152.266 60.2513 152.13C59.8603 151.972 59.8149 151.881 59.6562 152.289C59.3842 153.009 58.211 152.697 58.4887 151.966L58.4944 151.96Z" fill="#181755"/>
<path d="M46.5243 150.22C48.0546 152.408 49.2447 154.8 50.3726 157.209C50.5143 157.503 50.4576 157.86 50.1572 158.036C49.8965 158.189 49.4658 158.115 49.3298 157.821C48.1963 155.412 47.0117 153.02 45.4815 150.833C45.2944 150.566 45.4305 150.158 45.6968 150.005C45.9972 149.829 46.3373 149.954 46.5243 150.22Z" fill="#181755"/>
<path d="M45.2435 157.129C46.8021 154.732 48.389 152.363 50.1573 150.107C50.3613 149.852 50.8034 149.897 51.0131 150.107C51.2682 150.362 51.2171 150.708 51.0131 150.963C49.3072 153.133 47.7939 155.423 46.2864 157.735C45.8613 158.387 44.8128 157.781 45.2435 157.123V157.129Z" fill="#181755"/>
<path d="M77.3899 162.661C78.4384 160.524 78.4554 158.183 77.8716 155.899C76.4151 155.882 74.9415 155.865 73.5019 155.582C72.9182 155.468 72.3797 155.344 71.796 155.293C71.3993 155.259 70.7192 154.862 70.6512 155.463C70.5832 156.081 70.4755 156.704 70.4188 157.322C70.3508 158.087 70.2941 158.858 70.3224 159.628C70.3734 161.13 70.7645 162.627 71.8413 163.726C72.7878 164.69 74.3181 165.16 75.5366 164.588C76.3867 164.191 76.9818 163.477 77.3899 162.655V162.661Z" fill="white"/>
<path d="M76.823 162.332C77.7639 160.36 77.7582 158.161 77.2368 156.075L77.8659 156.557C76.2846 156.54 74.7091 156.494 73.1505 156.183C72.7878 156.109 72.4194 156.03 72.051 155.979C71.7789 155.939 71.4729 155.939 71.2065 155.831C71.1668 155.814 71.0648 155.814 71.0535 155.78C71.0535 155.78 71.2745 155.633 71.2802 155.633C71.2859 155.633 71.2348 155.996 71.2348 155.973C71.1838 156.37 71.1215 156.761 71.0818 157.157C70.8324 159.538 70.7701 163.29 73.6889 164.089C75.1115 164.48 76.211 163.539 76.8174 162.332C77.1971 161.578 78.325 162.241 77.9452 162.989C77.2538 164.361 75.9786 165.5 74.369 165.494C72.7594 165.489 71.3255 164.474 70.5434 163.103C69.6479 161.544 69.5742 159.696 69.6989 157.945C69.7329 157.509 69.7726 157.078 69.8293 156.647C69.8916 156.171 69.903 155.644 70.0333 155.179C70.2487 154.409 71.0195 154.431 71.6429 154.59C72.0793 154.698 72.5384 154.726 72.9805 154.811C73.4962 154.913 74.0063 155.021 74.5334 155.083C75.6385 155.213 76.755 155.225 77.8602 155.236C78.1436 155.236 78.4213 155.434 78.4893 155.718C79.1014 158.166 79.0447 160.683 77.9452 162.984C77.5825 163.743 76.4547 163.08 76.8174 162.326L76.823 162.332Z" fill="#181755"/>
<path d="M61.6115 160.666C62.1556 158.903 62.7563 157.157 63.4138 155.435C63.5385 155.106 63.8558 154.879 64.2186 154.975C64.5359 155.06 64.8023 155.446 64.6776 155.78C64.0145 157.503 63.4138 159.249 62.8753 161.011C62.6316 161.816 61.3678 161.47 61.6115 160.666Z" fill="#181755"/>
<path d="M65.2498 159.929C63.5212 159.317 61.838 158.586 60.2114 157.741C59.8997 157.577 59.8033 157.14 59.979 156.846C60.1661 156.528 60.5571 156.449 60.8745 156.613C62.3991 157.407 63.9746 158.093 65.6012 158.671C65.9356 158.79 66.1566 159.118 66.0603 159.475C65.9696 159.799 65.5899 160.048 65.2555 159.935L65.2498 159.929Z" fill="#181755"/>
<path d="M75.2135 161.606C74.1933 160.388 73.1618 159.181 72.119 157.991C71.8923 157.735 71.847 157.316 72.119 157.067C72.3684 156.84 72.8048 156.795 73.0428 157.067C74.0913 158.263 75.1228 159.464 76.1373 160.683C76.3584 160.943 76.415 161.351 76.1373 161.606C75.8936 161.827 75.4459 161.884 75.2135 161.606Z" fill="#181755"/>
<path d="M72.2211 160.598C73.1052 159.566 73.995 158.529 74.8678 157.492C75.0889 157.231 75.5649 157.248 75.7916 157.492C76.0466 157.77 76.0296 158.138 75.7916 158.416C74.9131 159.458 74.029 160.49 73.1449 161.521C72.9238 161.782 72.4478 161.765 72.2211 161.521C71.966 161.244 71.983 160.875 72.2211 160.598Z" fill="#181755"/>
<path d="M1.41075 168.606C2.90132 168.589 4.39189 168.572 5.88246 168.555L17.9373 168.419C23.9166 168.351 29.8959 168.283 35.8808 168.215C43.1296 168.13 50.3727 168.05 57.6215 167.965C65.6128 167.875 73.6041 167.784 81.5953 167.693C89.6092 167.603 97.6175 167.512 105.631 167.421L128.194 167.166C134.508 167.093 140.821 167.025 147.135 166.951C151.709 166.9 156.277 166.849 160.85 166.798C162.998 166.775 165.152 166.707 167.306 166.724C167.402 166.724 167.493 166.724 167.589 166.724C168.434 166.713 168.434 168.022 167.589 168.033C166.098 168.05 164.608 168.067 163.117 168.084C159.099 168.13 155.081 168.175 151.062 168.22C145.083 168.289 139.104 168.357 133.119 168.425C125.87 168.51 118.627 168.589 111.378 168.674C103.387 168.765 95.3958 168.855 87.4045 168.946C79.3906 169.037 71.3824 169.127 63.3684 169.218C55.8476 169.303 48.3268 169.388 40.8059 169.473C34.4923 169.547 28.1786 169.615 21.865 169.688C17.2912 169.739 12.7232 169.79 8.14948 169.841C6.00148 169.864 3.84779 169.932 1.69412 169.915C1.59778 169.915 1.5071 169.915 1.41075 169.915C0.566284 169.926 0.566284 168.617 1.41075 168.606Z" fill="#181755"/>
<path d="M143.411 166.571C135.613 165.806 127.774 165.664 119.942 165.732C117.981 165.749 116.026 165.778 114.065 165.817C112.631 165.846 110.664 166.299 109.321 165.817C106.861 164.933 106.107 162.145 105.688 159.906C105.195 157.271 105.399 154.556 105.818 151.909C106.238 149.28 106.872 146.661 108.034 144.269C109.196 141.878 110.913 139.701 113.169 138.296C116.048 136.499 119.568 136.063 122.963 136.119C127.621 136.199 132.303 137.157 136.457 139.271C142.697 142.45 147.429 148.084 150.626 154.318C151.578 156.171 152.417 158.144 152.519 160.224C152.621 162.304 151.85 164.531 150.139 165.715C148.24 167.03 145.712 166.804 143.417 166.577L143.411 166.571Z" fill="#181755"/>
<path d="M92.7263 69.0723C92.5109 68.7152 92.3976 68.3072 92.3069 67.9048C92.1652 67.27 92.0859 66.6296 92.0632 65.9778C92.0292 65.0653 92.1369 64.0849 92.7207 63.3821C93.1457 62.872 93.8939 62.5659 94.489 62.855C95.9285 63.5464 96.0702 65.7851 96.0419 67.2077C96.0192 68.5396 95.5091 70.0245 93.9165 69.8998C93.4575 69.8601 93.055 69.5597 92.7943 69.18C92.7717 69.146 92.749 69.1063 92.7263 69.0723Z" fill="white"/>
<path d="M92.1652 69.4011C91.7117 68.6019 91.5644 67.6554 91.4681 66.7486C91.3774 65.9438 91.3604 65.1107 91.5587 64.3173C91.7571 63.5238 92.1708 62.838 92.8509 62.4243C93.531 62.0106 94.3698 61.9766 95.0386 62.413C96.1664 63.1441 96.5179 64.5213 96.6482 65.7795C96.7672 66.947 96.7842 68.2732 96.1948 69.3274C95.8491 69.9395 95.2653 70.4042 94.5625 70.5176C93.5537 70.6819 92.7092 70.2569 92.1595 69.4011C91.7061 68.6926 92.8339 68.0352 93.2873 68.7436C93.5424 69.1403 93.9108 69.3331 94.3812 69.2254C94.7269 69.146 94.9309 68.9193 95.0953 68.6019C95.458 67.8878 95.4127 66.9413 95.3617 66.1422C95.3107 65.3431 95.1746 64.3569 94.6135 63.7618C94.3642 63.4955 94.0581 63.3198 93.6784 63.4671C93.2023 63.6598 92.9473 64.1529 92.8226 64.6233C92.6582 65.2524 92.6922 65.9269 92.7489 66.5673C92.8169 67.2927 92.9246 68.1088 93.2873 68.7493C93.7011 69.4804 92.5732 70.1435 92.1595 69.4067L92.1652 69.4011Z" fill="#181755"/>
<path d="M86.2709 66.6069C88.1016 66.6352 89.9378 66.6636 91.7684 66.6919C92.6072 66.7032 92.6129 68.0125 91.7684 68.0011C89.9378 67.9728 88.1016 67.9445 86.2709 67.9161C85.4321 67.9048 85.4265 66.5955 86.2709 66.6069Z" fill="#181755"/>
<path d="M66.9389 44.2258C66.9616 45.5634 66.9842 46.8952 67.0466 48.2328C67.0749 48.8052 67.0976 49.3266 67.2563 49.8707C67.2959 50.0124 67.3413 50.0294 67.3356 50.0691C67.2903 50.3468 66.9899 49.644 66.8596 49.763C66.9616 49.6667 67.7494 49.797 67.9194 49.8027C70.6738 49.8877 73.4282 49.8367 76.1827 49.933L74.7091 51.4066C74.5731 49.525 74.5561 47.6377 74.6694 45.7504C74.7148 44.9569 75.3099 44.2768 76.143 44.2768C76.9025 44.2768 77.6619 44.9513 77.6166 45.7504C77.5032 47.6377 77.5146 49.525 77.6563 51.4066C77.7129 52.1831 76.9365 52.9028 76.1827 52.8802C74.5958 52.8235 73.0032 52.8122 71.4163 52.8008C69.8294 52.7895 68.2594 52.8348 66.7009 52.6988C64.7229 52.5231 64.2751 50.6018 64.1448 48.9299C64.0258 47.3657 64.0201 45.7957 63.9918 44.2315C63.9805 43.438 64.6776 42.7579 65.4653 42.7579C66.2531 42.7579 66.9219 43.4324 66.9389 44.2315V44.2258Z" fill="#181755"/>
<path d="M81.0966 44.4184C81.0116 46.1244 81.0116 47.8303 81.1023 49.5362C81.108 49.6836 81.1476 50.3637 81.176 50.358L80.4902 49.848C80.5979 49.848 80.6999 49.8423 80.8076 49.8366C80.9946 49.8309 81.1816 49.8196 81.363 49.8083C82.2471 49.7629 83.1313 49.7232 84.0154 49.6779C87.4556 49.5079 90.9015 49.3379 94.3417 49.1622L92.8681 50.6357C93.1232 48.5331 93.1175 46.4248 92.8398 44.3221C92.7378 43.5343 93.5879 42.8485 94.3134 42.8485C95.1918 42.8485 95.6792 43.5286 95.7869 44.3221C96.059 46.4248 96.0703 48.5331 95.8153 50.6357C95.7132 51.4575 95.2202 52.064 94.3417 52.1093C90.3404 52.3077 86.3448 52.506 82.3435 52.7044C81.4707 52.7497 80.4165 52.9651 79.5834 52.6081C78.6709 52.2113 78.3195 51.3328 78.2232 50.4034C78.0135 48.4311 78.0588 46.4021 78.1552 44.4241C78.2515 42.4461 81.193 42.5255 81.0966 44.4241V44.4184Z" fill="#181755"/>
</svg>
