<svg width="621" height="337" viewBox="0 0 621 337" fill="none" xmlns="http://www.w3.org/2000/svg">
<path d="M0 20C0 8.9543 8.9543 0 20 0H601C612.046 0 621 8.95431 621 20V337H0V20Z" fill="#D2EFFF"/>
<path d="M57.536 97.0051H54.5825V103.079H57.536V97.0051Z" fill="#005382"/>
<path d="M65.7108 97.0051H62.7573V103.079H65.7108V97.0051Z" fill="#005382"/>
<path d="M60.1468 84C49.045 84 40 93.1784 40 104.444V126.788C40 132.969 44.9576 138 51.0491 138C57.1406 138 62.0982 132.969 62.0982 126.788V124.808C72.2771 123.791 80.2673 115.067 80.2673 104.471C80.2936 93.1784 71.2487 84 60.1468 84ZM62.1246 120.767V114.8C66.924 113.863 70.5367 109.582 70.5367 104.444H49.757C49.757 109.582 53.3697 113.863 58.1691 114.8V126.788C58.1691 130.775 54.9783 134.013 51.0491 134.013C47.1199 134.013 43.9292 130.775 43.9292 126.788V104.444C43.9292 95.3726 51.2073 87.9871 60.1468 87.9871C69.0863 87.9871 76.3645 95.3726 76.3645 104.444C76.3381 112.846 70.1147 119.777 62.1246 120.767Z" fill="#005382"/>
<path d="M119.038 110.579C119.038 116.834 113.923 121.95 107.667 121.95C105.037 121.95 102.523 121.014 100.506 119.378V129.082C100.506 129.667 100.038 130.135 99.4243 130.135H97.3489C96.7643 130.135 96.2673 129.696 96.2673 129.082V100.202C96.2673 99.6466 96.735 99.1497 97.3489 99.1497H99.4243C100.009 99.1497 100.506 99.6174 100.506 100.202V101.722C102.494 100.085 105.037 99.1497 107.667 99.1497C113.923 99.2081 119.038 104.294 119.038 110.579ZM114.8 110.579C114.8 106.604 111.614 103.388 107.638 103.388C103.663 103.388 100.477 106.604 100.477 110.579C100.477 114.554 103.663 117.741 107.638 117.741C111.614 117.741 114.8 114.554 114.8 110.579Z" fill="#005382"/>
<path d="M143.651 100.465V121.102C143.651 121.658 143.183 122.155 142.569 122.155H140.494C139.909 122.155 139.412 121.687 139.412 121.102V119.611C137.425 121.248 134.882 122.125 132.251 122.125C125.995 122.125 120.88 117.039 120.88 110.754C120.88 104.499 125.995 99.4128 132.251 99.4128C134.882 99.4128 137.395 100.29 139.412 101.927V100.436C139.412 99.8512 139.88 99.3835 140.494 99.3835H142.569C143.183 99.4128 143.651 99.8805 143.651 100.465ZM139.412 110.754C139.412 106.837 136.226 103.593 132.251 103.593C128.275 103.593 125.089 106.808 125.089 110.754C125.089 114.73 128.275 117.945 132.251 117.945C136.226 117.945 139.412 114.73 139.412 110.754Z" fill="#005382"/>
<path d="M153.619 121.102C153.619 121.657 153.151 122.154 152.566 122.154H151.485C149.03 122.184 146.954 120.313 146.954 117.77V93.7711V92.7188C146.954 92.1341 147.422 91.6372 148.006 91.6372H150.111C150.696 91.6372 151.163 92.1049 151.163 92.7188V93.7711V117.77C151.163 117.916 151.339 117.945 151.456 117.945H152.508C153.093 117.945 153.59 118.384 153.59 118.997L153.619 121.102Z" fill="#005382"/>
<path d="M179.722 110.579C179.722 116.834 174.606 121.95 168.351 121.95C165.72 121.95 163.206 121.014 161.189 119.378V129.082C161.189 129.667 160.722 130.135 160.108 130.135H158.032C157.448 130.135 156.951 129.696 156.951 129.082V100.202C156.951 99.6466 157.419 99.1497 158.032 99.1497H160.108C160.692 99.1497 161.189 99.6174 161.189 100.202V101.722C163.177 100.085 165.72 99.1497 168.351 99.1497C174.606 99.2081 179.722 104.294 179.722 110.579ZM175.483 110.579C175.483 106.604 172.297 103.388 168.322 103.388C164.346 103.388 161.16 106.604 161.16 110.579C161.16 114.554 164.346 117.741 168.322 117.741C172.297 117.741 175.483 114.554 175.483 110.579Z" fill="#005382"/>
<path d="M189.31 121.102C189.31 121.657 188.842 122.154 188.258 122.154H187.176C184.721 122.184 182.645 120.313 182.645 117.77V93.7711V92.7188C182.645 92.1341 183.113 91.6372 183.698 91.6372H185.802C186.387 91.6372 186.855 92.1049 186.855 92.7188V93.7711V117.77C186.855 117.916 187.03 117.945 187.147 117.945H188.199C188.784 117.945 189.281 118.384 189.281 118.997L189.31 121.102Z" fill="#005382"/>
<path d="M211.291 100.319V121.131C211.291 121.687 210.824 122.184 210.239 122.184H208.135C207.55 122.184 207.082 121.716 207.082 121.131V120.05C206.381 120.576 205.591 120.985 204.831 121.307C202.318 122.388 199.628 122.505 197.085 121.453C195.302 120.722 193.782 119.494 192.788 117.828C191.736 116.133 191.531 114.467 191.531 112.479C191.531 108.65 191.531 105.171 191.531 101.371V100.319C191.531 99.7342 191.999 99.2373 192.584 99.2373H194.688C195.273 99.2373 195.741 99.705 195.741 100.319V101.371C195.741 105.2 195.741 108.679 195.741 112.479C195.741 113.59 195.77 114.671 196.384 115.636C196.939 116.513 197.728 117.156 198.693 117.565C200.213 118.15 201.733 118.033 203.224 117.448C204.919 116.747 206.176 115.402 206.819 113.707L207.141 112.888V100.319C207.141 99.7342 207.579 99.2373 208.193 99.2373H210.298C210.824 99.2373 211.291 99.7342 211.291 100.319Z" fill="#005382"/>
<path d="M236.138 121.307C235.7 124.493 234.063 127.153 231.256 128.819C228.07 130.719 224.036 130.807 220.616 129.404C218.132 128.41 216.086 126.627 214.799 124.259C214.624 123.938 214.653 123.558 214.829 123.207C215.004 122.914 215.355 122.681 215.706 122.681H218.19C218.57 122.681 218.862 122.827 219.038 123.119C219.856 124.201 220.938 125.019 222.195 125.516C224.387 126.393 227.047 126.364 229.123 125.136C230.73 124.201 231.607 122.739 231.929 120.898C232.016 120.459 232.046 120.021 232.046 119.524C230.058 121.161 227.515 122.096 224.855 122.096C218.599 122.096 213.513 117.01 213.513 110.725C213.513 104.47 218.599 99.3835 224.855 99.3835C227.515 99.3835 230.058 100.26 232.046 101.897V100.407C232.046 99.8219 232.484 99.3542 233.098 99.3542H235.203C235.758 99.3542 236.255 99.7927 236.255 100.407V118.179C236.255 119.261 236.284 120.225 236.138 121.307ZM232.075 110.754C232.075 106.837 228.859 103.593 224.884 103.593C220.909 103.593 217.722 106.808 217.722 110.754C217.722 114.73 220.909 117.945 224.884 117.945C228.859 117.945 232.075 114.73 232.075 110.754Z" fill="#005382"/>
<path d="M51.655 166.752C51.319 166.136 50.857 165.667 50.269 165.345C49.681 165.023 48.995 164.862 48.211 164.862C47.343 164.862 46.573 165.058 45.901 165.45C45.229 165.842 44.704 166.402 44.326 167.13C43.948 167.858 43.759 168.698 43.759 169.65C43.759 170.63 43.948 171.484 44.326 172.212C44.718 172.94 45.257 173.5 45.943 173.892C46.629 174.284 47.427 174.48 48.337 174.48C49.457 174.48 50.374 174.186 51.088 173.598C51.802 172.996 52.271 172.163 52.495 171.099H47.455V168.852H55.393V171.414C55.197 172.436 54.777 173.381 54.133 174.249C53.489 175.117 52.656 175.817 51.634 176.349C50.626 176.867 49.492 177.126 48.232 177.126C46.818 177.126 45.537 176.811 44.389 176.181C43.255 175.537 42.359 174.648 41.701 173.514C41.057 172.38 40.735 171.092 40.735 169.65C40.735 168.208 41.057 166.92 41.701 165.786C42.359 164.638 43.255 163.749 44.389 163.119C45.537 162.475 46.811 162.153 48.211 162.153C49.863 162.153 51.298 162.559 52.516 163.371C53.734 164.169 54.574 165.296 55.036 166.752H51.655ZM67.9631 170.931C67.9631 171.351 67.9351 171.729 67.8791 172.065H59.3741C59.4441 172.905 59.7381 173.563 60.2561 174.039C60.7741 174.515 61.4111 174.753 62.1671 174.753C63.2591 174.753 64.0361 174.284 64.4981 173.346H67.6691C67.3331 174.466 66.6891 175.39 65.7371 176.118C64.7851 176.832 63.6161 177.189 62.2301 177.189C61.1101 177.189 60.1021 176.944 59.2061 176.454C58.3241 175.95 57.6311 175.243 57.1271 174.333C56.6371 173.423 56.3921 172.373 56.3921 171.183C56.3921 169.979 56.6371 168.922 57.1271 168.012C57.6171 167.102 58.3031 166.402 59.1851 165.912C60.0671 165.422 61.0821 165.177 62.2301 165.177C63.3361 165.177 64.3231 165.415 65.1911 165.891C66.0731 166.367 66.7521 167.046 67.2281 167.928C67.7181 168.796 67.9631 169.797 67.9631 170.931ZM64.9181 170.091C64.9041 169.335 64.6311 168.733 64.0991 168.285C63.5671 167.823 62.9161 167.592 62.1461 167.592C61.4181 167.592 60.8021 167.816 60.2981 168.264C59.8081 168.698 59.5071 169.307 59.3951 170.091H64.9181ZM73.1121 167.781V173.409C73.1121 173.801 73.2031 174.088 73.3851 174.27C73.5811 174.438 73.9031 174.522 74.3511 174.522H75.7161V177H73.8681C71.3901 177 70.1511 175.796 70.1511 173.388V167.781H68.7651V165.366H70.1511V162.489H73.1121V165.366H75.7161V167.781H73.1121ZM81.2386 171.141C81.2386 169.965 81.4696 168.922 81.9316 168.012C82.4076 167.102 83.0446 166.402 83.8426 165.912C84.6546 165.422 85.5576 165.177 86.5516 165.177C87.4196 165.177 88.1756 165.352 88.8196 165.702C89.4776 166.052 90.0026 166.493 90.3946 167.025V165.366H93.3556V177H90.3946V175.299C90.0166 175.845 89.4916 176.3 88.8196 176.664C88.1616 177.014 87.3986 177.189 86.5306 177.189C85.5506 177.189 84.6546 176.937 83.8426 176.433C83.0446 175.929 82.4076 175.222 81.9316 174.312C81.4696 173.388 81.2386 172.331 81.2386 171.141ZM90.3946 171.183C90.3946 170.469 90.2546 169.86 89.9746 169.356C89.6946 168.838 89.3166 168.446 88.8406 168.18C88.3646 167.9 87.8536 167.76 87.3076 167.76C86.7616 167.76 86.2576 167.893 85.7956 168.159C85.3336 168.425 84.9556 168.817 84.6616 169.335C84.3816 169.839 84.2416 170.441 84.2416 171.141C84.2416 171.841 84.3816 172.457 84.6616 172.989C84.9556 173.507 85.3336 173.906 85.7956 174.186C86.2716 174.466 86.7756 174.606 87.3076 174.606C87.8536 174.606 88.3646 174.473 88.8406 174.207C89.3166 173.927 89.6946 173.535 89.9746 173.031C90.2546 172.513 90.3946 171.897 90.3946 171.183ZM103.331 167.172C103.709 166.556 104.199 166.073 104.801 165.723C105.417 165.373 106.117 165.198 106.901 165.198V168.285H106.124C105.2 168.285 104.5 168.502 104.024 168.936C103.562 169.37 103.331 170.126 103.331 171.204V177H100.391V165.366H103.331V167.172ZM119.276 170.931C119.276 171.351 119.248 171.729 119.192 172.065H110.687C110.757 172.905 111.051 173.563 111.569 174.039C112.087 174.515 112.724 174.753 113.48 174.753C114.572 174.753 115.349 174.284 115.811 173.346H118.982C118.646 174.466 118.002 175.39 117.05 176.118C116.098 176.832 114.929 177.189 113.543 177.189C112.423 177.189 111.415 176.944 110.519 176.454C109.637 175.95 108.944 175.243 108.44 174.333C107.95 173.423 107.705 172.373 107.705 171.183C107.705 169.979 107.95 168.922 108.44 168.012C108.93 167.102 109.616 166.402 110.498 165.912C111.38 165.422 112.395 165.177 113.543 165.177C114.649 165.177 115.636 165.415 116.504 165.891C117.386 166.367 118.065 167.046 118.541 167.928C119.031 168.796 119.276 169.797 119.276 170.931ZM116.231 170.091C116.217 169.335 115.944 168.733 115.412 168.285C114.88 167.823 114.229 167.592 113.459 167.592C112.731 167.592 112.115 167.816 111.611 168.264C111.121 168.698 110.82 169.307 110.708 170.091H116.231ZM126.336 167.781H124.299V177H121.317V167.781H119.994V165.366H121.317V164.778C121.317 163.35 121.723 162.3 122.535 161.628C123.347 160.956 124.572 160.641 126.21 160.683V163.161C125.496 163.147 124.999 163.266 124.719 163.518C124.439 163.77 124.299 164.225 124.299 164.883V165.366H126.336V167.781ZM138.636 170.931C138.636 171.351 138.608 171.729 138.552 172.065H130.047C130.117 172.905 130.411 173.563 130.929 174.039C131.447 174.515 132.084 174.753 132.84 174.753C133.932 174.753 134.709 174.284 135.171 173.346H138.342C138.006 174.466 137.362 175.39 136.41 176.118C135.458 176.832 134.289 177.189 132.903 177.189C131.783 177.189 130.775 176.944 129.879 176.454C128.997 175.95 128.304 175.243 127.8 174.333C127.31 173.423 127.065 172.373 127.065 171.183C127.065 169.979 127.31 168.922 127.8 168.012C128.29 167.102 128.976 166.402 129.858 165.912C130.74 165.422 131.755 165.177 132.903 165.177C134.009 165.177 134.996 165.415 135.864 165.891C136.746 166.367 137.425 167.046 137.901 167.928C138.391 168.796 138.636 169.797 138.636 170.931ZM135.591 170.091C135.577 169.335 135.304 168.733 134.772 168.285C134.24 167.823 133.589 167.592 132.819 167.592C132.091 167.592 131.475 167.816 130.971 168.264C130.481 168.698 130.18 169.307 130.068 170.091H135.591ZM143.302 167.172C143.68 166.556 144.17 166.073 144.772 165.723C145.388 165.373 146.088 165.198 146.872 165.198V168.285H146.095C145.171 168.285 144.471 168.502 143.995 168.936C143.533 169.37 143.302 170.126 143.302 171.204V177H140.362V165.366H143.302V167.172ZM151.373 167.172C151.751 166.556 152.241 166.073 152.843 165.723C153.459 165.373 154.159 165.198 154.943 165.198V168.285H154.166C153.242 168.285 152.542 168.502 152.066 168.936C151.604 169.37 151.373 170.126 151.373 171.204V177H148.433V165.366H151.373V167.172ZM155.747 171.141C155.747 169.965 155.978 168.922 156.44 168.012C156.916 167.102 157.553 166.402 158.351 165.912C159.163 165.422 160.066 165.177 161.06 165.177C161.928 165.177 162.684 165.352 163.328 165.702C163.986 166.052 164.511 166.493 164.903 167.025V165.366H167.864V177H164.903V175.299C164.525 175.845 164 176.3 163.328 176.664C162.67 177.014 161.907 177.189 161.039 177.189C160.059 177.189 159.163 176.937 158.351 176.433C157.553 175.929 156.916 175.222 156.44 174.312C155.978 173.388 155.747 172.331 155.747 171.141ZM164.903 171.183C164.903 170.469 164.763 169.86 164.483 169.356C164.203 168.838 163.825 168.446 163.349 168.18C162.873 167.9 162.362 167.76 161.816 167.76C161.27 167.76 160.766 167.893 160.304 168.159C159.842 168.425 159.464 168.817 159.17 169.335C158.89 169.839 158.75 170.441 158.75 171.141C158.75 171.841 158.89 172.457 159.17 172.989C159.464 173.507 159.842 173.906 160.304 174.186C160.78 174.466 161.284 174.606 161.816 174.606C162.362 174.606 162.873 174.473 163.349 174.207C163.825 173.927 164.203 173.535 164.483 173.031C164.763 172.513 164.903 171.897 164.903 171.183ZM173.255 161.46V177H170.315V161.46H173.255ZM183.747 167.781V173.409C183.747 173.801 183.838 174.088 184.02 174.27C184.216 174.438 184.538 174.522 184.986 174.522H186.351V177H184.503C182.025 177 180.786 175.796 180.786 173.388V167.781H179.4V165.366H180.786V162.489H183.747V165.366H186.351V167.781H183.747ZM193.211 177.189C192.091 177.189 191.083 176.944 190.187 176.454C189.291 175.95 188.584 175.243 188.066 174.333C187.562 173.423 187.31 172.373 187.31 171.183C187.31 169.993 187.569 168.943 188.087 168.033C188.619 167.123 189.34 166.423 190.25 165.933C191.16 165.429 192.175 165.177 193.295 165.177C194.415 165.177 195.43 165.429 196.34 165.933C197.25 166.423 197.964 167.123 198.482 168.033C199.014 168.943 199.28 169.993 199.28 171.183C199.28 172.373 199.007 173.423 198.461 174.333C197.929 175.243 197.201 175.95 196.277 176.454C195.367 176.944 194.345 177.189 193.211 177.189ZM193.211 174.627C193.743 174.627 194.24 174.501 194.702 174.249C195.178 173.983 195.556 173.591 195.836 173.073C196.116 172.555 196.256 171.925 196.256 171.183C196.256 170.077 195.962 169.23 195.374 168.642C194.8 168.04 194.093 167.739 193.253 167.739C192.413 167.739 191.706 168.04 191.132 168.642C190.572 169.23 190.292 170.077 190.292 171.183C190.292 172.289 190.565 173.143 191.111 173.745C191.671 174.333 192.371 174.627 193.211 174.627ZM216.731 165.366L209.528 182.502H206.399L208.919 176.706L204.257 165.366H207.554L210.557 173.493L213.602 165.366H216.731ZM223.062 177.189C221.942 177.189 220.934 176.944 220.038 176.454C219.142 175.95 218.435 175.243 217.917 174.333C217.413 173.423 217.161 172.373 217.161 171.183C217.161 169.993 217.42 168.943 217.938 168.033C218.47 167.123 219.191 166.423 220.101 165.933C221.011 165.429 222.026 165.177 223.146 165.177C224.266 165.177 225.281 165.429 226.191 165.933C227.101 166.423 227.815 167.123 228.333 168.033C228.865 168.943 229.131 169.993 229.131 171.183C229.131 172.373 228.858 173.423 228.312 174.333C227.78 175.243 227.052 175.95 226.128 176.454C225.218 176.944 224.196 177.189 223.062 177.189ZM223.062 174.627C223.594 174.627 224.091 174.501 224.553 174.249C225.029 173.983 225.407 173.591 225.687 173.073C225.967 172.555 226.107 171.925 226.107 171.183C226.107 170.077 225.813 169.23 225.225 168.642C224.651 168.04 223.944 167.739 223.104 167.739C222.264 167.739 221.557 168.04 220.983 168.642C220.423 169.23 220.143 170.077 220.143 171.183C220.143 172.289 220.416 173.143 220.962 173.745C221.522 174.333 222.222 174.627 223.062 174.627ZM241.85 165.366V177H238.889V175.53C238.511 176.034 238.014 176.433 237.398 176.727C236.796 177.007 236.138 177.147 235.424 177.147C234.514 177.147 233.709 176.958 233.009 176.58C232.309 176.188 231.756 175.621 231.35 174.879C230.958 174.123 230.762 173.227 230.762 172.191V165.366H233.702V171.771C233.702 172.695 233.933 173.409 234.395 173.913C234.857 174.403 235.487 174.648 236.285 174.648C237.097 174.648 237.734 174.403 238.196 173.913C238.658 173.409 238.889 172.695 238.889 171.771V165.366H241.85ZM247.271 167.172C247.649 166.556 248.139 166.073 248.741 165.723C249.357 165.373 250.057 165.198 250.841 165.198V168.285H250.064C249.14 168.285 248.44 168.502 247.964 168.936C247.502 169.37 247.271 170.126 247.271 171.204V177H244.331V165.366H247.271V167.172ZM40.693 196.141C40.693 194.965 40.924 193.922 41.386 193.012C41.862 192.102 42.506 191.402 43.318 190.912C44.13 190.422 45.033 190.177 46.027 190.177C46.783 190.177 47.504 190.345 48.19 190.681C48.876 191.003 49.422 191.437 49.828 191.983V186.46H52.81V202H49.828V200.278C49.464 200.852 48.953 201.314 48.295 201.664C47.637 202.014 46.874 202.189 46.006 202.189C45.026 202.189 44.13 201.937 43.318 201.433C42.506 200.929 41.862 200.222 41.386 199.312C40.924 198.388 40.693 197.331 40.693 196.141ZM49.849 196.183C49.849 195.469 49.709 194.86 49.429 194.356C49.149 193.838 48.771 193.446 48.295 193.18C47.819 192.9 47.308 192.76 46.762 192.76C46.216 192.76 45.712 192.893 45.25 193.159C44.788 193.425 44.41 193.817 44.116 194.335C43.836 194.839 43.696 195.441 43.696 196.141C43.696 196.841 43.836 197.457 44.116 197.989C44.41 198.507 44.788 198.906 45.25 199.186C45.726 199.466 46.23 199.606 46.762 199.606C47.308 199.606 47.819 199.473 48.295 199.207C48.771 198.927 49.149 198.535 49.429 198.031C49.709 197.513 49.849 196.897 49.849 196.183ZM58.2014 192.172C58.5794 191.556 59.0694 191.073 59.6714 190.723C60.2874 190.373 60.9874 190.198 61.7714 190.198V193.285H60.9944C60.0704 193.285 59.3704 193.502 58.8944 193.936C58.4324 194.37 58.2014 195.126 58.2014 196.204V202H55.2614V190.366H58.2014V192.172ZM74.1467 195.931C74.1467 196.351 74.1187 196.729 74.0627 197.065H65.5577C65.6277 197.905 65.9217 198.563 66.4397 199.039C66.9577 199.515 67.5947 199.753 68.3507 199.753C69.4427 199.753 70.2197 199.284 70.6817 198.346H73.8527C73.5167 199.466 72.8727 200.39 71.9207 201.118C70.9687 201.832 69.7997 202.189 68.4137 202.189C67.2937 202.189 66.2857 201.944 65.3897 201.454C64.5077 200.95 63.8147 200.243 63.3107 199.333C62.8207 198.423 62.5757 197.373 62.5757 196.183C62.5757 194.979 62.8207 193.922 63.3107 193.012C63.8007 192.102 64.4867 191.402 65.3687 190.912C66.2507 190.422 67.2657 190.177 68.4137 190.177C69.5197 190.177 70.5067 190.415 71.3747 190.891C72.2567 191.367 72.9357 192.046 73.4117 192.928C73.9017 193.796 74.1467 194.797 74.1467 195.931ZM71.1017 195.091C71.0877 194.335 70.8147 193.733 70.2827 193.285C69.7507 192.823 69.0997 192.592 68.3297 192.592C67.6017 192.592 66.9857 192.816 66.4817 193.264C65.9917 193.698 65.6907 194.307 65.5787 195.091H71.1017ZM75.1166 196.141C75.1166 194.965 75.3476 193.922 75.8096 193.012C76.2856 192.102 76.9226 191.402 77.7206 190.912C78.5326 190.422 79.4356 190.177 80.4296 190.177C81.2976 190.177 82.0536 190.352 82.6976 190.702C83.3556 191.052 83.8806 191.493 84.2726 192.025V190.366H87.2336V202H84.2726V200.299C83.8946 200.845 83.3696 201.3 82.6976 201.664C82.0396 202.014 81.2766 202.189 80.4086 202.189C79.4286 202.189 78.5326 201.937 77.7206 201.433C76.9226 200.929 76.2856 200.222 75.8096 199.312C75.3476 198.388 75.1166 197.331 75.1166 196.141ZM84.2726 196.183C84.2726 195.469 84.1326 194.86 83.8526 194.356C83.5726 193.838 83.1946 193.446 82.7186 193.18C82.2426 192.9 81.7316 192.76 81.1856 192.76C80.6396 192.76 80.1356 192.893 79.6736 193.159C79.2116 193.425 78.8336 193.817 78.5396 194.335C78.2596 194.839 78.1196 195.441 78.1196 196.141C78.1196 196.841 78.2596 197.457 78.5396 197.989C78.8336 198.507 79.2116 198.906 79.6736 199.186C80.1496 199.466 80.6536 199.606 81.1856 199.606C81.7316 199.606 82.2426 199.473 82.7186 199.207C83.1946 198.927 83.5726 198.535 83.8526 198.031C84.1326 197.513 84.2726 196.897 84.2726 196.183ZM104.133 190.198C105.561 190.198 106.709 190.639 107.577 191.521C108.459 192.389 108.9 193.607 108.9 195.175V202H105.96V195.574C105.96 194.664 105.729 193.971 105.267 193.495C104.805 193.005 104.175 192.76 103.377 192.76C102.579 192.76 101.942 193.005 101.466 193.495C101.004 193.971 100.773 194.664 100.773 195.574V202H97.833V195.574C97.833 194.664 97.602 193.971 97.14 193.495C96.678 193.005 96.048 192.76 95.25 192.76C94.438 192.76 93.794 193.005 93.318 193.495C92.856 193.971 92.625 194.664 92.625 195.574V202H89.685V190.366H92.625V191.773C93.003 191.283 93.486 190.898 94.074 190.618C94.676 190.338 95.334 190.198 96.048 190.198C96.958 190.198 97.77 190.394 98.484 190.786C99.198 191.164 99.751 191.71 100.143 192.424C100.521 191.752 101.067 191.213 101.781 190.807C102.509 190.401 103.293 190.198 104.133 190.198ZM115.098 196.183C115.098 194.979 115.343 193.929 115.833 193.033C116.323 192.123 117.002 191.423 117.87 190.933C118.738 190.429 119.732 190.177 120.852 190.177C122.294 190.177 123.484 190.541 124.422 191.269C125.374 191.983 126.011 192.991 126.333 194.293H123.162C122.994 193.789 122.707 193.397 122.301 193.117C121.909 192.823 121.419 192.676 120.831 192.676C119.991 192.676 119.326 192.984 118.836 193.6C118.346 194.202 118.101 195.063 118.101 196.183C118.101 197.289 118.346 198.15 118.836 198.766C119.326 199.368 119.991 199.669 120.831 199.669C122.021 199.669 122.798 199.137 123.162 198.073H126.333C126.011 199.333 125.374 200.334 124.422 201.076C123.47 201.818 122.28 202.189 120.852 202.189C119.732 202.189 118.738 201.944 117.87 201.454C117.002 200.95 116.323 200.25 115.833 199.354C115.343 198.444 115.098 197.387 115.098 196.183ZM133.233 202.189C132.113 202.189 131.105 201.944 130.209 201.454C129.313 200.95 128.606 200.243 128.088 199.333C127.584 198.423 127.332 197.373 127.332 196.183C127.332 194.993 127.591 193.943 128.109 193.033C128.641 192.123 129.362 191.423 130.272 190.933C131.182 190.429 132.197 190.177 133.317 190.177C134.437 190.177 135.452 190.429 136.362 190.933C137.272 191.423 137.986 192.123 138.504 193.033C139.036 193.943 139.302 194.993 139.302 196.183C139.302 197.373 139.029 198.423 138.483 199.333C137.951 200.243 137.223 200.95 136.299 201.454C135.389 201.944 134.367 202.189 133.233 202.189ZM133.233 199.627C133.765 199.627 134.262 199.501 134.724 199.249C135.2 198.983 135.578 198.591 135.858 198.073C136.138 197.555 136.278 196.925 136.278 196.183C136.278 195.077 135.984 194.23 135.396 193.642C134.822 193.04 134.115 192.739 133.275 192.739C132.435 192.739 131.728 193.04 131.154 193.642C130.594 194.23 130.314 195.077 130.314 196.183C130.314 197.289 130.587 198.143 131.133 198.745C131.693 199.333 132.393 199.627 133.233 199.627ZM155.486 190.198C156.914 190.198 158.062 190.639 158.93 191.521C159.812 192.389 160.253 193.607 160.253 195.175V202H157.313V195.574C157.313 194.664 157.082 193.971 156.62 193.495C156.158 193.005 155.528 192.76 154.73 192.76C153.932 192.76 153.295 193.005 152.819 193.495C152.357 193.971 152.126 194.664 152.126 195.574V202H149.186V195.574C149.186 194.664 148.955 193.971 148.493 193.495C148.031 193.005 147.401 192.76 146.603 192.76C145.791 192.76 145.147 193.005 144.671 193.495C144.209 193.971 143.978 194.664 143.978 195.574V202H141.038V190.366H143.978V191.773C144.356 191.283 144.839 190.898 145.427 190.618C146.029 190.338 146.687 190.198 147.401 190.198C148.311 190.198 149.123 190.394 149.837 190.786C150.551 191.164 151.104 191.71 151.496 192.424C151.874 191.752 152.42 191.213 153.134 190.807C153.862 190.401 154.646 190.198 155.486 190.198ZM165.563 192.046C165.941 191.514 166.459 191.073 167.117 190.723C167.789 190.359 168.552 190.177 169.406 190.177C170.4 190.177 171.296 190.422 172.094 190.912C172.906 191.402 173.543 192.102 174.005 193.012C174.481 193.908 174.719 194.951 174.719 196.141C174.719 197.331 174.481 198.388 174.005 199.312C173.543 200.222 172.906 200.929 172.094 201.433C171.296 201.937 170.4 202.189 169.406 202.189C168.552 202.189 167.796 202.014 167.138 201.664C166.494 201.314 165.969 200.873 165.563 200.341V207.544H162.623V190.366H165.563V192.046ZM171.716 196.141C171.716 195.441 171.569 194.839 171.275 194.335C170.995 193.817 170.617 193.425 170.141 193.159C169.679 192.893 169.175 192.76 168.629 192.76C168.097 192.76 167.593 192.9 167.117 193.18C166.655 193.446 166.277 193.838 165.983 194.356C165.703 194.874 165.563 195.483 165.563 196.183C165.563 196.883 165.703 197.492 165.983 198.01C166.277 198.528 166.655 198.927 167.117 199.207C167.593 199.473 168.097 199.606 168.629 199.606C169.175 199.606 169.679 199.466 170.141 199.186C170.617 198.906 170.995 198.507 171.275 197.989C171.569 197.471 171.716 196.855 171.716 196.141ZM175.68 196.141C175.68 194.965 175.911 193.922 176.373 193.012C176.849 192.102 177.486 191.402 178.284 190.912C179.096 190.422 179.999 190.177 180.993 190.177C181.861 190.177 182.617 190.352 183.261 190.702C183.919 191.052 184.444 191.493 184.836 192.025V190.366H187.797V202H184.836V200.299C184.458 200.845 183.933 201.3 183.261 201.664C182.603 202.014 181.84 202.189 180.972 202.189C179.992 202.189 179.096 201.937 178.284 201.433C177.486 200.929 176.849 200.222 176.373 199.312C175.911 198.388 175.68 197.331 175.68 196.141ZM184.836 196.183C184.836 195.469 184.696 194.86 184.416 194.356C184.136 193.838 183.758 193.446 183.282 193.18C182.806 192.9 182.295 192.76 181.749 192.76C181.203 192.76 180.699 192.893 180.237 193.159C179.775 193.425 179.397 193.817 179.103 194.335C178.823 194.839 178.683 195.441 178.683 196.141C178.683 196.841 178.823 197.457 179.103 197.989C179.397 198.507 179.775 198.906 180.237 199.186C180.713 199.466 181.217 199.606 181.749 199.606C182.295 199.606 182.806 199.473 183.282 199.207C183.758 198.927 184.136 198.535 184.416 198.031C184.696 197.513 184.836 196.897 184.836 196.183ZM196.695 190.198C198.081 190.198 199.201 190.639 200.055 191.521C200.909 192.389 201.336 193.607 201.336 195.175V202H198.396V195.574C198.396 194.65 198.165 193.943 197.703 193.453C197.241 192.949 196.611 192.697 195.813 192.697C195.001 192.697 194.357 192.949 193.881 193.453C193.419 193.943 193.188 194.65 193.188 195.574V202H190.248V190.366H193.188V191.815C193.58 191.311 194.077 190.919 194.679 190.639C195.295 190.345 195.967 190.198 196.695 190.198ZM214.842 190.366L207.639 207.502H204.51L207.03 201.706L202.368 190.366H205.665L208.668 198.493L211.713 190.366H214.842ZM225.756 202.189C224.636 202.189 223.628 201.944 222.732 201.454C221.836 200.95 221.129 200.243 220.611 199.333C220.107 198.423 219.855 197.373 219.855 196.183C219.855 194.993 220.114 193.943 220.632 193.033C221.164 192.123 221.885 191.423 222.795 190.933C223.705 190.429 224.72 190.177 225.84 190.177C226.96 190.177 227.975 190.429 228.885 190.933C229.795 191.423 230.509 192.123 231.027 193.033C231.559 193.943 231.825 194.993 231.825 196.183C231.825 197.373 231.552 198.423 231.006 199.333C230.474 200.243 229.746 200.95 228.822 201.454C227.912 201.944 226.89 202.189 225.756 202.189ZM225.756 199.627C226.288 199.627 226.785 199.501 227.247 199.249C227.723 198.983 228.101 198.591 228.381 198.073C228.661 197.555 228.801 196.925 228.801 196.183C228.801 195.077 228.507 194.23 227.919 193.642C227.345 193.04 226.638 192.739 225.798 192.739C224.958 192.739 224.251 193.04 223.677 193.642C223.117 194.23 222.837 195.077 222.837 196.183C222.837 197.289 223.11 198.143 223.656 198.745C224.216 199.333 224.916 199.627 225.756 199.627ZM236.502 192.172C236.88 191.556 237.37 191.073 237.972 190.723C238.588 190.373 239.288 190.198 240.072 190.198V193.285H239.295C238.371 193.285 237.671 193.502 237.195 193.936C236.733 194.37 236.502 195.126 236.502 196.204V202H233.562V190.366H236.502V192.172ZM247.707 188.98C247.189 188.98 246.755 188.819 246.405 188.497C246.069 188.161 245.901 187.748 245.901 187.258C245.901 186.768 246.069 186.362 246.405 186.04C246.755 185.704 247.189 185.536 247.707 185.536C248.225 185.536 248.652 185.704 248.988 186.04C249.338 186.362 249.513 186.768 249.513 187.258C249.513 187.748 249.338 188.161 248.988 188.497C248.652 188.819 248.225 188.98 247.707 188.98ZM249.156 190.366V202H246.216V190.366H249.156ZM256.975 192.781H254.938V202H251.956V192.781H250.633V190.366H251.956V189.778C251.956 188.35 252.362 187.3 253.174 186.628C253.986 185.956 255.211 185.641 256.849 185.683V188.161C256.135 188.147 255.638 188.266 255.358 188.518C255.078 188.77 254.938 189.225 254.938 189.883V190.366H256.975V192.781ZM52.579 215.366L45.376 232.502H42.247L44.767 226.706L40.105 215.366H43.402L46.405 223.493L49.45 215.366H52.579ZM58.9098 227.189C57.7898 227.189 56.7818 226.944 55.8858 226.454C54.9898 225.95 54.2828 225.243 53.7648 224.333C53.2608 223.423 53.0088 222.373 53.0088 221.183C53.0088 219.993 53.2678 218.943 53.7858 218.033C54.3178 217.123 55.0388 216.423 55.9488 215.933C56.8588 215.429 57.8738 215.177 58.9938 215.177C60.1138 215.177 61.1288 215.429 62.0388 215.933C62.9488 216.423 63.6628 217.123 64.1808 218.033C64.7128 218.943 64.9788 219.993 64.9788 221.183C64.9788 222.373 64.7058 223.423 64.1598 224.333C63.6278 225.243 62.8998 225.95 61.9758 226.454C61.0658 226.944 60.0438 227.189 58.9098 227.189ZM58.9098 224.627C59.4418 224.627 59.9388 224.501 60.4008 224.249C60.8768 223.983 61.2548 223.591 61.5348 223.073C61.8148 222.555 61.9548 221.925 61.9548 221.183C61.9548 220.077 61.6608 219.23 61.0728 218.642C60.4988 218.04 59.7918 217.739 58.9518 217.739C58.1118 217.739 57.4048 218.04 56.8308 218.642C56.2708 219.23 55.9908 220.077 55.9908 221.183C55.9908 222.289 56.2638 223.143 56.8098 223.745C57.3698 224.333 58.0698 224.627 58.9098 224.627ZM77.6984 215.366V227H74.7374V225.53C74.3594 226.034 73.8624 226.433 73.2464 226.727C72.6444 227.007 71.9864 227.147 71.2724 227.147C70.3624 227.147 69.5574 226.958 68.8574 226.58C68.1574 226.188 67.6044 225.621 67.1984 224.879C66.8064 224.123 66.6104 223.227 66.6104 222.191V215.366H69.5504V221.771C69.5504 222.695 69.7814 223.409 70.2434 223.913C70.7054 224.403 71.3354 224.648 72.1334 224.648C72.9454 224.648 73.5824 224.403 74.0444 223.913C74.5064 223.409 74.7374 222.695 74.7374 221.771V215.366H77.6984ZM80.7672 212.342H83.8542L81.5862 217.634H79.5702L80.7672 212.342ZM88.4824 217.172C88.8604 216.556 89.3504 216.073 89.9524 215.723C90.5684 215.373 91.2684 215.198 92.0524 215.198V218.285H91.2754C90.3514 218.285 89.6514 218.502 89.1754 218.936C88.7134 219.37 88.4824 220.126 88.4824 221.204V227H85.5424V215.366H88.4824V217.172ZM104.428 220.931C104.428 221.351 104.4 221.729 104.344 222.065H95.8387C95.9087 222.905 96.2027 223.563 96.7207 224.039C97.2387 224.515 97.8757 224.753 98.6317 224.753C99.7237 224.753 100.501 224.284 100.963 223.346H104.134C103.798 224.466 103.154 225.39 102.202 226.118C101.25 226.832 100.081 227.189 98.6947 227.189C97.5747 227.189 96.5667 226.944 95.6707 226.454C94.7887 225.95 94.0957 225.243 93.5917 224.333C93.1017 223.423 92.8567 222.373 92.8567 221.183C92.8567 219.979 93.1017 218.922 93.5917 218.012C94.0817 217.102 94.7677 216.402 95.6497 215.912C96.5317 215.422 97.5467 215.177 98.6947 215.177C99.8007 215.177 100.788 215.415 101.656 215.891C102.538 216.367 103.217 217.046 103.693 217.928C104.183 218.796 104.428 219.797 104.428 220.931ZM101.383 220.091C101.369 219.335 101.096 218.733 100.564 218.285C100.032 217.823 99.3807 217.592 98.6107 217.592C97.8827 217.592 97.2667 217.816 96.7627 218.264C96.2727 218.698 95.9717 219.307 95.8597 220.091H101.383ZM109.982 221.141C109.982 219.965 110.213 218.922 110.675 218.012C111.151 217.102 111.788 216.402 112.586 215.912C113.398 215.422 114.301 215.177 115.295 215.177C116.163 215.177 116.919 215.352 117.563 215.702C118.221 216.052 118.746 216.493 119.138 217.025V215.366H122.099V227H119.138V225.299C118.76 225.845 118.235 226.3 117.563 226.664C116.905 227.014 116.142 227.189 115.274 227.189C114.294 227.189 113.398 226.937 112.586 226.433C111.788 225.929 111.151 225.222 110.675 224.312C110.213 223.388 109.982 222.331 109.982 221.141ZM119.138 221.183C119.138 220.469 118.998 219.86 118.718 219.356C118.438 218.838 118.06 218.446 117.584 218.18C117.108 217.9 116.597 217.76 116.051 217.76C115.505 217.76 115.001 217.893 114.539 218.159C114.077 218.425 113.699 218.817 113.405 219.335C113.125 219.839 112.985 220.441 112.985 221.141C112.985 221.841 113.125 222.457 113.405 222.989C113.699 223.507 114.077 223.906 114.539 224.186C115.015 224.466 115.519 224.606 116.051 224.606C116.597 224.606 117.108 224.473 117.584 224.207C118.06 223.927 118.438 223.535 118.718 223.031C118.998 222.513 119.138 221.897 119.138 221.183ZM127.49 211.46V227H124.55V211.46H127.49ZM132.915 217.172C133.293 216.556 133.783 216.073 134.385 215.723C135.001 215.373 135.701 215.198 136.485 215.198V218.285H135.708C134.784 218.285 134.084 218.502 133.608 218.936C133.146 219.37 132.915 220.126 132.915 221.204V227H129.975V215.366H132.915V217.172ZM148.86 220.931C148.86 221.351 148.832 221.729 148.776 222.065H140.271C140.341 222.905 140.635 223.563 141.153 224.039C141.671 224.515 142.308 224.753 143.064 224.753C144.156 224.753 144.933 224.284 145.395 223.346H148.566C148.23 224.466 147.586 225.39 146.634 226.118C145.682 226.832 144.513 227.189 143.127 227.189C142.007 227.189 140.999 226.944 140.103 226.454C139.221 225.95 138.528 225.243 138.024 224.333C137.534 223.423 137.289 222.373 137.289 221.183C137.289 219.979 137.534 218.922 138.024 218.012C138.514 217.102 139.2 216.402 140.082 215.912C140.964 215.422 141.979 215.177 143.127 215.177C144.233 215.177 145.22 215.415 146.088 215.891C146.97 216.367 147.649 217.046 148.125 217.928C148.615 218.796 148.86 219.797 148.86 220.931ZM145.815 220.091C145.801 219.335 145.528 218.733 144.996 218.285C144.464 217.823 143.813 217.592 143.043 217.592C142.315 217.592 141.699 217.816 141.195 218.264C140.705 218.698 140.404 219.307 140.292 220.091H145.815ZM149.83 221.141C149.83 219.965 150.061 218.922 150.523 218.012C150.999 217.102 151.636 216.402 152.434 215.912C153.246 215.422 154.149 215.177 155.143 215.177C156.011 215.177 156.767 215.352 157.411 215.702C158.069 216.052 158.594 216.493 158.986 217.025V215.366H161.947V227H158.986V225.299C158.608 225.845 158.083 226.3 157.411 226.664C156.753 227.014 155.99 227.189 155.122 227.189C154.142 227.189 153.246 226.937 152.434 226.433C151.636 225.929 150.999 225.222 150.523 224.312C150.061 223.388 149.83 222.331 149.83 221.141ZM158.986 221.183C158.986 220.469 158.846 219.86 158.566 219.356C158.286 218.838 157.908 218.446 157.432 218.18C156.956 217.9 156.445 217.76 155.899 217.76C155.353 217.76 154.849 217.893 154.387 218.159C153.925 218.425 153.547 218.817 153.253 219.335C152.973 219.839 152.833 220.441 152.833 221.141C152.833 221.841 152.973 222.457 153.253 222.989C153.547 223.507 153.925 223.906 154.387 224.186C154.863 224.466 155.367 224.606 155.899 224.606C156.445 224.606 156.956 224.473 157.432 224.207C157.908 223.927 158.286 223.535 158.566 223.031C158.846 222.513 158.986 221.897 158.986 221.183ZM163.642 221.141C163.642 219.965 163.873 218.922 164.335 218.012C164.811 217.102 165.455 216.402 166.267 215.912C167.079 215.422 167.982 215.177 168.976 215.177C169.732 215.177 170.453 215.345 171.139 215.681C171.825 216.003 172.371 216.437 172.777 216.983V211.46H175.759V227H172.777V225.278C172.413 225.852 171.902 226.314 171.244 226.664C170.586 227.014 169.823 227.189 168.955 227.189C167.975 227.189 167.079 226.937 166.267 226.433C165.455 225.929 164.811 225.222 164.335 224.312C163.873 223.388 163.642 222.331 163.642 221.141ZM172.798 221.183C172.798 220.469 172.658 219.86 172.378 219.356C172.098 218.838 171.72 218.446 171.244 218.18C170.768 217.9 170.257 217.76 169.711 217.76C169.165 217.76 168.661 217.893 168.199 218.159C167.737 218.425 167.359 218.817 167.065 219.335C166.785 219.839 166.645 220.441 166.645 221.141C166.645 221.841 166.785 222.457 167.065 222.989C167.359 223.507 167.737 223.906 168.199 224.186C168.675 224.466 169.179 224.606 169.711 224.606C170.257 224.606 170.768 224.473 171.244 224.207C171.72 223.927 172.098 223.535 172.378 223.031C172.658 222.513 172.798 221.897 172.798 221.183ZM189.341 215.366L182.138 232.502H179.009L181.529 226.706L176.867 215.366H180.164L183.167 223.493L186.212 215.366H189.341ZM57.577 240.366L54.175 252H51.004L48.883 243.873L46.762 252H43.57L40.147 240.366H43.129L45.187 249.228L47.413 240.366H50.521L52.705 249.207L54.763 240.366H57.577ZM63.9138 252.189C62.7938 252.189 61.7858 251.944 60.8898 251.454C59.9938 250.95 59.2868 250.243 58.7687 249.333C58.2647 248.423 58.0127 247.373 58.0127 246.183C58.0127 244.993 58.2717 243.943 58.7897 243.033C59.3218 242.123 60.0428 241.423 60.9528 240.933C61.8628 240.429 62.8778 240.177 63.9978 240.177C65.1178 240.177 66.1328 240.429 67.0428 240.933C67.9528 241.423 68.6668 242.123 69.1848 243.033C69.7168 243.943 69.9828 244.993 69.9828 246.183C69.9828 247.373 69.7098 248.423 69.1637 249.333C68.6318 250.243 67.9038 250.95 66.9798 251.454C66.0698 251.944 65.0478 252.189 63.9138 252.189ZM63.9138 249.627C64.4458 249.627 64.9428 249.501 65.4048 249.249C65.8808 248.983 66.2588 248.591 66.5388 248.073C66.8188 247.555 66.9588 246.925 66.9588 246.183C66.9588 245.077 66.6648 244.23 66.0768 243.642C65.5028 243.04 64.7957 242.739 63.9557 242.739C63.1157 242.739 62.4087 243.04 61.8348 243.642C61.2748 244.23 60.9948 245.077 60.9948 246.183C60.9948 247.289 61.2678 248.143 61.8137 248.745C62.3738 249.333 63.0738 249.627 63.9138 249.627ZM74.6594 242.172C75.0374 241.556 75.5274 241.073 76.1294 240.723C76.7454 240.373 77.4454 240.198 78.2294 240.198V243.285H77.4524C76.5284 243.285 75.8284 243.502 75.3524 243.936C74.8904 244.37 74.6594 245.126 74.6594 246.204V252H71.7194V240.366H74.6594V242.172ZM86.6776 252L82.7296 247.044V252H79.7896V236.46H82.7296V245.301L86.6356 240.366H90.4576L85.3336 246.204L90.4996 252H86.6776ZM93.1243 238.98C92.6063 238.98 92.1723 238.819 91.8223 238.497C91.4863 238.161 91.3183 237.748 91.3183 237.258C91.3183 236.768 91.4863 236.362 91.8223 236.04C92.1723 235.704 92.6063 235.536 93.1243 235.536C93.6423 235.536 94.0693 235.704 94.4053 236.04C94.7553 236.362 94.9303 236.768 94.9303 237.258C94.9303 237.748 94.7553 238.161 94.4053 238.497C94.0693 238.819 93.6423 238.98 93.1243 238.98ZM94.5733 240.366V252H91.6333V240.366H94.5733ZM103.505 240.198C104.891 240.198 106.011 240.639 106.865 241.521C107.719 242.389 108.146 243.607 108.146 245.175V252H105.206V245.574C105.206 244.65 104.975 243.943 104.513 243.453C104.051 242.949 103.421 242.697 102.623 242.697C101.811 242.697 101.167 242.949 100.691 243.453C100.229 243.943 99.998 244.65 99.998 245.574V252H97.058V240.366H99.998V241.815C100.39 241.311 100.887 240.919 101.489 240.639C102.105 240.345 102.777 240.198 103.505 240.198ZM115.079 240.177C115.947 240.177 116.71 240.352 117.368 240.702C118.026 241.038 118.544 241.479 118.922 242.025V240.366H121.883V252.084C121.883 253.162 121.666 254.121 121.232 254.961C120.798 255.815 120.147 256.487 119.279 256.977C118.411 257.481 117.361 257.733 116.129 257.733C114.477 257.733 113.119 257.348 112.055 256.578C111.005 255.808 110.41 254.758 110.27 253.428H113.189C113.343 253.96 113.672 254.38 114.176 254.688C114.694 255.01 115.317 255.171 116.045 255.171C116.899 255.171 117.592 254.912 118.124 254.394C118.656 253.89 118.922 253.12 118.922 252.084V250.278C118.544 250.824 118.019 251.279 117.347 251.643C116.689 252.007 115.933 252.189 115.079 252.189C114.099 252.189 113.203 251.937 112.391 251.433C111.579 250.929 110.935 250.222 110.459 249.312C109.997 248.388 109.766 247.331 109.766 246.141C109.766 244.965 109.997 243.922 110.459 243.012C110.935 242.102 111.572 241.402 112.37 240.912C113.182 240.422 114.085 240.177 115.079 240.177ZM118.922 246.183C118.922 245.469 118.782 244.86 118.502 244.356C118.222 243.838 117.844 243.446 117.368 243.18C116.892 242.9 116.381 242.76 115.835 242.76C115.289 242.76 114.785 242.893 114.323 243.159C113.861 243.425 113.483 243.817 113.189 244.335C112.909 244.839 112.769 245.441 112.769 246.141C112.769 246.841 112.909 247.457 113.189 247.989C113.483 248.507 113.861 248.906 114.323 249.186C114.799 249.466 115.303 249.606 115.835 249.606C116.381 249.606 116.892 249.473 117.368 249.207C117.844 248.927 118.222 248.535 118.502 248.031C118.782 247.513 118.922 246.897 118.922 246.183ZM127.547 248.913L125.09 254.814H123.2L124.565 248.913H127.547ZM138.387 240.177C139.255 240.177 140.018 240.352 140.676 240.702C141.334 241.038 141.852 241.479 142.23 242.025V240.366H145.191V252.084C145.191 253.162 144.974 254.121 144.54 254.961C144.106 255.815 143.455 256.487 142.587 256.977C141.719 257.481 140.669 257.733 139.437 257.733C137.785 257.733 136.427 257.348 135.363 256.578C134.313 255.808 133.718 254.758 133.578 253.428H136.497C136.651 253.96 136.98 254.38 137.484 254.688C138.002 255.01 138.625 255.171 139.353 255.171C140.207 255.171 140.9 254.912 141.432 254.394C141.964 253.89 142.23 253.12 142.23 252.084V250.278C141.852 250.824 141.327 251.279 140.655 251.643C139.997 252.007 139.241 252.189 138.387 252.189C137.407 252.189 136.511 251.937 135.699 251.433C134.887 250.929 134.243 250.222 133.767 249.312C133.305 248.388 133.074 247.331 133.074 246.141C133.074 244.965 133.305 243.922 133.767 243.012C134.243 242.102 134.88 241.402 135.678 240.912C136.49 240.422 137.393 240.177 138.387 240.177ZM142.23 246.183C142.23 245.469 142.09 244.86 141.81 244.356C141.53 243.838 141.152 243.446 140.676 243.18C140.2 242.9 139.689 242.76 139.143 242.76C138.597 242.76 138.093 242.893 137.631 243.159C137.169 243.425 136.791 243.817 136.497 244.335C136.217 244.839 136.077 245.441 136.077 246.141C136.077 246.841 136.217 247.457 136.497 247.989C136.791 248.507 137.169 248.906 137.631 249.186C138.107 249.466 138.611 249.606 139.143 249.606C139.689 249.606 140.2 249.473 140.676 249.207C141.152 248.927 141.53 248.535 141.81 248.031C142.09 247.513 142.23 246.897 142.23 246.183ZM158.458 245.931C158.458 246.351 158.43 246.729 158.374 247.065H149.869C149.939 247.905 150.233 248.563 150.751 249.039C151.269 249.515 151.906 249.753 152.662 249.753C153.754 249.753 154.531 249.284 154.993 248.346H158.164C157.828 249.466 157.184 250.39 156.232 251.118C155.28 251.832 154.111 252.189 152.725 252.189C151.605 252.189 150.597 251.944 149.701 251.454C148.819 250.95 148.126 250.243 147.622 249.333C147.132 248.423 146.887 247.373 146.887 246.183C146.887 244.979 147.132 243.922 147.622 243.012C148.112 242.102 148.798 241.402 149.68 240.912C150.562 240.422 151.577 240.177 152.725 240.177C153.831 240.177 154.818 240.415 155.686 240.891C156.568 241.367 157.247 242.046 157.723 242.928C158.213 243.796 158.458 244.797 158.458 245.931ZM155.413 245.091C155.399 244.335 155.126 243.733 154.594 243.285C154.062 242.823 153.411 242.592 152.641 242.592C151.913 242.592 151.297 242.816 150.793 243.264C150.303 243.698 150.002 244.307 149.89 245.091H155.413ZM163.606 242.781V248.409C163.606 248.801 163.697 249.088 163.879 249.27C164.075 249.438 164.397 249.522 164.845 249.522H166.21V252H164.362C161.884 252 160.645 250.796 160.645 248.388V242.781H159.259V240.366H160.645V237.489H163.606V240.366H166.21V242.781H163.606ZM175.429 242.046C175.807 241.514 176.325 241.073 176.983 240.723C177.655 240.359 178.418 240.177 179.272 240.177C180.266 240.177 181.162 240.422 181.96 240.912C182.772 241.402 183.409 242.102 183.871 243.012C184.347 243.908 184.585 244.951 184.585 246.141C184.585 247.331 184.347 248.388 183.871 249.312C183.409 250.222 182.772 250.929 181.96 251.433C181.162 251.937 180.266 252.189 179.272 252.189C178.418 252.189 177.662 252.014 177.004 251.664C176.36 251.314 175.835 250.873 175.429 250.341V257.544H172.489V240.366H175.429V242.046ZM181.582 246.141C181.582 245.441 181.435 244.839 181.141 244.335C180.861 243.817 180.483 243.425 180.007 243.159C179.545 242.893 179.041 242.76 178.495 242.76C177.963 242.76 177.459 242.9 176.983 243.18C176.521 243.446 176.143 243.838 175.849 244.356C175.569 244.874 175.429 245.483 175.429 246.183C175.429 246.883 175.569 247.492 175.849 248.01C176.143 248.528 176.521 248.927 176.983 249.207C177.459 249.473 177.963 249.606 178.495 249.606C179.041 249.606 179.545 249.466 180.007 249.186C180.483 248.906 180.861 248.507 181.141 247.989C181.435 247.471 181.582 246.855 181.582 246.141ZM185.545 246.141C185.545 244.965 185.776 243.922 186.238 243.012C186.714 242.102 187.351 241.402 188.149 240.912C188.961 240.422 189.864 240.177 190.858 240.177C191.726 240.177 192.482 240.352 193.126 240.702C193.784 241.052 194.309 241.493 194.701 242.025V240.366H197.662V252H194.701V250.299C194.323 250.845 193.798 251.3 193.126 251.664C192.468 252.014 191.705 252.189 190.837 252.189C189.857 252.189 188.961 251.937 188.149 251.433C187.351 250.929 186.714 250.222 186.238 249.312C185.776 248.388 185.545 247.331 185.545 246.141ZM194.701 246.183C194.701 245.469 194.561 244.86 194.281 244.356C194.001 243.838 193.623 243.446 193.147 243.18C192.671 242.9 192.16 242.76 191.614 242.76C191.068 242.76 190.564 242.893 190.102 243.159C189.64 243.425 189.262 243.817 188.968 244.335C188.688 244.839 188.548 245.441 188.548 246.141C188.548 246.841 188.688 247.457 188.968 247.989C189.262 248.507 189.64 248.906 190.102 249.186C190.578 249.466 191.082 249.606 191.614 249.606C192.16 249.606 192.671 249.473 193.147 249.207C193.623 248.927 194.001 248.535 194.281 248.031C194.561 247.513 194.701 246.897 194.701 246.183ZM201.605 238.98C201.087 238.98 200.653 238.819 200.303 238.497C199.967 238.161 199.799 237.748 199.799 237.258C199.799 236.768 199.967 236.362 200.303 236.04C200.653 235.704 201.087 235.536 201.605 235.536C202.123 235.536 202.55 235.704 202.886 236.04C203.236 236.362 203.411 236.768 203.411 237.258C203.411 237.748 203.236 238.161 202.886 238.497C202.55 238.819 202.123 238.98 201.605 238.98ZM203.054 240.366V252H200.114V240.366H203.054ZM204.783 246.141C204.783 244.965 205.014 243.922 205.476 243.012C205.952 242.102 206.596 241.402 207.408 240.912C208.22 240.422 209.123 240.177 210.117 240.177C210.873 240.177 211.594 240.345 212.28 240.681C212.966 241.003 213.512 241.437 213.918 241.983V236.46H216.9V252H213.918V250.278C213.554 250.852 213.043 251.314 212.385 251.664C211.727 252.014 210.964 252.189 210.096 252.189C209.116 252.189 208.22 251.937 207.408 251.433C206.596 250.929 205.952 250.222 205.476 249.312C205.014 248.388 204.783 247.331 204.783 246.141ZM213.939 246.183C213.939 245.469 213.799 244.86 213.519 244.356C213.239 243.838 212.861 243.446 212.385 243.18C211.909 242.9 211.398 242.76 210.852 242.76C210.306 242.76 209.802 242.893 209.34 243.159C208.878 243.425 208.5 243.817 208.206 244.335C207.926 244.839 207.786 245.441 207.786 246.141C207.786 246.841 207.926 247.457 208.206 247.989C208.5 248.507 208.878 248.906 209.34 249.186C209.816 249.466 210.32 249.606 210.852 249.606C211.398 249.606 211.909 249.473 212.385 249.207C212.861 248.927 213.239 248.535 213.519 248.031C213.799 247.513 213.939 246.897 213.939 246.183ZM227.358 242.781V248.409C227.358 248.801 227.449 249.088 227.631 249.27C227.827 249.438 228.149 249.522 228.597 249.522H229.962V252H228.114C225.636 252 224.397 250.796 224.397 248.388V242.781H223.011V240.366H224.397V237.489H227.358V240.366H229.962V242.781H227.358ZM236.823 252.189C235.703 252.189 234.695 251.944 233.799 251.454C232.903 250.95 232.196 250.243 231.678 249.333C231.174 248.423 230.922 247.373 230.922 246.183C230.922 244.993 231.181 243.943 231.699 243.033C232.231 242.123 232.952 241.423 233.862 240.933C234.772 240.429 235.787 240.177 236.907 240.177C238.027 240.177 239.042 240.429 239.952 240.933C240.862 241.423 241.576 242.123 242.094 243.033C242.626 243.943 242.892 244.993 242.892 246.183C242.892 247.373 242.619 248.423 242.073 249.333C241.541 250.243 240.813 250.95 239.889 251.454C238.979 251.944 237.957 252.189 236.823 252.189ZM236.823 249.627C237.355 249.627 237.852 249.501 238.314 249.249C238.79 248.983 239.168 248.591 239.448 248.073C239.728 247.555 239.868 246.925 239.868 246.183C239.868 245.077 239.574 244.23 238.986 243.642C238.412 243.04 237.705 242.739 236.865 242.739C236.025 242.739 235.318 243.04 234.744 243.642C234.184 244.23 233.904 245.077 233.904 246.183C233.904 247.289 234.177 248.143 234.723 248.745C235.283 249.333 235.983 249.627 236.823 249.627ZM48.001 265.198C48.883 265.198 49.667 265.394 50.353 265.786C51.039 266.164 51.571 266.731 51.949 267.487C52.341 268.229 52.537 269.125 52.537 270.175V277H49.597V270.574C49.597 269.65 49.366 268.943 48.904 268.453C48.442 267.949 47.812 267.697 47.014 267.697C46.202 267.697 45.558 267.949 45.082 268.453C44.62 268.943 44.389 269.65 44.389 270.574V277H41.449V261.46H44.389V266.815C44.767 266.311 45.271 265.919 45.901 265.639C46.531 265.345 47.231 265.198 48.001 265.198ZM65.7278 270.931C65.7278 271.351 65.6998 271.729 65.6438 272.065H57.1388C57.2088 272.905 57.5028 273.563 58.0208 274.039C58.5388 274.515 59.1758 274.753 59.9318 274.753C61.0238 274.753 61.8008 274.284 62.2628 273.346H65.4338C65.0978 274.466 64.4538 275.39 63.5018 276.118C62.5498 276.832 61.3808 277.189 59.9948 277.189C58.8748 277.189 57.8668 276.944 56.9708 276.454C56.0888 275.95 55.3958 275.243 54.8918 274.333C54.4018 273.423 54.1568 272.373 54.1568 271.183C54.1568 269.979 54.4018 268.922 54.8918 268.012C55.3818 267.102 56.0678 266.402 56.9498 265.912C57.8318 265.422 58.8468 265.177 59.9948 265.177C61.1008 265.177 62.0878 265.415 62.9558 265.891C63.8378 266.367 64.5168 267.046 64.9928 267.928C65.4828 268.796 65.7278 269.797 65.7278 270.931ZM62.6828 270.091C62.6688 269.335 62.3958 268.733 61.8638 268.285C61.3318 267.823 60.6808 267.592 59.9108 267.592C59.1828 267.592 58.5668 267.816 58.0628 268.264C57.5728 268.698 57.2718 269.307 57.1598 270.091H62.6828ZM70.3937 261.46V277H67.4537V261.46H70.3937ZM75.8185 267.046C76.1965 266.514 76.7145 266.073 77.3725 265.723C78.0445 265.359 78.8075 265.177 79.6615 265.177C80.6555 265.177 81.5515 265.422 82.3495 265.912C83.1615 266.402 83.7985 267.102 84.2605 268.012C84.7365 268.908 84.9745 269.951 84.9745 271.141C84.9745 272.331 84.7365 273.388 84.2605 274.312C83.7985 275.222 83.1615 275.929 82.3495 276.433C81.5515 276.937 80.6555 277.189 79.6615 277.189C78.8075 277.189 78.0515 277.014 77.3935 276.664C76.7495 276.314 76.2245 275.873 75.8185 275.341V282.544H72.8785V265.366H75.8185V267.046ZM81.9715 271.141C81.9715 270.441 81.8245 269.839 81.5305 269.335C81.2505 268.817 80.8725 268.425 80.3965 268.159C79.9345 267.893 79.4305 267.76 78.8845 267.76C78.3525 267.76 77.8485 267.9 77.3725 268.18C76.9105 268.446 76.5325 268.838 76.2385 269.356C75.9585 269.874 75.8185 270.483 75.8185 271.183C75.8185 271.883 75.9585 272.492 76.2385 273.01C76.5325 273.528 76.9105 273.927 77.3725 274.207C77.8485 274.473 78.3525 274.606 78.8845 274.606C79.4305 274.606 79.9345 274.466 80.3965 274.186C80.8725 273.906 81.2505 273.507 81.5305 272.989C81.8245 272.471 81.9715 271.855 81.9715 271.141ZM96.4408 277.189C95.3208 277.189 94.3128 276.944 93.4168 276.454C92.5208 275.95 91.8138 275.243 91.2958 274.333C90.7918 273.423 90.5398 272.373 90.5398 271.183C90.5398 269.993 90.7988 268.943 91.3168 268.033C91.8488 267.123 92.5698 266.423 93.4798 265.933C94.3898 265.429 95.4048 265.177 96.5248 265.177C97.6448 265.177 98.6598 265.429 99.5698 265.933C100.48 266.423 101.194 267.123 101.712 268.033C102.244 268.943 102.51 269.993 102.51 271.183C102.51 272.373 102.237 273.423 101.691 274.333C101.159 275.243 100.431 275.95 99.5068 276.454C98.5968 276.944 97.5748 277.189 96.4408 277.189ZM96.4408 274.627C96.9728 274.627 97.4698 274.501 97.9318 274.249C98.4078 273.983 98.7858 273.591 99.0658 273.073C99.3458 272.555 99.4858 271.925 99.4858 271.183C99.4858 270.077 99.1918 269.23 98.6038 268.642C98.0298 268.04 97.3228 267.739 96.4828 267.739C95.6428 267.739 94.9358 268.04 94.3618 268.642C93.8018 269.23 93.5218 270.077 93.5218 271.183C93.5218 272.289 93.7948 273.143 94.3408 273.745C94.9008 274.333 95.6008 274.627 96.4408 274.627ZM107.669 267.781V273.409C107.669 273.801 107.76 274.088 107.942 274.27C108.138 274.438 108.46 274.522 108.908 274.522H110.273V277H108.425C105.947 277 104.708 275.796 104.708 273.388V267.781H103.322V265.366H104.708V262.489H107.669V265.366H110.273V267.781H107.669ZM118.52 265.198C119.402 265.198 120.186 265.394 120.872 265.786C121.558 266.164 122.09 266.731 122.468 267.487C122.86 268.229 123.056 269.125 123.056 270.175V277H120.116V270.574C120.116 269.65 119.885 268.943 119.423 268.453C118.961 267.949 118.331 267.697 117.533 267.697C116.721 267.697 116.077 267.949 115.601 268.453C115.139 268.943 114.908 269.65 114.908 270.574V277H111.968V261.46H114.908V266.815C115.286 266.311 115.79 265.919 116.42 265.639C117.05 265.345 117.75 265.198 118.52 265.198ZM136.247 270.931C136.247 271.351 136.219 271.729 136.163 272.065H127.658C127.728 272.905 128.022 273.563 128.54 274.039C129.058 274.515 129.695 274.753 130.451 274.753C131.543 274.753 132.32 274.284 132.782 273.346H135.953C135.617 274.466 134.973 275.39 134.021 276.118C133.069 276.832 131.9 277.189 130.514 277.189C129.394 277.189 128.386 276.944 127.49 276.454C126.608 275.95 125.915 275.243 125.411 274.333C124.921 273.423 124.676 272.373 124.676 271.183C124.676 269.979 124.921 268.922 125.411 268.012C125.901 267.102 126.587 266.402 127.469 265.912C128.351 265.422 129.366 265.177 130.514 265.177C131.62 265.177 132.607 265.415 133.475 265.891C134.357 266.367 135.036 267.046 135.512 267.928C136.002 268.796 136.247 269.797 136.247 270.931ZM133.202 270.091C133.188 269.335 132.915 268.733 132.383 268.285C131.851 267.823 131.2 267.592 130.43 267.592C129.702 267.592 129.086 267.816 128.582 268.264C128.092 268.698 127.791 269.307 127.679 270.091H133.202ZM140.913 267.172C141.291 266.556 141.781 266.073 142.383 265.723C142.999 265.373 143.699 265.198 144.483 265.198V268.285H143.706C142.782 268.285 142.082 268.502 141.606 268.936C141.144 269.37 140.913 270.126 140.913 271.204V277H137.973V265.366H140.913V267.172ZM150.495 277.189C149.543 277.189 148.689 277.021 147.933 276.685C147.177 276.335 146.575 275.866 146.127 275.278C145.693 274.69 145.455 274.039 145.413 273.325H148.374C148.43 273.773 148.647 274.144 149.025 274.438C149.417 274.732 149.9 274.879 150.474 274.879C151.034 274.879 151.468 274.767 151.776 274.543C152.098 274.319 152.259 274.032 152.259 273.682C152.259 273.304 152.063 273.024 151.671 272.842C151.293 272.646 150.684 272.436 149.844 272.212C148.976 272.002 148.262 271.785 147.702 271.561C147.156 271.337 146.68 270.994 146.274 270.532C145.882 270.07 145.686 269.447 145.686 268.663C145.686 268.019 145.868 267.431 146.232 266.899C146.61 266.367 147.142 265.947 147.828 265.639C148.528 265.331 149.347 265.177 150.285 265.177C151.671 265.177 152.777 265.527 153.603 266.227C154.429 266.913 154.884 267.844 154.968 269.02H152.154C152.112 268.558 151.916 268.194 151.566 267.928C151.23 267.648 150.775 267.508 150.201 267.508C149.669 267.508 149.256 267.606 148.962 267.802C148.682 267.998 148.542 268.271 148.542 268.621C148.542 269.013 148.738 269.314 149.13 269.524C149.522 269.72 150.131 269.923 150.957 270.133C151.797 270.343 152.49 270.56 153.036 270.784C153.582 271.008 154.051 271.358 154.443 271.834C154.849 272.296 155.059 272.912 155.073 273.682C155.073 274.354 154.884 274.956 154.506 275.488C154.142 276.02 153.61 276.44 152.91 276.748C152.224 277.042 151.419 277.189 150.495 277.189Z" fill="#005382"/>
<g clip-path="url(#clip0_701_459)">
<path d="M492.777 105.821C492.767 111.582 491.045 117.212 487.828 121.997C484.612 126.782 480.046 130.507 474.707 132.703C469.369 134.898 463.498 135.465 457.836 134.331C452.175 133.197 446.978 130.413 442.902 126.332C438.827 122.25 436.056 117.055 434.939 111.402C433.823 105.749 434.411 99.8925 436.63 94.5733C438.849 89.2542 442.599 84.7111 447.406 81.5186C452.213 78.3261 457.86 76.6275 463.634 76.6377C467.471 76.6346 471.271 77.388 474.815 78.8548C478.358 80.3215 481.577 82.4727 484.285 85.1846C486.993 87.8964 489.138 91.1156 490.595 94.6571C492.052 98.1985 492.794 101.992 492.777 105.821Z" fill="#C4DFED"/>
<path d="M541.366 122.802L545.471 114.981C541.79 110.546 529.713 105.166 529.713 105.166L513.367 90.3203C513.193 89.6579 512.847 89.053 512.364 88.5664C511.881 88.0799 511.278 87.7288 510.616 87.5486C509.954 87.3683 509.256 87.3653 508.593 87.5398C507.929 87.7143 507.323 88.0601 506.836 88.5425C506.349 89.0249 505.998 89.6268 505.818 90.2876C505.639 90.9484 505.636 91.6448 505.812 92.3068C505.988 92.9687 506.335 93.5728 506.819 94.0582C507.303 94.5436 507.907 94.8933 508.569 95.0719L526.228 116.205L541.366 122.802Z" fill="#9E616A"/>
<path d="M539.377 122.262L545.174 124.104C549.389 125.443 553.931 125.342 558.082 123.817C559.337 123.351 560.437 122.543 561.257 121.486C562.077 120.428 562.584 119.163 562.721 117.833C562.894 116.029 562.375 114.226 561.268 112.79C560.16 111.353 558.547 110.39 556.755 110.094C551.32 109.203 544.316 108.763 541.817 111.73L541.792 111.76L539.377 122.262Z" fill="#3F3D56"/>
<path d="M497.686 146.206C513.81 146.206 526.881 133.163 526.881 117.075C526.881 100.986 513.81 87.9431 497.686 87.9431C481.563 87.9431 468.492 100.986 468.492 117.075C468.492 133.163 481.563 146.206 497.686 146.206Z" fill="#D2EFFF"/>
<path d="M485.772 105.68C485.371 107.828 484.714 109.921 483.815 111.913C478.665 122.784 493.331 119.241 498.572 119.241C504.302 119.241 509.785 122.247 508.948 108.887C508.59 103.18 504.302 98.5337 498.572 98.5337C493.677 98.5337 486.795 100.705 485.772 105.68Z" fill="#2F2E41"/>
<path d="M497.713 119.238C502.37 119.238 506.145 115.471 506.145 110.825C506.145 106.178 502.37 102.411 497.713 102.411C493.057 102.411 489.282 106.178 489.282 110.825C489.282 115.471 493.057 119.238 497.713 119.238Z" fill="#FFB6B6"/>
<path d="M491.987 102.248C493.465 101.35 495.157 100.863 496.887 100.841C498.618 100.818 500.322 101.259 501.823 102.119C503.324 102.979 504.565 104.225 505.418 105.727C506.271 107.229 506.704 108.933 506.671 110.659C502.375 111.736 497.861 112.559 493.28 110.917L492.198 108.274L491.56 110.919C490.164 111.488 488.765 111.969 487.366 110.913C487.309 109.192 487.706 107.485 488.517 105.965C489.328 104.444 490.525 103.163 491.987 102.248Z" fill="#2F2E41"/>
<path d="M520.386 136.445C515.329 142.188 508.21 145.716 500.569 146.267C492.927 146.818 485.374 144.348 479.542 139.391L482.046 132.419C482.611 131.18 483.504 130.119 484.629 129.349C485.753 128.578 487.067 128.128 488.428 128.045L490.021 127.948L493.82 124.679C493.82 124.679 504.055 124.314 503.903 124.139L510.103 127.86L510.097 127.835L512.535 127.984C513.896 128.066 515.21 128.516 516.334 129.287C517.458 130.057 518.351 131.118 518.917 132.357L520.386 136.445Z" fill="#6C63FF"/>
<path d="M495.125 256.484L494.4 246.416C489.648 244.046 484.388 242.869 479.076 242.987C486.549 248.75 485.95 260.269 491.125 268.152C492.758 270.599 494.922 272.647 497.456 274.146C499.99 275.644 502.829 276.555 505.764 276.809L511.983 280.379C512.694 275.688 512.378 270.898 511.055 266.34C509.733 261.782 507.436 257.565 504.323 253.978C502.556 251.983 500.545 250.218 498.337 248.725C496.978 252.619 495.125 256.484 495.125 256.484Z" fill="#F2F2F2"/>
<path d="M306.049 78.0336L305.323 67.9658C300.571 65.5955 295.311 64.4185 290 64.5369C297.472 70.3002 296.874 81.8191 302.049 89.7023C303.682 92.1487 305.845 94.197 308.379 95.6956C310.913 97.1941 313.753 98.1044 316.687 98.359L322.906 101.929C323.618 97.2374 323.301 92.4477 321.979 87.8899C320.656 83.3321 318.36 79.1146 315.246 75.5278C313.48 73.5329 311.469 71.768 309.26 70.2745C307.901 74.1687 306.049 78.0336 306.049 78.0336Z" fill="#5186EC"/>
<path d="M522.329 276.975L517.478 276.975L515.171 258.306H522.33L522.329 276.975Z" fill="#9E616A"/>
<path d="M523.566 281.667L507.925 281.667V281.469C507.925 279.858 508.567 278.313 509.709 277.174C510.85 276.035 512.399 275.395 514.013 275.395H514.014L516.871 273.232L522.201 275.395L523.566 275.395L523.566 281.667Z" fill="#2F2E41"/>
<path d="M565.081 276.975L560.23 276.975L557.922 258.306H565.082L565.081 276.975Z" fill="#9E616A"/>
<path d="M566.318 281.667L550.677 281.667V281.469C550.677 279.858 551.318 278.313 552.46 277.174C553.602 276.035 555.15 275.395 556.765 275.395H556.765L559.622 273.232L564.953 275.395L566.318 275.395L566.318 281.667Z" fill="#2F2E41"/>
<path d="M557.703 177.054L561.783 215.729C561.783 215.729 567.214 254.454 566.194 259.798C565.174 265.141 566.449 265.904 566.449 265.904L557.142 265.243C557.142 265.243 557.397 261.935 555.867 260.408C554.337 258.882 555.102 254.302 555.102 254.302L537.048 191.302L526.084 224.38C526.084 224.38 524.299 260.766 524.044 261.274C523.789 261.783 523.024 268.653 523.024 268.653H513.589C513.589 268.653 514.864 264.582 513.079 263.31C511.294 262.038 509.764 263.056 511.294 260.766C512.824 258.476 513.334 255.677 512.824 254.405C512.314 253.132 512.314 248.043 512.314 248.043C512.314 248.043 513.079 179.344 517.414 177.054C521.749 174.764 557.703 177.054 557.703 177.054Z" fill="#2F2E41"/>
<path d="M538.381 98.7458C543.923 98.7458 548.416 94.2628 548.416 88.7327C548.416 83.2025 543.923 78.7195 538.381 78.7195C532.839 78.7195 528.346 83.2025 528.346 88.7327C528.346 94.2628 532.839 98.7458 538.381 98.7458Z" fill="#9E616A"/>
<path d="M561.171 181.269C541.737 185.274 515.983 178.389 515.983 178.389L522.853 148.673L520.411 117.574C520.113 113.771 522.283 110.206 525.661 108.943L530.323 107.2L534.178 101.694L545.187 102.055L549.588 107.835L553.061 109.674L560.591 113.659L560.624 113.675V113.692L558.261 136.563L556.836 150.352C556.836 150.352 561.164 165.862 560.276 167.919C559.388 169.972 560.16 168.98 560.375 170.078C560.591 171.176 561.25 171.246 561.35 173.408C561.453 175.568 561.171 181.269 561.171 181.269Z" fill="#3F3D56"/>
<path d="M584.664 282H434.547C434.458 282 434.373 281.964 434.31 281.901C434.247 281.839 434.212 281.753 434.212 281.665C434.212 281.576 434.247 281.491 434.31 281.428C434.373 281.365 434.458 281.329 434.547 281.329H584.664C584.753 281.329 584.839 281.364 584.902 281.427C584.965 281.49 585 281.576 585 281.665C585 281.754 584.965 281.839 584.902 281.902C584.839 281.965 584.753 282 584.664 282Z" fill="#CCCCCC"/>
<path d="M537.893 98.2647C539.653 98.2468 541.409 98.0788 543.14 97.7628C544.854 97.3687 548.636 94.4508 549.666 92.7269C550.432 91.4462 550.892 89.4651 551.143 88.0288C551.481 86.128 551.416 84.1774 550.951 82.3033C550.486 80.4292 549.632 78.6735 548.444 77.1498C547.986 76.5114 547.363 76.0085 546.642 75.6941C546.579 75.6711 546.513 75.651 546.447 75.634C545.402 75.3882 544.454 74.8364 543.726 74.0493C543.584 73.89 543.432 73.741 543.269 73.6035C542.452 72.9507 541.491 72.5 540.466 72.2885C538.81 71.8916 536.441 72.389 533.425 73.7679C531.91 74.4608 530.228 74.2675 528.932 74.0217C528.859 74.0096 528.784 74.0167 528.715 74.0424C528.646 74.068 528.585 74.1112 528.538 74.1677C528.003 74.6956 527.287 75.0018 526.535 75.0248C526.075 75.0568 525.608 75.7059 525.045 76.551C524.917 76.7429 524.768 76.9668 524.66 77.1034L524.639 76.8468L524.385 77.1402C523.987 77.6014 523.713 78.1555 523.587 78.7511C523.462 79.3466 523.489 79.9642 523.667 80.5463C523.845 81.1284 524.168 81.6561 524.605 82.0802C525.043 82.5044 525.58 82.8112 526.169 82.972C526.635 83.0831 527.112 83.1464 527.592 83.1609C527.882 83.1794 528.183 83.1986 528.472 83.241C529.4 83.4058 530.269 83.8078 530.994 84.4077C531.72 85.0077 532.277 85.7851 532.611 86.6641C532.69 86.8672 532.815 87.0495 532.976 87.1969C533.136 87.3443 533.329 87.4529 533.539 87.5142C533.748 87.5756 533.969 87.588 534.184 87.5507C534.399 87.5134 534.603 87.4272 534.779 87.2988C535.073 87.0584 535.42 86.8924 535.792 86.8149C536.164 86.7374 536.549 86.7508 536.914 86.8539C537.232 87.0196 537.483 87.2893 537.625 87.6178C537.797 87.9834 538.074 88.2896 538.421 88.4974C539.604 89.068 539.753 91.7272 539.391 93.9565C539.042 96.1053 538.283 97.6728 537.546 97.7683C536.977 97.8418 536.913 97.8838 536.875 97.9854L536.84 98.0763L536.906 98.1588C537.224 98.2645 537.56 98.3006 537.893 98.2647Z" fill="#2F2E41"/>
<path d="M497.686 146.571C491.84 146.571 486.125 144.841 481.264 141.6C476.403 138.359 472.614 133.752 470.376 128.362C468.139 122.973 467.554 117.042 468.694 111.32C469.835 105.598 472.65 100.343 476.784 96.2174C480.918 92.0923 486.185 89.283 491.919 88.1449C497.654 87.0068 503.597 87.5909 508.999 89.8234C514.4 92.0559 519.017 95.8366 522.265 100.687C525.513 105.538 527.247 111.241 527.247 117.075C527.238 124.895 524.12 132.392 518.579 137.922C513.037 143.452 505.523 146.562 497.686 146.571ZM497.686 88.308C491.985 88.308 486.411 89.9951 481.67 93.156C476.929 96.3169 473.234 100.81 471.052 106.066C468.87 111.322 468.299 117.106 469.412 122.687C470.524 128.267 473.27 133.392 477.301 137.416C481.333 141.439 486.47 144.178 492.062 145.288C497.654 146.398 503.451 145.829 508.719 143.651C513.986 141.474 518.489 137.787 521.657 133.056C524.824 128.326 526.515 122.764 526.515 117.075C526.506 109.448 523.466 102.136 518.062 96.7431C512.657 91.3502 505.33 88.3167 497.686 88.308Z" fill="#3F3D56"/>
<path d="M395.651 85.6279C411.775 85.6279 424.845 72.5853 424.845 56.4965C424.845 40.4076 411.775 27.365 395.651 27.365C379.527 27.365 366.457 40.4076 366.457 56.4965C366.457 72.5853 379.527 85.6279 395.651 85.6279Z" fill="#D2EFFF"/>
<path d="M397.002 59.468C402.26 59.468 406.522 55.215 406.522 49.9687C406.522 44.7224 402.26 40.4695 397.002 40.4695C391.745 40.4695 387.482 44.7224 387.482 49.9687C387.482 55.215 391.745 59.468 397.002 59.468Z" fill="#FFB8B8"/>
<path d="M405.384 43.6933C405.384 43.6933 407.863 38.9652 402.41 38.5353C402.41 38.5353 397.761 34.3274 393.022 37.7661C393.022 37.7661 390.438 37.7661 389.025 40.6845C389.025 40.6845 386.992 39.9152 386.545 41.974C386.545 41.974 385.058 46.2723 386.545 50.1408C388.033 54.0093 388.527 54.4392 388.527 54.4392C388.527 54.4392 387.483 49.6386 393.432 49.2087C399.382 48.7789 404.839 45.06 405.335 49.7881C405.831 54.5163 406.376 52.3804 406.376 52.3804C406.376 52.3804 411.085 45.6276 405.384 43.6933Z" fill="#2F2E41"/>
<path d="M417.606 75.8669C412.549 81.6096 405.43 85.1372 397.789 85.6883C390.147 86.2394 382.594 83.7697 376.761 78.8124L379.266 71.8403C379.831 70.602 380.724 69.5407 381.849 68.7702C382.973 67.9998 384.287 67.5493 385.648 67.467L387.241 67.3694L391.04 64.1003C391.04 64.1003 401.275 63.7357 401.123 63.561L407.323 67.2821L407.317 67.2564L409.755 67.4054C411.116 67.4873 412.43 67.9377 413.554 68.7081C414.678 69.4786 415.571 70.5401 416.137 71.7787L417.606 75.8669Z" fill="#6C63FF"/>
<path d="M395.651 85.9927C389.805 85.9927 384.089 84.2628 379.228 81.0217C374.367 77.7806 370.578 73.1739 368.341 67.7841C366.104 62.3944 365.518 56.4637 366.659 50.7419C367.799 45.0202 370.615 39.7644 374.749 35.6393C378.883 31.5142 384.15 28.7049 389.884 27.5668C395.618 26.4287 401.562 27.0128 406.963 29.2453C412.365 31.4778 416.981 35.2584 420.229 40.1091C423.477 44.9597 425.211 50.6625 425.211 56.4964C425.202 64.3166 422.085 71.8139 416.543 77.3437C411.002 82.8734 403.488 85.9839 395.651 85.9927ZM395.651 27.7299C389.949 27.7299 384.375 29.417 379.635 32.5779C374.894 35.7388 371.199 40.2315 369.017 45.4879C366.835 50.7443 366.264 56.5283 367.376 62.1084C368.489 67.6886 371.234 72.8143 375.266 76.8374C379.298 80.8604 384.435 83.6002 390.027 84.7101C395.619 85.8201 401.415 85.2504 406.683 83.0732C411.951 80.8959 416.453 77.2088 419.621 72.4782C422.789 67.7476 424.48 62.1859 424.48 56.4964C424.471 48.8697 421.431 41.5578 416.026 36.1649C410.622 30.772 403.294 27.7385 395.651 27.7299Z" fill="#3F3D56"/>
<path d="M327.509 131.609C343.633 131.609 356.704 118.566 356.704 102.477C356.704 86.3886 343.633 73.3459 327.509 73.3459C311.386 73.3459 298.315 86.3886 298.315 102.477C298.315 118.566 311.386 131.609 327.509 131.609Z" fill="#D2EFFF"/>
<path d="M313.978 93.0008C315.185 89.1619 317.93 85.641 321.727 84.3432C325.523 83.0454 331.083 85.0224 333.937 87.8609C339.158 93.053 340.432 110.89 336.845 116.527C336.132 116.489 333.67 116.461 332.948 116.434L331.926 113.037V116.401C330.776 116.365 329.616 116.341 328.448 116.327C324.53 116.279 320.784 114.717 317.997 111.969C315.209 109.222 313.598 105.503 313.502 101.595C313.408 97.8557 313.502 94.5137 313.978 93.0008Z" fill="#2F2E41"/>
<path d="M327.076 105.724C331.671 105.724 335.396 102.007 335.396 97.4219C335.396 92.8367 331.671 89.1196 327.076 89.1196C322.481 89.1196 318.756 92.8367 318.756 97.4219C318.756 102.007 322.481 105.724 327.076 105.724Z" fill="#9E616A"/>
<path d="M319.896 90.1305L329.475 85.344C331.434 86.2247 333.121 87.6121 334.361 89.3625C335.601 91.1129 336.349 93.1625 336.528 95.2986L336.767 98.1527L332.755 97.1337L332.316 93.4842L331.634 96.849L329.783 96.379L329.801 90.7132L327.948 96.3749L321.336 94.8591L319.896 90.1305Z" fill="#2F2E41"/>
<path d="M349.173 121.755C344.115 127.498 336.997 131.026 329.356 131.577C321.714 132.128 314.161 129.658 308.328 124.701L310.832 117.729C311.398 116.49 312.291 115.429 313.416 114.659C314.54 113.888 315.853 113.438 317.215 113.355L318.808 113.258L322.606 109.989C322.606 109.989 332.842 109.624 332.69 109.449L338.889 113.171L338.884 113.145L341.321 113.294C342.683 113.376 343.996 113.826 345.121 114.597C346.245 115.367 347.138 116.429 347.704 117.667L349.173 121.755Z" fill="#6C63FF"/>
<path d="M327.509 131.974C321.663 131.974 315.948 130.244 311.086 127.003C306.225 123.762 302.436 119.155 300.199 113.765C297.962 108.375 297.376 102.445 298.517 96.7229C299.658 91.0012 302.473 85.7454 306.607 81.6203C310.741 77.4951 316.008 74.6859 321.742 73.5477C327.476 72.4096 333.42 72.9937 338.821 75.2262C344.223 77.4588 348.839 81.2394 352.087 86.09C355.336 90.9407 357.069 96.6435 357.069 102.477C357.06 110.298 353.943 117.795 348.401 123.325C342.86 128.854 335.346 131.965 327.509 131.974ZM327.509 73.7108C321.807 73.7108 316.234 75.398 311.493 78.5589C306.752 81.7198 303.057 86.2125 300.875 91.4689C298.693 96.7253 298.122 102.509 299.234 108.089C300.347 113.67 303.092 118.795 307.124 122.818C311.156 126.841 316.293 129.581 321.885 130.691C327.477 131.801 333.274 131.231 338.541 129.054C343.809 126.877 348.312 123.19 351.479 118.459C354.647 113.729 356.338 108.167 356.338 102.477C356.329 94.8506 353.289 87.5388 347.885 82.1459C342.48 76.753 335.152 73.7195 327.509 73.7108V73.7108Z" fill="#3F3D56"/>
<path d="M524.649 132.188L520.23 124.539C514.504 125.265 503.482 132.56 503.482 132.56L482.163 138.38C481.509 138.172 480.812 138.14 480.142 138.286C479.471 138.432 478.851 138.752 478.344 139.213C477.837 139.674 477.461 140.261 477.253 140.914C477.045 141.566 477.013 142.262 477.161 142.931C477.308 143.599 477.629 144.218 478.092 144.723C478.555 145.229 479.143 145.604 479.797 145.81C480.452 146.017 481.149 146.048 481.819 145.9C482.489 145.752 483.108 145.431 483.614 144.968L510.958 141.409L524.649 132.188Z" fill="#9E616A"/>
<path d="M523.128 133.574L533.023 125.304L534.463 118.647C534.741 117.339 534.646 115.979 534.19 114.722C533.735 113.465 532.936 112.36 531.884 111.532C530.45 110.419 528.646 109.891 526.837 110.055C525.028 110.219 523.349 111.062 522.139 112.413C518.473 116.516 514.349 122.182 515.522 125.877L515.534 125.914L523.128 133.574Z" fill="#3F3D56"/>
<path d="M371.462 162.305H334.282C333.285 162.304 332.33 161.908 331.625 161.205C330.921 160.502 330.524 159.549 330.523 158.554V135.704C330.524 134.71 330.921 133.756 331.625 133.053C332.33 132.35 333.285 131.955 334.282 131.954H371.462C372.459 131.955 373.414 132.35 374.119 133.053C374.823 133.756 375.22 134.71 375.221 135.704V158.554C375.22 159.549 374.823 160.502 374.119 161.205C373.414 161.908 372.459 162.304 371.462 162.305Z" fill="#CDEAFA"/>
<path d="M356.69 159.361H336.895C335.962 159.36 335.067 158.99 334.407 158.332C333.748 157.673 333.376 156.78 333.375 155.849V138.409C333.376 137.478 333.748 136.585 334.407 135.927C335.067 135.268 335.962 134.898 336.895 134.897H368.849C369.782 134.898 370.677 135.268 371.337 135.927C371.997 136.585 372.368 137.478 372.369 138.409V143.717C372.364 147.864 370.711 151.841 367.771 154.774C364.832 157.707 360.847 159.357 356.69 159.361Z" fill="white"/>
<path d="M365.661 144.447H340.083C339.861 144.447 339.649 144.359 339.493 144.203C339.336 144.047 339.249 143.835 339.249 143.614C339.249 143.393 339.336 143.182 339.493 143.026C339.649 142.869 339.861 142.782 340.083 142.782H365.661C365.883 142.782 366.095 142.869 366.251 143.026C366.408 143.182 366.495 143.393 366.495 143.614C366.495 143.835 366.408 144.047 366.251 144.203C366.095 144.359 365.883 144.447 365.661 144.447Z" fill="#6C63FF"/>
<path d="M344.084 147.736H340.083C339.862 147.736 339.649 147.648 339.493 147.492C339.336 147.336 339.249 147.124 339.249 146.903C339.249 146.683 339.336 146.471 339.493 146.315C339.649 146.159 339.862 146.071 340.083 146.071H344.084C344.305 146.071 344.517 146.159 344.674 146.315C344.83 146.471 344.918 146.683 344.918 146.903C344.918 147.124 344.83 147.336 344.674 147.492C344.517 147.648 344.305 147.736 344.084 147.736Z" fill="#6C63FF"/>
<path d="M351.17 151.025H340.083C339.862 151.025 339.65 150.937 339.494 150.781C339.338 150.625 339.25 150.413 339.25 150.193C339.25 149.972 339.338 149.761 339.494 149.605C339.65 149.449 339.862 149.361 340.083 149.36H351.17C351.391 149.361 351.603 149.449 351.759 149.605C351.915 149.761 352.003 149.972 352.003 150.193C352.003 150.413 351.915 150.625 351.759 150.781C351.603 150.937 351.391 151.025 351.17 151.025Z" fill="#6C63FF"/>
<path d="M329.226 139.347C333.57 139.347 337.091 135.833 337.091 131.499C337.091 127.164 333.57 123.65 329.226 123.65C324.882 123.65 321.361 127.164 321.361 131.499C321.361 135.833 324.882 139.347 329.226 139.347Z" fill="#3F3D56"/>
<path d="M468.012 58.6648H430.831C429.835 58.6636 428.879 58.2682 428.175 57.5651C427.47 56.862 427.074 55.9088 427.073 54.9145V32.064C427.074 31.0697 427.47 30.1165 428.175 29.4134C428.879 28.7103 429.835 28.3148 430.831 28.3137H468.012C469.008 28.3148 469.964 28.7103 470.668 29.4134C471.373 30.1165 471.769 31.0697 471.77 32.064V54.9145C471.769 55.9088 471.373 56.862 470.668 57.5651C469.964 58.2682 469.008 58.6637 468.012 58.6648Z" fill="#CDEAFA"/>
<path d="M453.24 55.7216H433.445C432.512 55.7205 431.617 55.3502 430.957 54.6917C430.297 54.0333 429.926 53.1405 429.925 52.2093V34.7693C429.926 33.8381 430.297 32.9454 430.957 32.2869C431.617 31.6285 432.512 31.2581 433.445 31.2571H465.399C466.332 31.2581 467.227 31.6285 467.886 32.2869C468.546 32.9454 468.917 33.8382 468.918 34.7693V40.0767C468.914 44.2246 467.26 48.2012 464.321 51.1342C461.382 54.0671 457.396 55.7169 453.24 55.7216Z" fill="white"/>
<path d="M462.211 40.8069H436.632C436.411 40.8069 436.199 40.7192 436.042 40.5631C435.886 40.407 435.798 40.1953 435.798 39.9745C435.798 39.7537 435.886 39.542 436.042 39.3859C436.199 39.2298 436.411 39.1421 436.632 39.1421H462.211C462.432 39.1421 462.644 39.2298 462.801 39.3859C462.957 39.542 463.045 39.7537 463.045 39.9745C463.045 40.1953 462.957 40.407 462.801 40.5631C462.644 40.7192 462.432 40.8069 462.211 40.8069Z" fill="#6C63FF"/>
<path d="M440.633 44.096H436.632C436.411 44.096 436.199 44.0083 436.042 43.8522C435.886 43.6961 435.798 43.4844 435.798 43.2636C435.798 43.0428 435.886 42.8311 436.042 42.675C436.199 42.5189 436.411 42.4312 436.632 42.4312H440.633C440.855 42.4312 441.067 42.5189 441.223 42.675C441.38 42.8311 441.468 43.0428 441.468 43.2636C441.468 43.4844 441.38 43.6961 441.223 43.8522C441.067 44.0083 440.855 44.096 440.633 44.096Z" fill="#6C63FF"/>
<path d="M447.72 47.3853H436.632C436.411 47.3849 436.2 47.297 436.044 47.1409C435.887 46.9848 435.8 46.7734 435.8 46.5529C435.8 46.3324 435.887 46.121 436.044 45.9649C436.2 45.8088 436.411 45.7209 436.632 45.7205H447.72C447.941 45.7205 448.153 45.8082 448.31 45.9643C448.466 46.1204 448.554 46.3321 448.554 46.5529C448.554 46.7737 448.466 46.9854 448.31 47.1415C448.153 47.2976 447.941 47.3853 447.72 47.3853Z" fill="#6C63FF"/>
<path d="M425.775 63.0766C430.119 63.0766 433.641 59.5628 433.641 55.2284C433.641 50.8939 430.119 47.3801 425.775 47.3801C421.432 47.3801 417.91 50.8939 417.91 55.2284C417.91 59.5628 421.432 63.0766 425.775 63.0766Z" fill="#3F3D56"/>
</g>
<defs>
<clipPath id="clip0_701_459">
<rect width="295" height="255" fill="white" transform="translate(290 27)"/>
</clipPath>
</defs>
</svg>
