<svg width="105" height="225" viewBox="0 0 105 225" fill="none" xmlns="http://www.w3.org/2000/svg">
<path d="M87.2138 44.5986C81.9099 38.6865 74.5986 35.3731 67.4356 32.8952C65.5898 32.2576 64.0628 32.4508 63.488 30.3256C63.0569 28.7172 61.7635 27.5 60.3129 26.8914C58.8623 26.2828 57.2681 26.2103 55.7187 26.2876C51.3624 26.4953 47.0511 27.8091 43.2428 30.0938C41.5632 31.1032 39.888 32.4122 39.2054 34.3443C38.7339 35.6822 38.7877 37.1602 38.5183 38.5658C37.9704 41.4204 35.6126 41.6667 33.8118 43.3573C32.0199 45.0381 29.6127 47.0958 28.4136 49.308C27.0529 51.8196 26.0738 54.6018 24.6547 57.1231C23.02 60.0212 21.3718 62.6053 20.5949 65.8994C19.9033 68.8313 19.5171 71.8501 19.4497 74.8786C19.315 80.9114 20.4467 86.9925 22.9392 92.4119C25.8628 98.7635 31.225 103.908 37.2069 106.782C38.6844 107.492 40.3865 107.752 41.8236 108.472C42.9553 109.042 42.7623 108.554 43.364 109.67C43.6649 110.23 43.6649 111.539 43.858 112.23C44.8101 115.582 44.5092 119.011 45.2906 122.421C46.1709 126.31 48.093 130.077 51.2142 132.246C54.3399 134.415 58.7725 134.622 61.6377 132.072C64.2784 129.725 65.0778 125.614 64.503 121.982C63.9281 118.35 62.2036 115.065 60.506 111.863C73.2603 111.534 85.606 103.483 91.7765 91.4749C94.2915 94.3536 99.1507 93.5132 101.441 90.4268C103.731 87.3403 103.776 82.858 102.492 79.1533C101.208 75.4486 98.7959 72.3525 96.4247 69.3385C96.4741 60.2289 93.0924 51.1531 87.2138 44.5986Z" fill="white"/>
<path d="M51.0077 162.144C49.5751 162.424 46.6964 162.279 45.6185 163.284C44.7697 164.076 44.7697 165.82 44.7607 166.907C44.7383 169.592 45.4479 172.205 45.6724 174.833C45.9868 178.489 45.9014 182.382 44.1679 185.551C43.6335 186.531 42.9509 187.415 42.4928 188.439C42.0347 189.463 41.8191 190.695 42.2682 191.724C42.623 192.535 43.3281 193.091 44.0062 193.608C46.9298 195.849 49.849 198.09 52.7726 200.336C53.5001 200.896 54.2726 201.471 55.1618 201.587C56.9762 201.814 58.4671 200.061 59.3294 198.331C60.2949 196.399 61.0494 194.129 62.8368 193.076C64.3144 192.207 66.1063 192.415 67.7859 192.535C72.0882 192.84 76.4399 192.376 80.603 191.178C81.4967 190.922 82.4803 190.54 82.862 189.637C83.3919 188.391 82.4758 187.014 82.35 185.652C82.1749 183.802 83.5177 182.131 85.0536 181.281C86.5895 180.431 88.3455 180.156 89.9802 179.547C91.6149 178.939 93.2541 177.832 93.802 176.069C94.3948 174.162 93.5505 172.118 92.7242 170.312C91.2242 167.027 89.7197 163.743 88.2197 160.458C87.5416 158.976 86.5715 157.285 85.0401 157.246C84.1734 157.222 83.3964 157.763 82.6779 158.28C80.3021 159.995 77.9264 161.709 75.5552 163.419C75.7663 161.396 76.7229 159.56 77.2573 157.609C77.7917 155.657 77.8007 153.281 76.4265 151.88C75.5552 150.991 74.3157 150.692 73.1436 150.431C69.4206 149.61 65.6796 148.876 61.9252 148.233C61.0539 148.084 60.1468 147.939 59.2935 148.185C58.0854 148.528 57.1513 149.625 56.6483 150.856C56.1453 152.088 56.0151 153.455 55.9477 154.798C55.831 157.039 55.7187 159.608 54.075 160.99C53.2082 161.719 52.081 161.951 51.0032 162.159L51.0077 162.144Z" fill="white"/>
<path d="M30.0839 99.8744C25.7816 95.2665 23.105 89.1612 21.5781 82.9062C20.1994 77.2405 20.114 71.2367 21.7622 65.6192C23.388 60.0743 26.7966 55.2297 31.5795 52.4378C36.1468 49.7765 41.5808 49.2403 46.6421 50.2353C56.6659 52.206 65.5894 59.7023 69.4292 69.918C71.284 74.8496 71.9711 80.298 71.2166 85.5676C70.817 88.3594 70.0849 91.1609 68.9173 93.6967C67.7317 96.276 66.1329 98.609 64.2422 100.638C60.4832 104.676 55.4399 107.709 50.0822 108.187C44.1541 108.714 38.2844 106.622 33.4746 102.946C32.2666 102.024 31.1438 100.99 30.0884 99.8744C29.1588 98.8939 27.7307 100.43 28.6603 101.41C33.2097 106.212 39.1332 109.482 45.4879 110.274C51.4385 111.018 57.3081 109.143 62.1404 105.395C66.9098 101.695 70.507 96.5465 72.2405 90.4847C73.8303 84.9107 73.9426 78.9021 72.5864 73.2605C71.2525 67.7203 68.5266 62.5956 64.8619 58.461C61.0356 54.1477 56.1764 50.926 50.8906 49.134C45.5688 47.3324 39.6677 46.975 34.3144 48.8394C28.9612 50.7038 24.1424 55.0896 21.4793 60.6829C18.8072 66.2858 18.0257 72.7823 18.7981 78.989C19.2023 82.2204 20.0287 85.3986 21.111 88.4416C22.2607 91.6632 23.7203 94.769 25.611 97.5656C26.5361 98.9277 27.5421 100.222 28.6558 101.415C29.5765 102.405 31.0091 100.869 30.0839 99.8793V99.8744Z" fill="#181755"/>
<path d="M90.9591 92.4699C86.8903 98.9858 81.1104 104.188 74.4728 107.424C67.7903 110.684 60.214 111.713 52.9476 110.892C48.9058 110.433 44.8594 109.332 41.2217 107.356C40.0631 106.728 39.0391 108.603 40.2023 109.235C47.1453 112.998 55.3278 113.954 62.9849 112.988C70.642 112.022 77.859 108.878 83.9487 103.743C87.3484 100.874 90.3034 97.4256 92.7106 93.5664C93.4381 92.4023 91.6866 91.3107 90.9636 92.4699H90.9591Z" fill="#181755"/>
<path d="M101.751 80.2883C102.258 82.23 102.608 84.2586 102.159 86.2487C101.782 87.915 100.965 89.5235 99.6937 90.5958C97.062 92.8176 93.1864 91.7212 91.2373 89.0453C90.0517 87.4175 89.4903 85.2778 89.2702 83.2588C89.0277 81.0418 89.0547 78.7137 89.3151 76.5015C89.5487 74.5453 90.1639 72.4683 91.6729 71.2125C92.8405 70.2416 94.3405 70.0967 95.6744 70.7295C97.2462 71.4733 98.4363 72.9948 99.348 74.5115C100.417 76.2986 101.198 78.2548 101.751 80.2931C102.114 81.6311 104.063 81.0611 103.7 79.7135C102.64 75.7963 100.682 71.3671 97.3001 69.1983C95.6923 68.1647 93.6849 67.8218 91.9199 68.5897C89.7598 69.5316 88.3586 71.7003 87.7298 74.0478C87.0652 76.5305 87.0203 79.3223 87.146 81.8871C87.2763 84.4615 87.7478 87.1229 89.0008 89.3593C91.161 93.2233 95.8271 95.1747 99.7207 93.1316C101.737 92.0738 103.147 89.9582 103.866 87.717C104.71 85.0894 104.387 82.3363 103.7 79.7087C103.349 78.3659 101.396 78.9359 101.751 80.2883Z" fill="#181755"/>
<path d="M98.2974 69.0823C98.2974 61.9096 95.2929 54.8866 91.4576 49.1581C87.5595 43.3282 82.4083 38.5946 76.3456 35.5565C72.9145 33.837 69.2723 32.6439 65.5224 32.0788C64.9834 31.9967 64.4355 32.2189 64.2783 32.8371C64.1481 33.3443 64.4401 34.093 64.9835 34.1751C71.3157 35.1363 77.392 37.8605 82.4398 42.0868C87.4293 46.2697 91.3813 51.9209 93.9232 58.1373C95.3288 61.5763 96.2674 65.31 96.2719 69.0823C96.2719 70.4831 98.2929 70.4831 98.2929 69.0823H98.2974Z" fill="#181755"/>
<path d="M66.5909 86.6979C65.293 92.5471 62.2257 97.7395 57.4338 101.019C49.0088 106.796 38.6616 103.376 31.8623 96.4016C24.0166 88.3498 22.3415 75.7963 26.4597 65.0396C30.8833 53.4908 42.9909 51.4815 52.6689 56.5531C61.7272 61.3011 68.1313 71.768 67.1926 82.7662C67.0804 84.0993 66.8783 85.4131 66.5954 86.6931L66.5909 86.6979Z" fill="#181755"/>
<path d="M65.6208 86.4081C64.525 91.2817 62.1493 95.7302 58.4892 98.8891C54.8605 102.024 50.2303 103.352 45.6316 102.695C36.5284 101.386 28.6872 93.6243 26.2352 84.22C25.0226 79.559 25.0046 74.5839 26.06 69.8842C27.039 65.5371 28.8264 61.3494 32.1767 58.5528C38.3562 53.3894 47.2349 54.3892 53.6884 58.3692C61.4039 63.1269 66.784 72.3428 66.2316 82.0513C66.1463 83.5245 65.9307 84.9784 65.6163 86.4129C65.3199 87.775 67.2691 88.3546 67.5655 86.9925C68.7556 81.5297 68.4277 75.8977 66.4113 70.7102C64.5251 65.8559 61.4218 61.673 57.5281 58.5045C50.7692 52.9981 40.97 50.7521 33.2276 55.2393C29.3294 57.4998 26.6708 61.3011 25.1393 65.7062C23.4103 70.6764 22.8759 76.0813 23.599 81.3268C24.322 86.5723 26.4013 91.47 29.6124 95.4404C32.8863 99.488 37.3458 102.608 42.1422 104.106C46.9834 105.617 52.2153 105.294 56.7018 102.739C61.2197 100.169 64.5834 95.735 66.4786 90.6779C66.9277 89.4752 67.287 88.2435 67.57 86.9829C67.8753 85.6256 65.9262 85.046 65.6208 86.4033V86.4081Z" fill="#181755"/>
<path d="M38.6572 38.2276C35.6842 40.4978 32.801 42.9466 30.3444 45.8592C27.8744 48.7911 25.9388 52.1142 24.5196 55.7561C24.3085 56.2971 24.7487 56.954 25.2247 57.0941C25.8086 57.2679 26.2577 56.8767 26.4687 56.3357C27.7666 52.9981 29.6169 49.931 31.8848 47.2648C34.1527 44.5985 36.8877 42.2318 39.6766 40.1065C40.1212 39.7684 40.3323 39.1598 40.0404 38.6189C39.7844 38.1455 39.1063 37.8895 38.6572 38.2276Z" fill="#181755"/>
<path d="M68.401 64.1606C70.9518 62.8371 73.5026 61.5185 76.058 60.195C76.9427 59.7362 77.9487 59.2918 78.528 58.3837C79.1523 57.408 78.8604 56.3213 78.326 55.3842C77.1628 53.3508 75.564 51.4332 73.8664 49.902C73.1793 49.2838 72.4024 48.6607 71.9398 47.8203C71.3246 46.7142 72.0521 45.9993 72.9548 45.4921C75.7347 43.9417 78.555 42.4782 81.3529 40.9712C81.8693 40.691 81.4157 39.8602 80.8993 40.1355C78.4068 41.4783 75.9188 42.8163 73.4263 44.159C72.5326 44.642 71.3874 45.0961 70.9473 46.149C70.606 46.9653 70.8485 47.8492 71.3066 48.5496C71.8275 49.3466 72.5371 49.9648 73.2287 50.5831C74.0281 51.3028 74.7511 52.1191 75.4517 52.9547C76.2871 53.9497 77.1538 55.022 77.7376 56.215C78.3798 57.5385 77.5131 58.3258 76.4802 58.8957C73.6778 60.4462 70.7901 61.8469 67.9474 63.3201C67.4264 63.5906 67.88 64.4214 68.401 64.1557V64.1606Z" fill="#181755"/>
<path d="M77.8096 91.5908C77.6614 91.4604 77.5537 91.33 77.4638 91.1609C77.4144 91.0643 77.383 90.9967 77.3561 90.9001C77.3426 90.8566 77.3336 90.8131 77.3246 90.7697C77.3246 90.7503 77.2932 90.6006 77.3022 90.6586C77.2797 90.4895 77.2887 90.2432 77.3112 90.1418C77.3561 89.9244 77.401 89.7602 77.4863 89.5959C77.8231 88.9342 78.5597 88.5671 79.2288 88.7845C79.4893 88.8714 79.7093 89.0598 79.8441 89.2868C79.889 89.3641 79.9339 89.4462 79.9653 89.5332C79.9339 89.4607 79.9653 89.5332 79.9653 89.5476C79.9788 89.5911 79.9923 89.6346 80.0057 89.6829C80.0327 89.7747 80.0506 89.8664 80.0641 89.9582C80.0641 89.9727 80.0731 90.05 80.0641 89.9727C80.0686 90.0355 80.0731 90.0983 80.0776 90.1659C80.0776 90.248 80.0776 90.3253 80.0731 90.4074C80.0731 90.4122 80.0551 90.5716 80.0731 90.4702C80.0686 90.5185 80.0596 90.5668 80.0506 90.6103C80.0327 90.6876 80.0147 90.7648 79.9922 90.8421C79.9922 90.847 79.9384 90.9919 79.9743 90.9001C79.9519 90.958 79.9249 91.0112 79.898 91.0643C79.7632 91.3203 79.597 91.4942 79.368 91.6343C79.3411 91.6536 79.3096 91.6681 79.2827 91.6826C79.2602 91.6971 79.2333 91.7067 79.2108 91.7212C79.2557 91.7019 79.2557 91.7019 79.2108 91.7212C79.1345 91.7502 79.0626 91.7792 78.9863 91.7985C78.9459 91.8081 78.9099 91.8178 78.8695 91.8275C78.8426 91.8323 78.8157 91.8371 78.7932 91.8419C78.8471 91.8323 78.8471 91.8323 78.7932 91.8419C78.7124 91.8419 78.636 91.8516 78.5597 91.8516C78.5192 91.8516 78.4833 91.8468 78.4429 91.8419C78.3351 91.8371 78.5013 91.8564 78.407 91.8419C78.3172 91.8226 78.2273 91.8033 78.142 91.7695C78.142 91.7695 78.0252 91.7212 78.0881 91.7502C78.1375 91.7695 78.0118 91.7115 77.9983 91.7019C77.9624 91.6826 77.9309 91.6632 77.895 91.6391C77.8815 91.6294 77.7468 91.528 77.8231 91.5908C77.63 91.4314 77.374 91.3879 77.1899 91.5908C77.0372 91.755 76.9968 92.1124 77.1899 92.2718C77.859 92.8273 78.7393 92.9722 79.5252 92.6244C80.392 92.238 80.9174 91.4072 80.9848 90.4074C81.0522 89.451 80.621 88.4029 79.7812 87.9875C78.7572 87.4804 77.5447 87.8764 76.88 88.8376C76.1705 89.8616 76.2423 91.4411 77.1899 92.2718C77.3785 92.4361 77.6435 92.4699 77.8231 92.2718C77.9803 92.1028 78.0118 91.755 77.8231 91.5908H77.8096Z" fill="#181755"/>
<path d="M77.8096 75.1394C77.6614 75.009 77.5537 74.8786 77.4638 74.7095C77.4144 74.6129 77.383 74.5453 77.3561 74.4487C77.3426 74.4052 77.3336 74.3617 77.3246 74.3183C77.3246 74.2989 77.2932 74.1492 77.3022 74.2072C77.2797 74.0381 77.2887 73.7918 77.3112 73.6904C77.3561 73.473 77.401 73.3088 77.4863 73.1445C77.8231 72.4828 78.5597 72.1157 79.2288 72.3331C79.4893 72.42 79.7093 72.6084 79.8441 72.8354C79.889 72.9127 79.9339 72.9948 79.9653 73.0818C79.9339 73.0093 79.9653 73.0818 79.9653 73.0962C79.9788 73.1397 79.9923 73.1832 80.0057 73.2315C80.0327 73.3233 80.0506 73.415 80.0641 73.5068C80.0641 73.5213 80.0731 73.5986 80.0641 73.5213C80.0686 73.5841 80.0731 73.6469 80.0776 73.7145C80.0776 73.7966 80.0776 73.8739 80.0731 73.956C80.0731 73.9608 80.0551 74.1202 80.0731 74.0188C80.0686 74.0671 80.0596 74.1154 80.0506 74.1589C80.0327 74.2362 80.0147 74.3134 79.9922 74.3907C79.9922 74.3956 79.9384 74.5405 79.9743 74.4487C79.9519 74.5066 79.9249 74.5598 79.898 74.6129C79.7632 74.8689 79.597 75.0428 79.368 75.1829C79.3411 75.2022 79.3096 75.2167 79.2827 75.2312C79.2602 75.2456 79.2333 75.2553 79.2108 75.2698C79.2557 75.2505 79.2557 75.2505 79.2108 75.2698C79.1345 75.2988 79.0626 75.3278 78.9863 75.3471C78.9459 75.3567 78.9099 75.3664 78.8695 75.3761C78.8426 75.3809 78.8157 75.3857 78.7932 75.3905C78.8471 75.3809 78.8471 75.3809 78.7932 75.3905C78.7124 75.3905 78.636 75.4002 78.5597 75.4002C78.5192 75.4002 78.4833 75.3954 78.4429 75.3905C78.3351 75.3857 78.5013 75.405 78.407 75.3905C78.3172 75.3712 78.2273 75.3519 78.142 75.3181C78.142 75.3181 78.0252 75.2698 78.0881 75.2988C78.1375 75.3181 78.0118 75.2601 77.9983 75.2505C77.9624 75.2312 77.9309 75.2118 77.895 75.1877C77.8815 75.178 77.7468 75.0766 77.8231 75.1394C77.63 74.98 77.374 74.9365 77.1899 75.1394C77.0372 75.3036 76.9968 75.661 77.1899 75.8204C77.859 76.3759 78.7393 76.5208 79.5252 76.173C80.392 75.7866 80.9174 74.9558 80.9848 73.956C81.0522 72.9996 80.621 71.9515 79.7812 71.5361C78.7572 71.029 77.5447 71.425 76.88 72.3862C76.1705 73.4102 76.2423 74.9897 77.1899 75.8204C77.3785 75.9847 77.6435 76.0185 77.8231 75.8204C77.9803 75.6514 78.0118 75.3036 77.8231 75.1394H77.8096Z" fill="#181755"/>
<path d="M77.4727 81.3074C77.5939 81.148 77.7152 81.0321 77.8724 80.9355C77.9622 80.8823 78.0251 80.8485 78.1149 80.8195C78.1553 80.8051 78.1958 80.7954 78.2362 80.7857C78.2541 80.7857 78.3934 80.7519 78.3395 80.7616C78.4966 80.7374 78.7257 80.7471 78.82 80.7712C79.0221 80.8195 79.1748 80.8678 79.3275 80.9596C79.9427 81.3219 80.2841 82.114 80.082 82.8337C80.0011 83.1138 79.826 83.3505 79.6149 83.4954C79.543 83.5437 79.4667 83.592 79.3858 83.6258C79.4532 83.592 79.3858 83.6258 79.3724 83.6258C79.3319 83.6403 79.2916 83.6548 79.2466 83.6693C79.1613 83.6983 79.076 83.7176 78.9906 83.7321C78.9772 83.7321 78.9053 83.7418 78.9771 83.7321C78.9188 83.7369 78.8604 83.7418 78.7976 83.7466C78.7212 83.7466 78.6494 83.7466 78.573 83.7418C78.5685 83.7418 78.4203 83.7224 78.5146 83.7418C78.4697 83.7369 78.4248 83.7273 78.3844 83.7176C78.3125 83.6983 78.2407 83.679 78.1688 83.6548C78.1643 83.6548 78.0296 83.5969 78.1149 83.6355C78.061 83.6114 78.0116 83.5824 77.9622 83.5534C77.7242 83.4085 77.5625 83.2298 77.4323 82.9834C77.4143 82.9545 77.4009 82.9206 77.3874 82.8917C77.3739 82.8675 77.3649 82.8385 77.3514 82.8144C77.3694 82.8627 77.3694 82.8627 77.3514 82.8144C77.3245 82.7323 77.2976 82.655 77.2796 82.5729C77.2706 82.5294 77.2616 82.4908 77.2526 82.4473C77.2481 82.4183 77.2436 82.3893 77.2391 82.3652C77.2481 82.4231 77.2481 82.4231 77.2391 82.3652C77.2391 82.2782 77.2302 82.1961 77.2302 82.114C77.2302 82.0705 77.2347 82.0319 77.2391 81.9884C77.2436 81.8725 77.2257 82.0512 77.2391 81.9498C77.2571 81.8532 77.2751 81.7566 77.3065 81.6648C77.3065 81.6648 77.3515 81.5392 77.3245 81.6069C77.3065 81.66 77.3604 81.5247 77.3694 81.5103C77.3874 81.4716 77.4053 81.4378 77.4278 81.3992C77.4368 81.3847 77.5311 81.2398 77.4727 81.3219C77.6209 81.1142 77.6613 80.8389 77.4727 80.6408C77.32 80.4766 76.9876 80.4331 76.8394 80.6408C76.323 81.3605 76.1883 82.3072 76.5116 83.1525C76.8709 84.0847 77.6434 84.6498 78.573 84.7223C79.5026 84.7947 80.4368 84.331 80.823 83.4278C81.2945 82.3265 80.9263 81.0224 80.0326 80.3076C79.0805 79.5444 77.6119 79.6217 76.8394 80.6408C76.6868 80.8437 76.6553 81.1287 76.8394 81.3219C76.9966 81.4909 77.32 81.5247 77.4727 81.3219V81.3074Z" fill="#181755"/>
<path d="M35.8955 81.9996C37.3948 81.3131 37.9921 79.1947 37.2294 77.2679C36.4668 75.3412 34.6331 74.3358 33.1337 75.0223C31.6344 75.7088 31.0372 77.8272 31.7998 79.7539C32.5625 81.6807 34.3961 82.6861 35.8955 81.9996Z" fill="white" stroke="#181755" stroke-width="0.91" stroke-miterlimit="10"/>
<path d="M49.9922 75.5429C51.4915 74.8564 52.0887 72.7379 51.3261 70.8112C50.5635 68.8845 48.7297 67.8791 47.2304 68.5655C45.7311 69.252 45.1339 71.3705 45.8965 73.2972C46.6591 75.2239 48.4928 76.2294 49.9922 75.5429Z" fill="white" stroke="#181755" stroke-width="0.91" stroke-miterlimit="10"/>
<path d="M48.5419 85.046C48.7081 85.5242 48.9146 86.0072 49.0045 86.5095C49.1571 87.3548 48.9191 88.2628 48.3982 88.9149C47.3069 90.277 45.2815 90.2383 44.2396 88.8328C43.8758 88.3401 43.7096 87.7074 43.512 87.1229C43.3638 86.693 42.7171 86.8814 42.8698 87.3113C43.0809 87.9247 43.256 88.5864 43.6198 89.1274C44.1767 89.9534 45.021 90.4943 45.9641 90.6151C47.8907 90.8711 49.6377 89.224 49.7141 87.1519C49.7455 86.3356 49.4446 85.6063 49.1886 84.8576C49.0404 84.4277 48.3937 84.6161 48.5464 85.046H48.5419Z" fill="white"/>
<path d="M44.1768 28.9392C42.4478 29.3498 40.7008 30.0453 39.394 31.3736C38.0871 32.7019 37.346 34.8609 37.5571 36.8654C37.7862 39.0148 38.8595 40.8938 40.4987 42.1351C42.349 43.5358 44.7831 43.787 46.9791 43.6276C49.1752 43.4682 51.4971 43.0142 53.6752 42.4104C55.8533 41.8067 58.0494 40.9324 60.0119 39.6862C61.7948 38.556 63.5328 37.0635 64.3322 34.9479C65.0777 32.9772 64.5927 30.707 63.6182 28.9199C61.5388 25.1041 57.1871 24.679 53.5764 25.819C52.3324 26.2102 52.8623 28.3113 54.1153 27.9152C56.5359 27.1521 59.491 27.0168 61.3143 29.1807C62.1855 30.2144 62.8547 31.9387 62.6751 33.3443C62.464 35.0058 61.1212 36.3148 59.8996 37.1987C56.6617 39.551 52.7905 40.5846 48.9732 41.2125C45.7801 41.7342 41.4014 41.8839 39.9014 38.0681C39.2861 36.5032 39.4568 34.5228 40.5391 33.2332C41.6125 31.9532 43.2023 31.3977 44.7202 31.0355C45.9912 30.736 45.4522 28.6398 44.1813 28.9392H44.1768Z" fill="#181755"/>
<path d="M53.5991 28.6255C53.5048 26.7997 52.8266 22.9356 51.1515 21.9647C50.7339 21.7232 50.2489 21.646 49.7728 21.6025C48.7129 21.5011 47.6216 21.5349 46.6246 21.9213C42.7175 23.4379 44.2175 26.7079 45.0213 29.833C45.2279 30.6348 45.4884 31.5091 46.1531 31.9293C46.5393 32.1708 47.0019 32.2143 47.4465 32.2336C49.4225 32.3205 51.5602 31.9389 52.9524 30.4319C53.2174 30.147 53.4554 29.8089 53.5497 29.4176C53.6125 29.1616 53.6081 28.8911 53.5946 28.6255H53.5991Z" fill="#181755"/>
<path d="M54.6094 28.6254C54.4926 26.5147 54.075 24.0368 52.8983 22.2883C52.5795 21.8149 52.2157 21.3851 51.7442 21.0759C51.1244 20.675 50.3969 20.5688 49.6873 20.5108C48.1649 20.3804 46.6469 20.5929 45.2906 21.3754C44.3206 21.9357 43.5392 22.8293 43.2158 23.9788C42.9284 25.0173 43.0541 26.1379 43.2697 27.1764C43.4987 28.2728 43.8266 29.3499 44.1275 30.4222C44.3251 31.1226 44.5901 31.8133 45.0572 32.3591C45.6185 33.0112 46.4 33.2382 47.1949 33.3058C48.6679 33.4266 50.2442 33.243 51.6139 32.6344C53.1948 31.9292 54.6812 30.6154 54.6094 28.6254C54.56 27.2295 52.539 27.2247 52.5884 28.6254C52.6109 29.2243 52.4403 29.4997 52.0181 29.8861C51.6634 30.2145 51.2367 30.4754 50.7966 30.6589C49.831 31.0646 48.7802 31.1757 47.7517 31.1564C47.3565 31.1516 46.8355 31.195 46.5301 30.8811C46.2113 30.5478 46.108 29.9875 45.9913 29.5431C45.7622 28.6785 45.4972 27.8284 45.2951 26.959C45.12 26.2152 44.9898 25.5341 45.0841 24.8772C45.1155 24.6695 45.2278 24.3411 45.3131 24.1817C45.4344 23.9595 45.6904 23.6601 45.9598 23.4668C46.885 22.81 47.9673 22.6119 49.0586 22.6409C49.5481 22.6554 50.1319 22.6457 50.59 22.8679C50.6484 22.8969 50.9313 23.1191 50.8235 23.0225C50.8864 23.0804 50.9448 23.1432 51.0032 23.2109C51.0301 23.2398 51.2232 23.4862 51.1469 23.3799C51.6903 24.1527 51.9508 25.0366 52.1798 25.9785C52.3011 26.4857 52.3998 26.9977 52.4762 27.5145C52.5211 27.8188 52.5571 28.181 52.584 28.6206C52.6603 30.0117 54.6813 30.0213 54.6049 28.6206L54.6094 28.6254Z" fill="#181755"/>
<path d="M40.6153 34.8755C42.8608 36.7834 45.8472 37.1457 48.6136 36.8269C51.6495 36.4743 54.627 35.3489 57.0836 33.3782C58.3994 32.3204 59.4998 31.0066 59.7647 29.205C59.8545 28.5964 58.9878 28.3356 58.898 28.949C58.6105 30.91 57.2318 32.1755 55.7498 33.1947C54.2049 34.2621 52.4983 35.0108 50.7109 35.4648C47.6661 36.2376 43.8398 36.397 41.244 34.1897C40.7949 33.8081 40.1572 34.4891 40.6108 34.8707L40.6153 34.8755Z" fill="#181755"/>
<path d="M93.0474 64.3248C91.8663 58.717 89.4187 53.5391 85.516 49.5591C85.0984 49.1292 84.4606 49.8151 84.8828 50.2402C88.6777 54.1139 91.0354 59.1228 92.1851 64.576C92.3108 65.1797 93.1776 64.9237 93.0519 64.32L93.0474 64.3248Z" fill="#181755"/>
<path d="M90.1056 63.774C89.2972 61.784 88.7179 59.6732 87.5548 57.8716C87.2269 57.3645 86.4499 57.8475 86.7778 58.3595C87.9409 60.1611 88.5203 62.2719 89.3287 64.2619C89.4275 64.4985 89.7508 64.5565 89.9439 64.4357C90.173 64.2908 90.2044 64.0155 90.1056 63.774Z" fill="#181755"/>
<path d="M86.9933 55.9541C86.7957 55.6015 86.6026 55.2538 86.405 54.9012C86.3466 54.7949 86.2478 54.7128 86.1356 54.679C86.0233 54.6452 85.884 54.6597 85.7897 54.7273C85.6954 54.7949 85.6101 54.8915 85.5832 55.0171C85.5562 55.1427 85.5652 55.2779 85.6281 55.389C85.8257 55.7416 86.0188 56.0894 86.2164 56.442C86.2747 56.5483 86.3736 56.6304 86.4859 56.6642C86.5981 56.698 86.7373 56.6835 86.8316 56.6159C86.9259 56.5483 87.0113 56.4517 87.0382 56.3261C87.0652 56.2005 87.0562 56.0652 86.9933 55.9541Z" fill="#181755"/>
<path d="M62.0821 192.043C61.0626 193.844 60.0387 195.641 59.0193 197.443C58.5342 198.298 58.0672 199.167 57.5597 200.008C57.416 200.249 57.2363 200.563 56.9983 200.708C56.7603 200.853 56.6256 200.742 56.3966 200.626C53.0104 198.882 49.7499 196.728 46.5883 194.564C45.8068 194.028 45.0299 193.487 44.2575 192.931C43.6647 192.506 42.9371 192.067 42.5644 191.386C41.9087 190.173 43.1033 188.536 43.6691 187.546C44.6437 185.836 45.5734 184.088 46.5209 182.358C47.473 180.624 48.3487 178.803 49.4041 177.147C49.8936 176.379 50.3517 176.152 51.1915 176.437C52.1256 176.755 52.9834 177.301 53.8232 177.833C55.7453 179.055 57.6585 180.291 59.5761 181.523C60.6944 182.242 61.7138 180.364 60.5956 179.644C58.678 178.412 56.7648 177.176 54.8426 175.954C53.2304 174.93 50.931 173.36 49.0628 174.519C48.3397 174.968 47.8278 175.731 47.4012 176.48C46.8353 177.475 46.2964 178.489 45.744 179.494C44.6078 181.566 43.4716 183.634 42.3353 185.706C41.5 187.227 40.3369 188.85 40.3683 190.71C40.4042 192.965 42.3129 194.144 43.8668 195.245C47.4101 197.752 51.0703 200.07 54.8292 202.186C55.8442 202.756 56.8546 203.278 57.9549 202.616C58.8621 202.07 59.374 200.983 59.8995 200.061C61.2108 197.752 62.5177 195.443 63.8291 193.134C64.5072 191.936 62.7602 190.845 62.0821 192.038V192.043Z" fill="#181755"/>
<path d="M78.5281 169.249C78.0521 169.167 77.5671 169.177 77.082 169.187C75.0162 169.23 73.0042 169.486 70.9474 169.703C68.154 169.998 65.3562 170.298 62.5628 170.592C61.9296 170.66 61.2694 170.737 60.7304 171.104C59.7828 171.747 59.9131 173.2 59.8772 174.253C59.8278 175.654 59.8322 177.06 59.8861 178.46C59.9984 181.305 60.3218 184.141 60.8562 186.933C61.1391 188.415 61.4894 189.903 62.1137 191.26C62.2754 191.613 62.4685 191.97 62.7694 192.193C63.0702 192.415 63.5059 192.477 63.7933 192.226C64.1301 191.936 64.1167 191.391 64.0762 190.927C63.6002 185.628 63.1196 180.335 62.6436 175.036C62.5852 174.408 62.5628 173.688 62.9894 173.258C63.2858 172.959 63.7125 172.891 64.1166 172.838C69.672 172.104 75.2273 171.408 80.7781 170.636C80.558 169.945 79.3769 169.443 78.7706 169.298C78.6898 169.278 78.6134 169.264 78.5326 169.249H78.5281Z" fill="#181755"/>
<path d="M59.9266 172.703C60.3622 172.804 60.8024 172.901 61.229 173.026C61.6556 173.152 62.0733 173.326 62.4864 173.514C62.702 173.611 62.9894 173.408 63.0388 173.176C63.0972 172.891 62.958 172.688 62.7245 172.582C62.3158 172.394 61.8981 172.225 61.467 172.094C61.0358 171.964 60.6003 171.872 60.1646 171.771C59.9356 171.717 59.6661 171.843 59.6122 172.109C59.5628 172.35 59.6796 172.645 59.9266 172.703Z" fill="white"/>
<path d="M80.7422 189.715C78.0836 190.144 75.4025 190.434 72.7348 190.792C71.3651 190.975 69.9954 191.164 68.6301 191.366C67.4131 191.55 66.1511 191.893 64.9161 191.84C64.0179 191.801 63.0658 191.376 62.6347 190.473C62.3967 189.971 62.3293 189.372 62.2574 188.816C62.1631 188.101 62.0778 187.386 61.997 186.667C61.6691 183.822 61.4715 180.958 61.1257 178.113C60.964 176.779 60.8024 175.432 60.8248 174.084C60.8338 173.485 60.8697 172.882 61.0089 172.302C61.1481 171.722 61.6511 171.804 62.1316 171.751C64.8577 171.447 67.5882 171.143 70.3142 170.838C72.8426 170.558 75.4249 170.119 77.9713 170.394C78.5281 170.452 79.0805 170.573 79.615 170.737C79.8979 170.824 80.1763 170.921 80.4458 171.036C80.5311 171.07 80.612 171.119 80.6928 171.152C80.8545 171.254 80.8545 171.249 80.6928 171.138L80.7242 171.336C80.6793 171.645 80.85 172.191 80.8949 172.505C80.9398 172.819 80.9847 173.128 81.0251 173.437C81.1329 174.215 81.2362 174.997 81.3395 175.775C81.7571 179.03 82.103 182.3 82.3769 185.575C82.4398 186.314 82.5206 187.058 82.5476 187.802C82.5611 188.237 82.5476 188.676 82.4218 188.956C82.4757 188.835 82.323 189.125 82.332 189.111C82.4308 188.966 82.2736 189.178 82.2422 189.203C82.2197 189.222 82.094 189.323 82.2197 189.227C82.1389 189.29 82.0446 189.347 81.9547 189.391C81.6898 189.526 81.1374 189.647 80.7377 189.715C80.1988 189.811 79.8979 190.531 80.0327 191.052C80.1898 191.671 80.7332 191.907 81.2766 191.811C82.1703 191.656 83.091 191.376 83.7466 190.661C84.4337 189.908 84.6089 188.811 84.573 187.797C84.4652 184.551 84.0251 181.276 83.6478 178.055C83.4547 176.398 83.2436 174.741 83.0146 173.084C82.9023 172.278 82.8215 171.452 82.6643 170.65C82.5072 169.848 82.067 169.423 81.4069 169.119C78.7886 167.902 75.892 168.051 73.1121 168.346C70.0403 168.675 66.9684 169.032 63.8966 169.375C63.1287 169.462 62.3652 169.534 61.5972 169.631C60.9012 169.718 60.2051 169.853 59.6886 170.413C58.7455 171.433 58.7725 173.389 58.8039 174.722C58.8398 176.253 59.0733 177.765 59.244 179.281C59.4236 180.875 59.5314 182.484 59.6931 184.083C59.8637 185.739 60.0524 187.396 60.2634 189.053C60.4521 190.531 60.7889 191.883 61.9161 192.859C63.0433 193.835 64.5029 194.129 65.9265 193.96C67.6151 193.762 69.2948 193.429 70.9789 193.197C74.41 192.724 77.859 192.361 81.2811 191.806C81.82 191.719 82.1209 190.985 81.9862 190.468C81.829 189.845 81.2856 189.623 80.7422 189.71V189.715Z" fill="#181755"/>
<path d="M65.1763 170.182C65.1987 168.564 65.1987 166.941 65.2302 165.318C65.2571 164.028 65.2527 162.55 64.2467 161.656C63.2227 160.748 62.0551 159.836 60.7841 159.396C59.3111 158.889 57.8067 159.435 56.3471 159.758C53.1495 160.473 49.916 161.087 46.7409 161.912C46.0853 162.082 45.3532 162.309 44.8368 162.801C44.1721 163.439 44.1541 164.318 44.1407 165.211C44.1092 166.95 44.1047 168.689 44.1047 170.428C44.1047 172.408 44.1047 174.384 44.0868 176.364C44.0778 177.306 44.0284 178.258 44.0733 179.199C44.1182 180.199 44.235 181.189 44.217 182.189C44.1946 183.59 46.2155 183.59 46.238 182.189C46.2604 180.639 46.0628 179.103 46.0897 177.552C46.1167 175.968 46.1212 174.384 46.1212 172.8C46.1212 171.22 46.1212 169.636 46.1302 168.056C46.1302 167.346 46.1391 166.631 46.1481 165.921C46.1526 165.525 46.1571 165.129 46.1706 164.733C46.1796 164.405 46.1122 164.429 46.4265 164.279C46.9744 164.018 47.6032 163.922 48.1825 163.791C48.946 163.622 49.7049 163.453 50.4684 163.279C51.8831 162.965 53.2977 162.647 54.7124 162.333C56.127 162.019 57.609 161.589 59.0641 161.362C60.1779 161.188 61.1659 161.912 62.0326 162.569C62.4009 162.85 62.9488 163.13 63.115 163.589C63.3036 164.1 63.2227 164.772 63.2137 165.308C63.1823 166.926 63.1778 168.549 63.1598 170.172C63.1419 171.573 65.1628 171.573 65.1808 170.172L65.1763 170.182Z" fill="#181755"/>
<path d="M75.7929 168.757C76.6911 164.496 77.4501 160.198 78.0024 155.87C78.1282 154.87 78.1461 153.865 77.6297 152.981C77.212 152.262 76.5563 151.701 75.8468 151.349C74.9935 150.924 74.0863 150.711 73.1702 150.494C72.1642 150.257 71.1582 150.021 70.1523 149.794C68.1403 149.335 66.1194 148.9 64.0895 148.543C63.0565 148.359 62.0236 148.2 60.9862 148.055C60.5146 147.987 60.0386 147.929 59.5625 147.876C59.0865 147.823 58.5611 147.712 58.0806 147.852C57.2048 148.098 56.9533 148.915 56.6973 149.75C56.3919 150.76 56.1539 151.798 55.9249 152.827C55.386 155.223 54.9054 157.638 54.4608 160.058C54.2093 161.425 56.1584 162.009 56.4099 160.637C56.7557 158.753 57.1285 156.879 57.5237 155.005C57.7527 153.919 57.9907 152.832 58.2602 151.75C58.3679 151.315 58.4802 150.88 58.606 150.45C58.6509 150.296 58.7003 150.141 58.7497 149.987C58.7722 149.919 58.7946 149.856 58.8171 149.794C58.8306 149.75 58.7228 150.011 58.8126 149.813C58.9024 149.615 58.9383 149.654 58.7946 149.789C58.6689 149.91 58.4353 149.895 58.6554 149.967C58.853 150.035 59.1269 150.011 59.3335 150.03C60.2317 150.132 61.1254 150.252 62.0146 150.393C63.8694 150.682 65.7107 151.049 67.5475 151.445C69.3843 151.842 71.2705 152.281 73.1298 152.725C74.3378 153.015 76.1387 153.397 76.0489 155.083C75.995 156.116 75.7884 157.16 75.6357 158.179C75.4695 159.299 75.2899 160.415 75.1012 161.531C74.724 163.762 74.2974 165.984 73.8303 168.196C73.5429 169.558 75.492 170.138 75.7794 168.776L75.7929 168.757Z" fill="#181755"/>
<path d="M84.3346 183.479C86.4139 182.315 88.5022 181.175 90.595 180.035C91.5965 179.489 92.6564 179.026 93.6309 178.431C94.2641 178.045 94.8704 177.528 95.2072 176.813C95.6833 175.799 95.4901 174.698 95.0905 173.693C94.2192 171.515 93.2043 169.389 92.2612 167.25C91.3046 165.081 90.3435 162.922 89.396 160.748C89.0097 159.86 88.5741 158.985 87.8106 158.406C87.2897 158.01 86.7014 157.691 86.14 157.362C85.6909 157.102 85.1295 156.667 84.5951 156.667C84.2448 156.667 83.917 156.875 83.6116 157.029C81.0068 158.314 78.4066 159.739 75.9635 161.347C74.8587 162.077 75.8692 163.96 76.9829 163.226C79.1117 161.821 81.3661 160.608 83.6116 159.43C83.9799 159.237 84.3481 159.048 84.7208 158.865C84.7792 158.836 84.8376 158.812 84.896 158.783C84.9903 158.734 84.6355 158.869 84.8062 158.826C85.0487 158.768 84.1595 158.802 84.3705 158.821C84.2942 158.816 84.2134 158.739 84.3975 158.84C85.4304 159.41 86.7058 159.922 87.2807 161.062C88.2103 162.893 88.9648 164.849 89.7957 166.733C90.6849 168.752 91.574 170.771 92.4678 172.79C92.6743 173.258 92.8809 173.727 93.0875 174.195C93.2671 174.606 93.5276 175.123 93.4737 175.591C93.4198 176.036 92.9887 176.326 92.607 176.557C91.7178 177.098 90.7477 177.519 89.8361 178.016C87.6579 179.199 85.4798 180.388 83.3152 181.6C82.161 182.247 83.1805 184.121 84.3346 183.479Z" fill="#181755"/>
<path d="M49.4489 175.659C49.5387 173.654 49.4355 171.655 49.3411 169.655C49.3187 169.153 49.2963 168.655 49.2738 168.153C49.2604 167.829 49.0986 166.979 49.3322 166.699C49.5432 166.448 50.3471 166.371 50.63 166.293C51.0881 166.163 51.5507 166.037 52.0088 165.917C55.6914 164.936 59.4189 164.144 63.1733 163.54C63.7437 163.448 63.5011 162.516 62.9353 162.608C58.8216 163.27 54.7393 164.154 50.7109 165.269C50.0328 165.458 48.901 165.54 48.5013 166.264C48.3217 166.593 48.3442 166.984 48.3532 167.346C48.3666 167.882 48.3891 168.419 48.4115 168.955C48.5103 171.186 48.654 173.418 48.5552 175.654C48.5283 176.277 49.4265 176.272 49.4534 175.654L49.4489 175.659Z" fill="#181755"/>
<path d="M45.1196 164.497C46.2334 165.303 47.2978 166.182 48.3756 167.042C48.5687 167.197 48.8786 167.076 48.9908 166.868C49.1256 166.622 49.0267 166.366 48.8291 166.206C47.7513 165.347 46.6869 164.468 45.5732 163.661C45.3711 163.516 45.0747 163.617 44.9579 163.835C44.8277 164.072 44.9175 164.352 45.1196 164.497Z" fill="#181755"/>
<path d="M64.4802 192.096C63.9951 187.295 63.5954 182.489 63.2856 177.668C63.2092 176.475 63.1284 175.282 63.07 174.084C63.052 173.751 63.1104 173.524 63.4113 173.423C63.6853 173.331 64.0625 173.341 64.3454 173.307C64.9023 173.239 65.4592 173.167 66.016 173.099C68.2795 172.814 70.5474 172.529 72.8109 172.244C75.3348 171.925 77.8632 171.611 80.3871 171.293C80.953 171.22 80.9619 170.254 80.3871 170.327C75.5593 170.93 70.7315 171.539 65.9038 172.143C65.311 172.215 64.7137 172.292 64.1209 172.365C63.6583 172.423 63.0925 172.408 62.6793 172.669C61.8305 173.205 62.1987 174.654 62.2481 175.514C62.4008 178.103 62.5805 180.687 62.7826 183.271C63.0161 186.213 63.2811 189.154 63.5775 192.086C63.6404 192.7 64.5385 192.704 64.4757 192.086L64.4802 192.096Z" fill="#181755"/>
<path d="M42.7893 191.743C44.3746 188.802 46.0811 185.933 47.7697 183.064C48.5556 181.73 49.3326 180.392 50.1679 179.093C50.4868 178.596 50.9449 177.721 51.6679 177.934C52.0856 178.055 52.5032 178.412 52.8804 178.644C53.3565 178.943 53.8281 179.238 54.2996 179.538C56.1499 180.706 58.0047 181.87 59.828 183.083C60.322 183.411 60.771 182.576 60.2815 182.247C58.5795 181.122 56.8549 180.035 55.1349 178.943C54.2457 178.378 53.3655 177.784 52.4583 177.258C51.3985 176.644 50.5182 177.021 49.7997 177.997C49.0048 179.064 48.3536 180.272 47.6709 181.426C46.6066 183.218 45.5557 185.02 44.5138 186.831C43.6695 188.299 42.8117 189.763 42.0079 191.255C41.7159 191.796 42.4929 192.279 42.7848 191.743H42.7893Z" fill="#181755"/>
<path d="M75.8244 166.95C78.8064 165.207 81.7839 163.458 84.7569 161.7C85.673 161.159 86.5892 160.613 87.5009 160.062C88.0039 159.758 87.5548 158.923 87.0473 159.227C83.5354 161.342 79.9965 163.405 76.4621 165.472C76.0983 165.685 75.7346 165.897 75.3708 166.115C74.8634 166.414 75.3169 167.245 75.8244 166.95Z" fill="#181755"/>
<path d="M59.2171 159.773C59.5674 157.85 60.021 155.952 60.5823 154.088C60.7126 153.663 60.8069 153.03 61.0629 152.663C61.3368 152.272 61.8308 152.561 62.2126 152.653C63.1871 152.885 64.1661 153.117 65.1407 153.344C68.9355 154.242 72.7349 155.141 76.5297 156.039C77.0911 156.174 77.3336 155.242 76.7678 155.107C72.5732 154.112 68.3787 153.122 64.1886 152.127C63.6811 152.006 63.1781 151.885 62.6706 151.769C62.2305 151.668 61.759 151.484 61.3054 151.489C60.4251 151.499 60.1512 152.445 59.9177 153.18C59.262 155.252 58.7455 157.367 58.3503 159.512C58.2381 160.12 59.1048 160.381 59.2171 159.768V159.773Z" fill="#181755"/>
<path d="M57.8428 149.895C58.7814 150.644 59.6886 151.422 60.5913 152.238C60.7709 152.402 61.0539 152.441 61.2245 152.238C61.3772 152.059 61.4176 151.731 61.2245 151.557C60.2724 150.692 59.2934 149.866 58.2919 149.064C58.1033 148.915 57.7844 149.026 57.6766 149.238C57.5509 149.489 57.6362 149.736 57.8383 149.9L57.8428 149.895Z" fill="#181755"/>
<path d="M43.1709 110.399C43.355 114.65 43.9883 118.881 45.0975 122.967C46.1125 126.711 47.4418 130.594 50.0241 133.434C51.3489 134.888 52.9747 136.013 54.8025 136.574C56.0555 136.96 56.5899 134.864 55.3414 134.477C52.3235 133.55 50.2667 130.826 48.9373 127.904C47.4014 124.527 46.4942 120.731 45.879 117.041C45.5107 114.843 45.2906 112.626 45.1963 110.394C45.1379 109.003 43.117 108.994 43.1754 110.394L43.1709 110.399Z" fill="#181755"/>
<path d="M63.4294 131.56C66.1688 125.377 65.1584 117.379 61.6195 111.795C60.892 110.646 59.1405 111.732 59.8726 112.892C62.9848 117.799 64.1165 124.972 61.6824 130.464C61.4488 130.995 61.5477 131.637 62.0462 131.951C62.4863 132.227 63.1913 132.091 63.4294 131.56Z" fill="#181755"/>
<path d="M94.305 118.664C93.6224 121.523 92.3066 124.295 90.9503 126.455C88.103 131 83.8187 134.767 78.7888 136.023C74.9805 136.975 72.9236 134.159 72.5733 130.232C72.3532 127.749 72.9371 125.262 73.705 122.904C75.708 116.751 79.2693 110.839 84.7079 107.955C85.9563 107.293 87.3216 106.796 88.7093 106.844C90.9862 106.926 93.1149 108.573 94.0356 110.815C95.0236 113.215 94.9472 115.973 94.305 118.654V118.664Z" fill="white"/>
<path d="M93.3305 118.374C92.082 123.494 89.1045 128.324 85.1794 131.531C83.3426 133.033 81.2633 134.197 79.0313 134.84C77.3561 135.323 75.6855 135.207 74.6571 133.651C73.4535 131.83 73.3547 129.275 73.6826 127.15C74.0958 124.479 75.0299 121.856 76.1391 119.436C78.1421 115.075 81.0881 111.09 85.2108 108.902C86.4369 108.25 87.8605 107.747 89.2393 107.999C90.3575 108.201 91.368 108.834 92.1449 109.713C94.1479 111.983 93.9817 115.558 93.326 118.378C93.0117 119.736 94.9607 120.315 95.2751 118.958C95.9892 115.881 96.1284 112.307 94.5251 109.506C93.1284 107.066 90.4922 105.501 87.8156 105.81C85.0447 106.134 82.4669 107.854 80.3831 109.766C78.4115 111.578 76.7813 113.819 75.461 116.21C74.0823 118.717 72.9909 121.455 72.2365 124.252C71.455 127.14 71.1182 130.396 72.1916 133.26C73.0134 135.453 74.6257 137.052 76.8712 137.279C78.0657 137.399 79.2783 137.066 80.41 136.675C81.7124 136.221 82.9744 135.612 84.1555 134.878C89.5671 131.507 93.6988 125.445 95.2796 118.958C95.6119 117.606 93.6629 117.026 93.3305 118.378V118.374Z" fill="#181755"/>
<path d="M76.6376 180.837C77.0238 181.103 76.934 181.513 76.669 181.919C76.5388 182.122 72.8068 185.025 72.1107 185.493C71.6796 185.783 71.0957 186.01 70.6915 185.682C70.5478 185.561 70.4535 185.387 70.3727 185.213C70.2065 184.851 69.7439 179.465 69.7215 178.905C69.708 178.514 69.7125 178.079 69.964 177.799C70.3412 177.383 70.9879 177.586 71.4775 177.828C72.8113 178.48 76.2154 180.552 76.6286 180.832L76.6376 180.837Z" fill="#181755"/>
<path d="M76.4085 181.257C76.66 181.46 75.7124 182.131 75.6361 182.194C75.0118 182.696 74.3831 183.189 73.7499 183.677C73.2065 184.097 72.6586 184.522 72.1017 184.923C71.8323 185.116 71.4775 185.416 71.1361 185.358C71.0104 185.338 70.943 185.285 70.8667 185.174C70.8263 185.116 70.7904 185.034 70.7634 184.967C70.7634 184.967 70.8083 185.102 70.7948 185.039C70.7769 184.962 70.7589 184.884 70.7499 184.807C70.5074 183.392 70.4176 181.875 70.2963 180.417C70.2514 179.914 70.202 179.412 70.1796 178.905C70.1706 178.687 70.1302 178.315 70.2918 178.142C70.4625 177.958 70.7814 178.064 70.979 178.132C71.3382 178.253 71.675 178.456 72.0119 178.639C73.4984 179.451 75.0029 180.296 76.4175 181.252C76.907 181.585 77.3606 180.75 76.8711 180.417C75.416 179.431 73.8667 178.557 72.3308 177.731C71.4775 177.272 70.0314 176.519 69.443 177.794C69.1421 178.451 69.3128 179.349 69.3712 180.059C69.4476 181.001 69.5374 181.948 69.6317 182.89C69.708 183.643 69.7529 184.426 69.9101 185.169C69.991 185.565 70.2379 185.957 70.5658 186.16C71.1451 186.512 71.8502 186.247 72.3712 185.894C72.9595 185.498 73.5209 185.044 74.0822 184.609C74.8637 184.005 75.6406 183.402 76.404 182.774C76.5971 182.614 76.8217 182.46 76.9879 182.267C77.4864 181.687 77.4504 180.885 76.8711 180.417C76.4085 180.045 75.9594 180.885 76.4175 181.252L76.4085 181.257Z" fill="#181755"/>
<path d="M58.4445 190.98C58.4625 190.913 58.449 190.884 58.3906 190.855C57.9056 190.608 57.4206 190.357 56.94 190.106C56.0149 189.628 55.0897 189.149 54.1646 188.671C54.1062 188.642 54.0793 188.638 54.0478 188.71C53.7874 189.309 53.518 189.903 53.253 190.497C53.2216 190.57 53.235 190.594 53.2979 190.628C53.5314 190.743 53.7649 190.869 53.9984 190.99C54.5598 191.28 55.1212 191.569 55.6826 191.859C55.7364 191.888 55.7544 191.907 55.7095 191.965C55.6107 192.101 55.503 192.226 55.3817 192.342C55.1931 192.526 54.9775 192.661 54.753 192.782C54.744 192.782 54.7395 192.787 54.7305 192.791C54.7305 192.791 54.7305 192.791 54.7305 192.796C54.7305 192.796 54.7305 192.796 54.7305 192.791C54.717 192.796 54.7035 192.801 54.6901 192.811C54.6766 192.811 54.6676 192.811 54.6632 192.825C54.6497 192.825 54.6407 192.825 54.6317 192.835H54.6272C54.6137 192.835 54.6048 192.845 54.5913 192.849C54.5823 192.849 54.5733 192.854 54.5643 192.859C54.5508 192.859 54.5419 192.859 54.5374 192.874C54.5284 192.874 54.5149 192.874 54.5059 192.883H54.5014C54.488 192.883 54.4745 192.888 54.461 192.893C54.452 192.893 54.4476 192.898 54.4386 192.903C54.4296 192.903 54.4251 192.907 54.4161 192.912C54.3937 192.912 54.3712 192.912 54.3533 192.931C54.3398 192.931 54.3308 192.931 54.3173 192.931C54.2769 192.931 54.2365 192.941 54.2006 192.96C54.1691 192.956 54.1422 192.96 54.1152 192.97C54.1017 192.97 54.0838 192.97 54.0703 192.97C53.3113 193.062 52.6107 192.859 51.9775 192.419C51.1961 191.874 50.756 191.082 50.6123 190.101C50.5674 189.802 50.5764 189.497 50.5943 189.193C50.6078 189.125 50.6168 189.058 50.6302 188.99C50.6976 188.589 50.8323 188.217 51.0254 187.865C51.1512 187.638 51.3084 187.435 51.47 187.237C51.4835 187.227 51.497 187.213 51.5105 187.203C52.4805 186.247 53.5853 185.947 54.8338 186.445C55.5972 186.749 56.1451 187.324 56.464 188.14C56.4864 188.203 56.5089 188.217 56.5718 188.193C57.1691 187.966 57.7664 187.739 58.3637 187.517C58.4266 187.493 58.4355 187.473 58.4086 187.406C58.0538 186.483 57.5104 185.72 56.7649 185.131C56.1182 184.614 55.3952 184.271 54.6003 184.121C53.3024 183.875 52.0898 184.121 50.9626 184.856C50.8054 184.957 50.473 185.223 50.4551 185.237C49.8847 185.72 49.4312 186.314 49.0944 187.005C48.8249 187.546 48.6497 188.126 48.5644 188.734C48.5195 189.053 48.4925 189.367 48.5105 189.69C48.5105 189.719 48.5105 189.753 48.5105 189.782C48.5779 191.251 49.0854 192.516 50.0554 193.555C50.6123 194.153 51.2725 194.569 52.009 194.854C52.7545 195.139 53.5179 195.255 54.3039 195.153C54.5509 195.12 54.7979 195.076 55.0314 194.979C55.0628 194.989 55.0898 194.975 55.1123 194.955C55.1212 194.955 55.1302 194.955 55.1347 194.946C55.1437 194.946 55.1482 194.946 55.1571 194.941C55.1706 194.946 55.1796 194.941 55.1886 194.936C55.202 194.936 55.211 194.936 55.2155 194.921C55.229 194.921 55.238 194.921 55.2469 194.912C55.2514 194.912 55.2604 194.907 55.2649 194.902C55.2784 194.902 55.2874 194.897 55.2963 194.883C55.3053 194.883 55.3098 194.878 55.3188 194.873C55.3278 194.873 55.3323 194.868 55.3412 194.864C55.3502 194.864 55.3592 194.864 55.3637 194.854C55.3817 194.854 55.3951 194.854 55.4041 194.839C55.4131 194.839 55.4176 194.835 55.4266 194.83C55.4356 194.83 55.4401 194.825 55.4491 194.82C55.467 194.82 55.476 194.82 55.4895 194.806C55.494 194.806 55.5029 194.801 55.5074 194.796C55.5478 194.786 55.5838 194.772 55.6152 194.743C55.6197 194.743 55.6287 194.738 55.6332 194.733C55.6421 194.728 55.6512 194.723 55.6601 194.714C55.6781 194.714 55.6871 194.709 55.7005 194.694C55.9475 194.583 56.1721 194.424 56.3877 194.26C56.9311 193.835 57.3712 193.308 57.7305 192.7C58.0448 192.168 58.2828 191.598 58.449 190.99L58.4445 190.98Z" fill="#181755"/>
<path d="M90.0292 221.564C85.7493 222.434 70.4036 223.921 70.4036 223.921L65.9891 221.709C65.9891 221.709 65.1043 199.727 65.2211 199.5C65.4995 198.964 84.0247 198.37 84.0247 198.37C84.0247 198.37 89.863 199.539 90.1908 200.022C90.5052 200.491 91.0126 214.305 90.8779 220.613C90.8779 220.796 90.8689 220.985 90.7836 221.144C90.6354 221.415 90.3166 221.502 90.0292 221.56V221.564Z" fill="white"/>
<path d="M89.76 220.516C87.0295 221.062 84.3394 221.328 81.4517 221.661C78.4114 222.014 75.3665 222.337 72.3216 222.642C71.6794 222.704 71.0417 222.772 70.3995 222.835L70.9115 222.984C69.4384 222.245 67.9699 221.511 66.4969 220.772L66.9954 221.709C66.8247 217.512 66.663 213.319 66.5103 209.122C66.416 206.581 66.3217 204.041 66.2543 201.495C66.2364 200.882 66.2454 200.264 66.2229 199.65C66.2184 199.496 66.2993 199.375 66.196 199.795C66.1376 200.022 65.94 200.302 65.7738 200.404C65.3876 200.645 65.5448 200.481 65.6481 200.471C65.7334 200.466 65.8322 200.433 65.9175 200.413C65.9759 200.399 66.0388 200.394 66.0972 200.384C65.7289 200.457 66.0164 200.394 66.1152 200.384C70.9429 199.814 75.847 199.756 80.7018 199.573C81.564 199.539 82.4218 199.51 83.2841 199.481C83.4952 199.476 83.7152 199.486 83.9263 199.462C84.2406 199.423 83.531 199.365 83.9263 199.452C85.0849 199.713 86.2436 199.94 87.3978 200.225C88.004 200.375 88.6103 200.529 89.1986 200.727C89.3019 200.761 89.4052 200.805 89.5085 200.838C89.7735 200.925 89.3918 200.747 89.5444 200.853C89.7465 200.998 89.3558 200.631 89.3289 200.582C89.2795 200.495 89.257 200.254 89.2615 200.437C89.2615 200.539 89.3289 200.969 89.284 200.539C89.3064 200.747 89.3289 200.949 89.3469 201.157C89.3963 201.708 89.4277 202.263 89.4636 202.819C89.5579 204.442 89.6253 206.065 89.6837 207.687C89.8184 211.416 89.9127 215.145 89.8948 218.879C89.8948 219.251 89.8903 219.623 89.8858 219.995C89.8858 220.149 89.8453 220.362 89.8768 220.511C89.8678 220.473 89.8768 220.695 89.8768 220.7L90.0564 220.449C89.9621 220.478 89.8633 220.502 89.7645 220.521C88.4891 220.801 89.028 222.898 90.3034 222.617C90.9367 222.477 91.534 222.134 91.7675 221.444C91.9292 220.965 91.9022 220.439 91.9112 219.937C91.9202 219.111 91.9247 218.285 91.9202 217.459C91.9112 215.483 91.8753 213.508 91.8259 211.537C91.7406 208.156 91.6597 204.756 91.3902 201.384C91.3229 200.524 91.3678 199.467 90.5684 198.984C90.0924 198.699 89.5175 198.559 88.9966 198.414C88.296 198.216 87.5864 198.047 86.8768 197.887C85.9607 197.675 84.9771 197.341 84.0385 197.293C83.6029 197.269 83.1538 197.322 82.7182 197.337C77.6255 197.515 72.5192 197.655 67.44 198.085C66.6945 198.148 65.8906 198.167 65.1675 198.37C64.4445 198.573 64.2109 199.182 64.2109 199.921C64.2199 202.017 64.3232 204.113 64.3951 206.209C64.5747 211.276 64.7723 216.343 64.9744 221.41C64.9744 221.511 64.9834 221.613 64.9879 221.714C65.0014 222.072 65.1631 222.492 65.4864 222.651C66.8202 223.318 68.1496 223.989 69.4834 224.656C69.8382 224.834 70.1705 225.018 70.5746 224.999C71.0103 224.974 71.4459 224.912 71.8815 224.868C75.9908 224.458 80.0955 224.023 84.1957 223.516C86.2346 223.265 88.287 223.028 90.3079 222.622C90.8469 222.516 91.1477 221.816 91.013 221.284C90.8603 220.68 90.3079 220.415 89.769 220.526L89.76 220.516Z" fill="#181755"/>
<path d="M70.8532 223.627C70.6152 219.521 70.5479 215.411 70.3772 211.305C70.2919 209.166 70.22 207.031 70.1212 204.891C70.0898 204.181 70.0359 203.413 70.1751 202.708C70.238 202.389 70.2379 202.326 70.5568 202.302C70.7005 202.292 70.8443 202.288 70.988 202.278C75.7574 202.017 80.5268 201.645 85.2917 201.307C86.8455 201.196 88.3949 201.085 89.9488 200.974C90.5236 200.93 90.5281 199.964 89.9488 200.008C85.8755 200.302 81.8022 200.592 77.7244 200.877C75.4969 201.032 73.2694 201.191 71.0419 201.312C70.6287 201.336 70.1257 201.283 69.7754 201.544C69.2859 201.906 69.241 202.717 69.2095 203.297C69.1062 205.118 69.3083 207.007 69.3757 208.828C69.5643 213.759 69.6631 218.7 69.9505 223.622C69.9865 224.24 70.8847 224.245 70.8487 223.622L70.8532 223.627Z" fill="#181755"/>
<path d="M64.844 200.645C66.4563 201.302 68.0641 201.988 69.7212 202.519C70.2781 202.698 70.5116 201.766 69.9593 201.587C68.3021 201.061 66.6988 200.37 65.0821 199.713C64.853 199.621 64.5881 199.814 64.5297 200.051C64.4623 200.322 64.615 200.553 64.844 200.645Z" fill="#181755"/>
<path d="M85.7853 210.929V216.638C85.4844 216.623 85.1925 216.609 84.9006 216.594C83.1716 216.503 81.456 216.416 79.7584 216.324C79.4575 216.309 79.5069 216.372 79.5069 216.063C79.5069 214.628 79.5069 213.189 79.5069 211.755V211.576C81.5818 211.363 83.67 211.151 85.7853 210.933V210.929Z" fill="#181755"/>
<path d="M79.5161 210.967C79.5161 209.388 79.5161 207.823 79.5161 206.248C81.582 205.707 83.6657 205.161 85.781 204.606C85.781 206.514 85.781 208.412 85.781 210.315C83.6702 210.532 81.5864 210.75 79.5161 210.967Z" fill="#181755"/>
<path d="M74.257 212.107C75.8064 211.948 77.3647 211.788 78.9411 211.629C78.9411 213.179 78.9411 214.72 78.9411 216.275C78.8917 216.275 78.8423 216.275 78.7974 216.275C77.3019 216.198 75.8199 216.121 74.3513 216.044C74.2705 216.044 74.248 216.015 74.248 215.932C74.248 214.686 74.248 213.44 74.248 212.194C74.248 212.165 74.257 212.141 74.257 212.107Z" fill="#181755"/>
<path d="M74.2524 211.513C74.2524 210.218 74.2524 208.934 74.2524 207.625C75.7973 207.219 77.3557 206.808 78.9365 206.398C78.9365 207.948 78.9365 209.484 78.9365 211.025C77.3602 211.189 75.8018 211.349 74.2524 211.513Z" fill="#181755"/>
<path d="M57.286 178.658C55.4492 177.644 53.9178 176.103 51.852 175.611C51.2726 175.471 50.6618 175.408 50.1005 175.611C49.3999 175.862 48.8789 176.49 48.4523 177.137C47.2487 178.953 45.9822 180.702 44.8415 182.58C43.6335 184.57 42.5107 186.623 41.4868 188.729C41.1769 189.367 40.8715 190.033 40.876 190.753C40.8805 191.473 41.2892 192.236 41.9449 192.366C44.3924 187.787 46.9433 183.266 49.584 178.818C49.9073 178.272 50.2756 177.692 50.846 177.485C51.578 177.219 52.3549 177.668 53.0151 178.098C55.3639 179.624 57.7126 181.151 60.0614 182.682C60.2635 181.808 59.9132 180.866 59.3518 180.199C58.786 179.533 58.036 179.088 57.2905 178.673L57.286 178.658Z" fill="#181755"/>
<path d="M73.5968 150.417C73.1836 145.683 72.8468 140.906 72.1372 136.211C72.0744 135.81 72.0025 135.419 71.8858 135.033C71.4052 133.439 71.0999 131.806 71.0999 130.13C71.0999 129.507 70.2017 129.507 70.2017 130.13C70.2017 131.512 70.3947 132.888 70.7226 134.221C70.8753 134.83 71.0909 135.414 71.1986 136.033C71.3918 137.134 71.5085 138.254 71.6298 139.365C71.9576 142.312 72.2361 145.268 72.501 148.219C72.5684 148.953 72.6312 149.683 72.6986 150.417C72.7525 151.03 73.6507 151.035 73.5968 150.417Z" fill="#181755"/>
<path d="M64.3229 130.517C63.528 130.41 58.6958 130.304 58.4578 130.415C58.2961 130.493 55.2826 133.507 55.2288 133.671C55.1569 133.893 55.5477 135.612 56.0506 135.946C56.5536 136.279 59.7736 136.607 60.7347 136.723C61.0041 136.757 61.2781 136.786 61.5386 136.709C61.7991 136.632 64.5655 133.83 64.6598 133.376C64.6822 133.265 64.6598 133.149 64.6329 133.038C64.4532 132.159 64.4173 131.299 64.3229 130.512V130.517Z" fill="white"/>
<path d="M64.323 130.034C63.5281 129.937 62.7108 129.942 61.9114 129.918C60.9414 129.894 59.9623 129.865 58.9923 129.894C58.7677 129.898 58.4983 129.879 58.2872 129.976C58.0761 130.072 57.883 130.304 57.7124 130.463C57.0118 131.135 56.3247 131.826 55.651 132.526C55.422 132.763 55.175 132.999 54.9684 133.26C54.7349 133.555 54.7708 133.864 54.8336 134.226C54.9998 135.183 55.3501 136.284 56.3022 136.554C57.3576 136.854 58.4848 136.941 59.5626 137.071C60.4159 137.173 61.3995 137.482 62.118 136.859C62.9354 136.149 63.7033 135.337 64.4174 134.506C64.6509 134.231 64.9877 133.903 65.0865 133.531C65.1988 133.11 64.9967 132.584 64.9428 132.164C64.8709 131.618 64.835 131.062 64.7721 130.517C64.7003 129.908 63.8021 129.898 63.8739 130.517C63.9727 131.338 64.0177 132.169 64.1659 132.98C64.1793 133.057 64.2108 133.144 64.2108 133.221C64.2153 133.381 64.2557 133.164 64.2287 133.236C64.2153 133.275 64.1793 133.323 64.1569 133.357C64.0626 133.477 63.9638 133.608 63.865 133.724C63.2722 134.429 62.63 135.086 61.9743 135.723C61.7812 135.912 61.5521 136.163 61.368 136.264C61.35 136.274 61.3141 136.289 61.3815 136.264C61.5207 136.216 61.2108 136.279 61.2198 136.279C61.0492 136.293 60.874 136.264 60.7079 136.24C60.5417 136.216 60.3665 136.202 60.1914 136.182C59.1944 136.066 58.1929 135.955 57.2049 135.772C56.9534 135.723 56.4279 135.651 56.2932 135.545C55.9878 135.298 55.8621 134.69 55.7678 134.318C55.7409 134.212 55.7364 133.869 55.669 133.801C55.5882 133.719 55.6465 133.96 55.5792 133.965C55.5971 133.965 55.66 133.869 55.669 133.854C55.8846 133.613 56.1136 133.376 56.3382 133.144C56.9444 132.521 57.5552 131.908 58.1794 131.304C58.2917 131.193 58.4085 131.082 58.5208 130.975C58.5567 130.942 58.5926 130.908 58.6285 130.874C58.7363 130.777 58.6779 130.86 58.6555 130.85C58.6914 130.864 58.4624 130.864 58.624 130.874C58.7408 130.884 58.8666 130.86 58.9833 130.86C59.9579 130.835 60.9324 130.86 61.9025 130.884C62.7019 130.903 63.5192 130.898 64.3141 131C64.8889 131.072 64.8845 130.106 64.3141 130.034H64.323Z" fill="#181755"/>
<path d="M57.3263 134.318L59.437 134.487L60.4924 134.569C60.8023 134.593 61.1167 134.646 61.3996 134.463C61.6466 134.304 61.8532 134.043 62.0597 133.825C62.2933 133.579 62.5268 133.323 62.7513 133.067C63.2139 132.536 63.654 131.98 64.0717 131.405C64.2244 131.198 64.2558 130.922 64.0717 130.724C63.919 130.555 63.5866 130.522 63.4384 130.724C63.0567 131.251 62.657 131.758 62.2349 132.251C62.0508 132.463 61.8621 132.676 61.6735 132.883C61.4849 133.091 61.2469 133.439 61.0044 133.579C60.7888 133.705 60.434 133.603 60.1825 133.579L59.3113 133.511L57.3218 133.352C56.7469 133.309 56.7469 134.275 57.3218 134.318H57.3263Z" fill="#181755"/>
<path d="M62.1136 136.453C61.9878 135.54 61.8665 134.622 61.7408 133.709C61.7048 133.458 61.3995 133.299 61.1884 133.371C60.9324 133.458 60.8381 133.695 60.8741 133.965C60.9998 134.878 61.121 135.796 61.2468 136.709C61.2827 136.96 61.5881 137.119 61.7992 137.047C62.0551 136.96 62.1495 136.723 62.1136 136.453Z" fill="#181755"/>
<path d="M61.5836 126.662C61.9474 126.846 62.3875 126.793 62.7557 126.619C63.2722 126.377 63.5776 125.972 63.9728 125.59C64.3231 125.252 64.7677 125.059 64.9294 124.537C65.0102 124.271 64.9878 123.982 64.9563 123.706C64.862 122.929 64.6959 122.161 64.5342 121.398C64.4085 120.818 64.2647 119.601 63.7932 119.21C62.6929 118.297 61.9833 119.21 61.175 119.963C60.6855 120.422 59.2843 120.808 59.7603 121.789" fill="white"/>
<path d="M61.4668 127.131C62.8096 127.715 63.8021 126.353 64.7362 125.566C65.2661 125.121 65.4862 124.547 65.4188 123.827C65.347 123.054 65.1853 122.296 65.0236 121.542C64.7946 120.47 64.7182 119.151 63.7077 118.577C63.1598 118.268 62.567 118.287 62.0236 118.61C61.5656 118.886 61.2153 119.345 60.8111 119.659C60.4069 119.973 59.9533 120.137 59.6031 120.504C59.1944 120.939 59.127 121.48 59.3695 122.03C59.612 122.581 60.3934 122.103 60.1464 121.542C59.9488 121.098 60.9548 120.707 61.2153 120.528C61.7587 120.146 62.4144 119.055 63.1688 119.369C63.9233 119.683 63.9368 120.716 64.0805 121.426C64.1973 122.001 64.3275 122.571 64.4263 123.156C64.5072 123.629 64.6868 124.271 64.3455 124.663C64.1883 124.841 63.9862 124.972 63.8066 125.121C63.6 125.3 63.4158 125.508 63.2182 125.701C62.8006 126.116 62.2796 126.445 61.7093 126.199C61.4847 126.102 61.2198 126.305 61.1569 126.537C61.0851 126.812 61.2467 127.034 61.4713 127.131H61.4668Z" fill="#181755"/>
<path d="M60.0208 122.6C60.434 123.735 60.8202 124.894 61.3007 125.996C61.5387 126.542 62.1361 127.672 61.7768 128.276C61.5567 128.643 59.6526 129.193 59.6526 129.58C59.446 129.705 59.2259 129.841 58.9879 129.855C58.3906 129.898 57.9729 129.261 57.681 128.701C57.0254 127.445 56.3697 126.194 55.714 124.938C55.5388 124.6 55.3592 124.209 55.485 123.846C55.5748 123.595 55.7948 123.426 56.0104 123.281C56.8861 122.687 57.8292 122.199 58.8083 121.837C58.9834 121.774 59.163 121.711 59.3427 121.75C59.7019 121.827 59.8861 122.243 60.0208 122.605V122.6Z" fill="white"/>
<path d="M59.5851 122.73C59.9623 123.764 60.3171 124.807 60.7347 125.827C61.0222 126.527 61.4039 127.169 61.4219 127.942C61.4219 127.995 61.3545 128.063 61.4129 127.99C61.4533 127.937 61.368 128.024 61.35 128.034C61.2557 128.087 61.1614 128.145 61.0626 128.193C60.7977 128.329 60.5237 128.444 60.2587 128.57C59.8186 128.778 59.2752 129 59.2079 129.575L59.4324 129.159C59.0237 129.406 58.7587 129.43 58.4354 129.034C58.1659 128.7 57.9863 128.275 57.7842 127.894C57.2633 126.894 56.7378 125.894 56.2169 124.899C56.0058 124.493 55.7139 124.093 56.1495 123.759C56.5222 123.469 56.9489 123.238 57.3576 123.015C57.7663 122.793 58.2243 122.576 58.6779 122.397C58.8306 122.339 59.1405 122.156 59.3022 122.238C59.4504 122.31 59.5402 122.586 59.5941 122.73C59.8096 123.3 60.6764 123.049 60.4608 122.474C60.133 121.6 59.6165 121.05 58.6959 121.368C57.7752 121.687 56.9399 122.127 56.136 122.634C55.386 123.112 54.7528 123.692 55.121 124.711C55.2962 125.189 55.5702 125.638 55.8082 126.083C56.0642 126.57 56.3202 127.058 56.5717 127.546C56.9893 128.343 57.3576 129.357 58.0267 129.951C58.5971 130.459 59.7108 130.497 60.0926 129.705C60.2363 129.411 59.9129 129.749 60.0611 129.768C60.0207 129.763 60.0835 129.744 60.1105 129.729C60.2093 129.676 60.2991 129.613 60.3979 129.56C60.6629 129.42 60.9324 129.304 61.2018 129.179C61.6599 128.966 62.1494 128.763 62.2931 128.193C62.4997 127.382 62.0372 126.522 61.7228 125.817C61.2378 124.73 60.865 123.59 60.4563 122.47C60.2497 121.895 59.3785 122.146 59.5896 122.726L59.5851 122.73Z" fill="#181755"/>
<path d="M54.6853 163.294C54.8784 159.092 55.3679 154.894 55.7991 150.716C56.2886 145.954 56.7602 141.162 57.5191 136.439C57.6224 135.801 57.7212 135.154 57.8919 134.531C57.9098 134.463 58.0041 134.246 57.9323 134.391C58.085 134.081 58.3365 133.845 58.5565 133.598C59.3469 132.724 59.9308 131.662 60.7257 130.787C61.1299 130.343 60.4966 129.657 60.0924 130.106C59.3784 130.889 58.8395 131.802 58.1793 132.628C57.8065 133.091 57.3125 133.478 57.0969 134.062C56.9353 134.502 56.8634 134.98 56.7826 135.444C56.4323 137.395 56.1943 139.375 55.9518 141.346C55.2961 146.649 54.7482 151.972 54.2632 157.3C54.0791 159.295 53.8859 161.294 53.7916 163.299C53.7647 163.922 54.6629 163.917 54.6898 163.299L54.6853 163.294Z" fill="#181755"/>
<path d="M2.86877 31.0984C9.30431 27.4517 16.0767 24.4908 23.0467 22.2545C26.4598 21.1629 29.9268 20.2452 33.4208 19.5061C35.1677 19.1391 36.9282 18.8251 38.6886 18.5353C38.6348 18.5449 42.8653 18.1199 42.1287 18.9265C40.4491 20.7765 38.262 21.9743 36.0839 23.0708C29.6483 26.3069 22.9434 28.9297 16.0767 30.8907C12.7175 31.8519 9.31777 32.6586 5.89117 33.301C5.0828 33.4507 1.8044 34.5375 1.22956 33.8468C0.380766 32.8276 2.23105 31.4559 2.86877 31.0936V31.0984Z" fill="white"/>
<path d="M85.8886 2.37844C86.3152 2.27701 86.7374 2.17558 87.164 2.07415C89.1895 1.60563 91.4798 1.22887 93.1954 2.47504C93.8825 2.97255 89.7823 5.05916 89.5218 5.16542C83.6342 7.56116 77.8722 10.8746 71.7555 12.4927C65.6389 14.1108 59.374 16.8688 52.9609 15.782C52.7678 15.7579 52.5971 15.6758 52.4534 15.5405C51.3352 14.5165 57.4698 11.8358 57.7662 11.7151C66.8694 8.05866 76.3363 4.68724 85.8886 2.37362V2.37844Z" fill="white"/>
<path d="M3.38089 32.0354C9.12483 28.7847 15.1248 26.0847 21.3133 23.9691C24.4749 22.8871 27.6814 21.9549 30.9194 21.1821C32.6035 20.7764 34.2966 20.4189 35.9942 20.105C37.0451 19.9118 38.1229 19.6703 39.0615 19.5978C39.7576 19.5447 40.4537 19.5012 41.1498 19.5302C41.2935 19.535 41.4373 19.5447 41.581 19.564C41.2397 19.5254 41.7606 19.6268 41.7651 19.622C41.2531 19.878 41.2935 17.5305 41.3205 18.3033C41.316 18.1391 41.4822 18.1295 41.2846 18.3033C40.9478 18.6125 40.6423 18.9506 40.2965 19.2452C37.9523 21.2207 35.0197 22.4572 32.3072 23.7131C26.2983 26.5049 20.0603 28.7364 13.7056 30.4221C10.6068 31.2432 7.44971 31.7794 4.34646 32.5763C3.79856 32.7164 3.25064 32.8565 2.69376 32.9386C2.60843 32.9531 2.30306 32.9821 2.14138 32.9869C2.04258 32.9869 1.93927 32.9869 1.84047 32.9869C1.74167 32.9869 1.78662 32.9627 1.88542 33.0255C1.77764 32.9579 1.88542 32.9869 1.94381 33.0835C1.95279 33.1028 2.03359 33.3153 2.02012 33.3057L1.9932 33.3492C2.02464 33.2767 2.06056 33.2042 2.10547 33.1366C2.17284 33.0255 2.23572 32.9579 2.33901 32.8468C2.65338 32.5135 2.98119 32.2672 3.3764 32.0354C4.52159 31.3688 3.50213 29.4899 2.35694 30.1564C1.44528 30.6878 0.394419 31.5524 0.0845433 32.6681C-0.301679 34.0785 0.69082 35.1121 1.93482 35.1604C3.01265 35.2039 4.13088 34.8658 5.17278 34.5953C6.48863 34.2524 7.82693 34.0302 9.15176 33.7452C16.2565 32.2092 23.231 29.9777 29.9629 27.0942C33.1784 25.7176 36.4793 24.2975 39.4792 22.4283C40.2112 21.9742 40.9074 21.4671 41.5765 20.9068C42.0795 20.4817 42.7531 19.989 43.072 19.3756C43.3863 18.7767 43.1843 18.0328 42.6454 17.6802C42.304 17.4581 41.8909 17.4098 41.5001 17.3711C39.5915 17.1779 37.6514 17.5981 35.7832 17.9411C32.1096 18.6125 28.4674 19.4915 24.8746 20.559C17.9585 22.6166 11.2176 25.3939 4.78656 28.8233C3.9737 29.258 3.16082 29.7024 2.35694 30.1564C1.20725 30.8085 2.22671 32.6826 3.3764 32.0354H3.38089Z" fill="#181755"/>
<path d="M86.1584 3.42659C87.6045 3.07882 89.0686 2.66826 90.5641 2.72622C91.2422 2.7552 91.7632 2.99188 92.3874 3.2189C92.823 3.37829 92.1494 3.43142 92.2931 2.37845C92.3065 2.28668 92.3605 2.15144 92.4368 2.1128C92.3964 2.13212 92.073 2.4654 92.2661 2.306C91.615 2.85181 90.847 3.26237 90.115 3.66327C89.8275 3.82266 89.5357 3.97239 89.2437 4.12213C89.0686 4.2139 89.0461 4.24771 89.2572 4.12213C88.9159 4.32982 88.4758 4.44575 88.1075 4.60031C85.0177 5.9141 82.0043 7.41627 78.9235 8.75904C77.3876 9.4256 75.8382 10.0583 74.2619 10.5993C72.6855 11.1403 71.1003 11.5364 69.5149 12C66.3219 12.9371 63.1513 14.019 59.8774 14.5938C58.2786 14.874 56.6528 14.9996 55.0316 14.9174C54.6184 14.8981 54.2053 14.8643 53.7966 14.816C53.6125 14.7919 53.4194 14.7484 53.2397 14.7339C52.8849 14.7146 53.1589 14.6614 53.1409 14.7339C53.1364 14.7532 53.334 15.1734 53.3385 15.2652C53.334 15.1106 53.3161 15.4294 53.3161 15.4246C53.352 15.2314 53.2173 15.6903 53.2936 15.4971C53.3385 15.386 53.1274 15.642 53.325 15.4632C53.3789 15.4149 53.7023 15.1058 53.5227 15.2556C53.6664 15.1348 53.8191 15.0285 53.9717 14.9223C54.322 14.6808 54.6858 14.4586 55.0496 14.2509C55.7726 13.8355 56.5181 13.4636 57.2726 13.1062C57.4163 13.0385 57.5555 12.9709 57.6992 12.9081C57.4163 13.0385 57.7621 12.8791 57.8295 12.8501C58.1663 12.7052 58.5076 12.5748 58.8444 12.4396C60.4612 11.7972 62.0824 11.1644 63.7081 10.5462C71.0688 7.75438 78.5462 5.2717 86.1629 3.42176C87.4293 3.11263 86.8949 1.01636 85.624 1.32549C78.1825 3.13195 70.8757 5.54218 63.6812 8.25671C61.1932 9.19375 58.6693 10.0922 56.2486 11.2321C55.4133 11.6233 54.587 12.0435 53.7876 12.512C53.078 12.9323 52.2921 13.4008 51.7667 14.0818C51.0212 15.0382 51.2771 16.3182 52.4268 16.7481C53.2442 17.0572 54.2726 17.0572 55.1349 17.0958C55.9972 17.1345 56.9133 17.1103 57.8025 17.033C61.4447 16.7239 64.9611 15.6323 68.4641 14.5697C70.2111 14.0384 71.9805 13.5988 73.7185 13.0482C75.4565 12.4976 77.19 11.8262 78.8831 11.0968C82.2603 9.65261 85.5521 7.99105 88.9338 6.56617C90.5641 5.88029 92.3559 5.10264 93.6808 3.84198C94.0131 3.52319 94.2871 3.10297 94.2871 2.60547C94.2871 1.81333 93.6134 1.41243 93.0206 1.12745C91.4712 0.383614 89.7781 0.470559 88.1389 0.760366C87.2946 0.910099 86.4593 1.11779 85.624 1.32066C84.3576 1.62495 84.892 3.72122 86.1629 3.41693L86.1584 3.42659Z" fill="#181755"/>
<path d="M54.7485 109.003C54.6272 109.626 55.0089 110.269 55.5209 110.597C56.0329 110.926 56.6392 111.008 57.232 111.075C59.711 111.351 62.2079 111.428 64.6959 111.501C61.6017 112.032 58.449 112.167 55.3233 111.906C53.7605 111.776 52.2066 111.549 50.6707 111.225C49.9521 111.071 48.3354 110.047 47.6797 110.158C48.3084 110.051 54.6901 109.308 54.7485 109.003Z" fill="#181755"/>
<path d="M74.2885 135.458C73.2196 135.54 72.1508 135.497 71.0819 135.434C70.5475 135.405 70.0131 135.376 69.4787 135.347C69.326 135.337 69.0925 135.303 69.0161 135.236C69.0386 135.255 68.9622 135.173 68.9442 135.149C68.9802 135.202 68.8993 135.062 68.8859 135.038C68.6478 134.564 68.6119 133.854 68.6254 133.289C68.6299 132.99 68.6568 132.69 68.7152 132.396C68.7691 132.144 68.7961 132.004 68.9218 131.835C69.2227 131.434 69.8155 131.241 70.2466 131.067C70.808 130.835 71.3828 130.637 71.9666 130.478C72.5505 130.319 72.29 129.391 71.7287 129.546C71.1673 129.7 70.57 129.903 70.0086 130.135C69.5011 130.343 68.9667 130.555 68.5355 130.918C67.9427 131.415 67.8035 132.178 67.7451 132.946C67.6867 133.714 67.7272 134.511 67.9832 135.212C68.0999 135.535 68.2616 135.849 68.5355 136.052C68.9757 136.38 69.5775 136.318 70.0895 136.347C71.4906 136.419 72.8918 136.535 74.293 136.429C74.8678 136.385 74.8723 135.419 74.293 135.463L74.2885 135.458Z" fill="#181755"/>
<path d="M68.6572 132.84C69.8203 132.869 70.9835 132.898 72.1466 132.83C72.3892 132.816 72.5957 132.618 72.5957 132.347C72.5957 132.096 72.3892 131.85 72.1466 131.864C70.9835 131.927 69.8203 131.903 68.6572 131.874C68.0778 131.859 68.0778 132.825 68.6572 132.84Z" fill="#181755"/>
<path d="M72.1194 127.86C71.7242 127.16 71.1942 126.566 70.7407 125.913C70.3095 125.29 69.7796 124.508 70.0041 123.692C70.1389 123.204 70.4443 122.774 70.6958 122.349C70.9787 121.876 71.2616 121.402 71.5491 120.929C71.6029 120.837 71.7197 120.711 71.7421 120.605C71.8679 120.475 71.8455 120.431 71.6658 120.465C71.4997 120.417 71.4682 120.436 71.567 120.528C71.576 120.629 71.7826 120.823 71.8365 120.9C71.9128 121.001 71.9847 121.108 72.061 121.209C72.4068 121.687 72.7481 122.16 73.0939 122.639C73.4397 123.117 74.0775 122.441 73.7272 121.958C73.3095 121.378 72.8873 120.798 72.4697 120.219C72.1867 119.823 71.823 119.296 71.311 119.673C71.0865 119.837 70.9562 120.137 70.808 120.378C70.6284 120.678 70.4488 120.982 70.2646 121.281C69.9413 121.822 69.5686 122.363 69.3126 122.948C68.3605 125.136 70.3948 126.677 71.3424 128.353C71.6433 128.884 72.4203 128.396 72.1194 127.865V127.86Z" fill="#181755"/>
<path d="M72.8334 123.59C72.2541 122.846 71.6793 122.103 71.0999 121.364C70.9472 121.17 70.6194 121.185 70.4667 121.364C70.2915 121.571 70.305 121.837 70.4667 122.045C71.046 122.789 71.6209 123.532 72.2002 124.271C72.3529 124.465 72.6807 124.45 72.8334 124.271C73.0086 124.064 72.9951 123.798 72.8334 123.59Z" fill="#181755"/>
<path d="M68.1945 152.228C68.41 148.77 69.1017 145.379 69.5283 141.95C69.9729 138.38 70.4085 134.811 70.8486 131.241C70.925 130.628 70.0268 130.633 69.9505 131.241C69.5059 134.845 69.0747 138.448 68.6167 142.046C68.1855 145.442 67.5029 148.804 67.2918 152.228C67.2514 152.846 68.1541 152.846 68.19 152.228H68.1945Z" fill="#181755"/>
<path d="M58.7231 133.178C59.9357 138.105 60.8339 143.118 61.3953 148.176C61.4626 148.784 62.3608 148.794 62.2935 148.176C61.7186 143.027 60.8204 137.931 59.5854 132.922C59.4372 132.323 58.5704 132.574 58.7186 133.178H58.7231Z" fill="#181755"/>
<path d="M72.0611 170.037C71.8006 159.865 71.5402 149.687 71.2797 139.515L71.0596 130.865C71.0416 130.246 70.1434 130.241 70.1614 130.865C70.4219 141.037 70.6824 151.214 70.9429 161.386C71.0147 164.27 71.0911 167.153 71.1629 170.037C71.1809 170.655 72.0791 170.66 72.0611 170.037Z" fill="#181755"/>
<path d="M80.9263 159.164C78.5281 149.765 75.6539 140.515 72.3171 131.454C72.106 130.884 71.2393 131.13 71.4503 131.71C74.7871 140.771 77.6658 150.021 80.0595 159.42C80.2122 160.019 81.079 159.763 80.9263 159.164Z" fill="#181755"/>
<path d="M57.8964 180.064C57.4024 167.404 57.8739 154.74 58.2601 142.085C58.3679 138.53 58.4712 134.975 58.543 131.415C58.5565 130.792 57.6583 130.792 57.6448 131.415C57.3889 144.084 56.7512 156.749 56.7871 169.428C56.7961 172.973 56.8589 176.524 56.9982 180.064C57.0206 180.682 57.9188 180.687 57.8964 180.064Z" fill="#181755"/>
<path d="M76.6776 200.109C76.4575 197.254 76.233 194.4 76.0129 191.545C75.9635 190.932 75.0654 190.927 75.1148 191.545C75.3348 194.4 75.5594 197.254 75.7794 200.109C75.8288 200.722 76.727 200.727 76.6776 200.109Z" fill="#181755"/>
</svg>
