<svg width="41" height="54" viewBox="0 0 41 54" fill="none" xmlns="http://www.w3.org/2000/svg">
<path d="M17.536 13.0051H14.5825V19.0795H17.536V13.0051Z" fill="#005382"/>
<path d="M25.7108 13.0051H22.7573V19.0795H25.7108V13.0051Z" fill="#005382"/>
<path d="M20.1468 0C9.04497 0 0 9.17839 0 20.444V42.7879C0 48.9693 4.95759 54 11.0491 54C17.1406 54 22.0982 48.9693 22.0982 42.7879V40.8077C32.2771 39.7909 40.2673 31.0674 40.2673 20.4708C40.2936 9.17839 31.2487 0 20.1468 0ZM22.1246 36.7671V30.7998C26.924 29.8632 30.5367 25.5818 30.5367 20.444H9.75697C9.75697 25.5818 13.3697 29.8632 18.1691 30.7998V42.7879C18.1691 46.775 14.9783 50.0129 11.0491 50.0129C7.11995 50.0129 3.92916 46.775 3.92916 42.7879V20.444C3.92916 11.3726 11.2073 3.98711 20.1468 3.98711C29.0863 3.98711 36.3645 11.3726 36.3645 20.444C36.3381 28.8464 30.1147 35.777 22.1246 36.7671Z" fill="#005382"/>
</svg>
