<svg width="37" height="28" viewBox="0 0 37 28" fill="none" xmlns="http://www.w3.org/2000/svg">
<g clip-path="url(#clip0_646_11083)">
<g clip-path="url(#clip1_646_11083)">
<path d="M31.2883 2.63634C28.9318 1.56824 26.412 0.791982 23.7778 0.349976C23.4542 0.916613 23.0763 1.67875 22.8157 2.28503C20.0154 1.87706 17.2408 1.87706 14.492 2.28503C14.2314 1.67875 13.8449 0.916613 13.5185 0.349976C10.8813 0.791982 8.35871 1.57109 6.00218 2.642C1.24904 9.60016 -0.0394624 16.3855 0.604788 23.0745C3.75732 25.3551 6.81251 26.7406 9.81613 27.6472C10.5577 26.6584 11.2192 25.6073 11.789 24.4996C10.7038 24.1001 9.66438 23.6071 8.68228 23.0348C8.94282 22.8478 9.19768 22.6523 9.4439 22.4512C15.434 25.1653 21.9424 25.1653 27.8609 22.4512C28.11 22.6523 28.3648 22.8478 28.6225 23.0348C27.6375 23.6099 26.5953 24.1029 25.5101 24.5024C26.0799 25.6073 26.7385 26.6613 27.4829 27.65C30.4894 26.7434 33.5475 25.358 36.7 23.0745C37.4559 15.3202 35.4086 8.59722 31.2883 2.63634ZM12.605 18.9608C10.8069 18.9608 9.33222 17.3346 9.33222 15.3542C9.33222 13.3739 10.7754 11.7448 12.605 11.7448C14.4347 11.7448 15.9093 13.371 15.8778 15.3542C15.8807 17.3346 14.4347 18.9608 12.605 18.9608ZM24.6998 18.9608C22.9016 18.9608 21.427 17.3346 21.427 15.3542C21.427 13.3739 22.8701 11.7448 24.6998 11.7448C26.5294 11.7448 28.0041 13.371 27.9726 15.3542C27.9726 17.3346 26.5294 18.9608 24.6998 18.9608Z" fill="#005382"/>
</g>
</g>
<defs>
<clipPath id="clip0_646_11083">
<rect width="36.4" height="27.3" fill="white" transform="translate(0.450195 0.349976)"/>
</clipPath>
<clipPath id="clip1_646_11083">
<rect width="145.6" height="27.3" fill="white" transform="translate(0.450195 0.349976)"/>
</clipPath>
</defs>
</svg>
