<svg width="30" height="30" viewBox="0 0 30 30" fill="none" xmlns="http://www.w3.org/2000/svg">
<path fill-rule="evenodd" clip-rule="evenodd" d="M29.9498 15C29.9498 6.74403 23.2558 0.0500488 14.9998 0.0500488C6.74378 0.0500488 0.0498047 6.74403 0.0498047 15C0.0498047 22.4614 5.51604 28.6465 12.6641 29.7693V19.3226H8.86716V15H12.6641V11.7056C12.6641 7.95913 14.8968 5.88828 18.311 5.88828C19.9467 5.88828 21.658 6.18051 21.658 6.18051V9.85972H19.7722C17.9158 9.85972 17.3355 11.0118 17.3355 12.1954V14.9999H21.4813L20.8191 19.3225H17.3354V29.7692C24.4835 28.6485 29.9497 22.4633 29.9497 14.9999L29.9498 15Z" fill="#005382"/>
<path fill-rule="evenodd" clip-rule="evenodd" d="M20.8193 19.3225L21.4816 15H17.3358V12.1955C17.3358 11.0139 17.9139 9.85974 19.7724 9.85974H21.6583V6.18053C21.6583 6.18053 19.947 5.88831 18.3113 5.88831C14.8971 5.88831 12.6644 7.95708 12.6644 11.7056V15.0001H8.86743V19.3226H12.6644V29.7694C13.4254 29.889 14.2054 29.9501 15.0001 29.9501C15.7948 29.9501 16.5748 29.887 17.3358 29.7694V19.3226H20.8195L20.8193 19.3225Z" fill="white"/>
<path fill-rule="evenodd" clip-rule="evenodd" d="M20.8193 19.3225L21.4816 15H17.3358V12.1955C17.3358 11.0139 17.9139 9.85974 19.7724 9.85974H21.6583V6.18053C21.6583 6.18053 19.947 5.88831 18.3113 5.88831C14.8971 5.88831 12.6644 7.95708 12.6644 11.7056V15.0001H8.86743V19.3226H12.6644V29.7694C13.4254 29.889 14.2054 29.9501 15.0001 29.9501C15.7948 29.9501 16.5748 29.887 17.3358 29.7694V19.3226H20.8195L20.8193 19.3225Z" fill="white" fill-opacity="0.2"/>
</svg>
