<svg width="24" height="34" viewBox="0 0 24 34" fill="none" xmlns="http://www.w3.org/2000/svg">
<path d="M6.36646 33.8999C9.47605 33.8999 11.9998 31.3762 11.9998 28.2666V22.6333H6.36646C3.25688 22.6333 0.733154 25.157 0.733154 28.2666C0.733154 31.3762 3.25688 33.8999 6.36646 33.8999Z" fill="#005382"/>
<path d="M0.733154 17C0.733154 13.8904 3.25688 11.3667 6.36646 11.3667H11.9998V22.6333H6.36646C3.25688 22.6333 0.733154 20.1096 0.733154 17Z" fill="#005382"/>
<path d="M0.73291 5.73328C0.73291 2.6237 3.25663 0.0999756 6.36622 0.0999756H11.9995V11.3666H6.36622C3.25663 11.3666 0.73291 8.84286 0.73291 5.73328Z" fill="#005382"/>
<path d="M11.9998 0.100098H17.6331C20.7427 0.100098 23.2664 2.62382 23.2664 5.7334C23.2664 8.84299 20.7427 11.3667 17.6331 11.3667H11.9998V0.100098Z" fill="#005382"/>
<path d="M23.2664 17C23.2664 20.1096 20.7427 22.6333 17.6331 22.6333C14.5235 22.6333 11.9998 20.1096 11.9998 17C11.9998 13.8904 14.5235 11.3667 17.6331 11.3667C20.7427 11.3667 23.2664 13.8904 23.2664 17Z" fill="#005382"/>
</svg>
