<svg width="30" height="30" viewBox="0 0 30 30" fill="none" xmlns="http://www.w3.org/2000/svg">
<path d="M29.7548 16.3363C30.4937 8.18632 24.4858 0.9805 16.3358 0.241661C8.18577 -0.497178 0.979946 5.51075 0.241107 13.6607C-0.497732 21.8107 5.51019 29.0165 13.6602 29.7554C21.8102 30.4942 29.016 24.4863 29.7548 16.3363Z" fill="#005382"/>
<path d="M15.7689 8.59558C13.5457 8.59558 11.6504 9.61797 10.587 11.1805C10.4978 11.3107 10.3459 11.5904 10.1457 11.5904C9.18123 11.5904 9.1113 10.3992 9.07995 9.32861C9.07628 9.25203 9.04357 9.17973 8.98847 9.12642C8.93337 9.07312 8.86002 9.04281 8.78337 9.04167L5.96457 9.0272C5.92489 9.0272 5.88561 9.03509 5.84902 9.05042C5.81242 9.06574 5.77925 9.0882 5.75142 9.11648C5.72359 9.14475 5.70167 9.17829 5.68693 9.21512C5.67219 9.25196 5.66493 9.29136 5.66557 9.33103C5.72826 11.9449 6.20811 13.7196 9.37413 14.4261C9.45853 14.4457 9.53379 14.4933 9.58765 14.5612C9.64151 14.6291 9.67079 14.7132 9.67072 14.7998V20.6689C9.67072 20.7476 9.70197 20.823 9.75759 20.8786C9.81321 20.9343 9.88865 20.9655 9.96731 20.9655H12.7041C12.7834 20.9655 12.8595 20.934 12.9155 20.8779C12.9716 20.8219 13.0031 20.7458 13.0031 20.6665V14.6045C13.0031 13.259 13.9676 11.7303 15.7689 11.7303C17.4954 11.7303 18.5346 13.259 18.5346 14.6045V20.6665C18.5353 20.7456 18.567 20.8213 18.6229 20.8772C18.6788 20.9332 18.7545 20.9649 18.8336 20.9655H21.5704C21.6497 20.9655 21.7258 20.934 21.7819 20.8779C21.8379 20.8219 21.8694 20.7458 21.8694 20.6665V14.156C21.8694 11.0406 19.2122 8.59558 15.7689 8.59558Z" fill="white"/>
<path d="M15.7689 8.59558C13.5457 8.59558 11.6504 9.61797 10.587 11.1805C10.4978 11.3107 10.3459 11.5904 10.1457 11.5904C9.18123 11.5904 9.1113 10.3992 9.07995 9.32861C9.07628 9.25203 9.04357 9.17973 8.98847 9.12642C8.93337 9.07312 8.86002 9.04281 8.78337 9.04167L5.96457 9.0272C5.92489 9.0272 5.88561 9.03509 5.84902 9.05042C5.81242 9.06574 5.77925 9.0882 5.75142 9.11648C5.72359 9.14475 5.70167 9.17829 5.68693 9.21512C5.67219 9.25196 5.66493 9.29136 5.66557 9.33103C5.72826 11.9449 6.20811 13.7196 9.37413 14.4261C9.45853 14.4457 9.53379 14.4933 9.58765 14.5612C9.64151 14.6291 9.67079 14.7132 9.67072 14.7998V20.6689C9.67072 20.7476 9.70197 20.823 9.75759 20.8786C9.81321 20.9343 9.88865 20.9655 9.96731 20.9655H12.7041C12.7834 20.9655 12.8595 20.934 12.9155 20.8779C12.9716 20.8219 13.0031 20.7458 13.0031 20.6665V14.6045C13.0031 13.259 13.9676 11.7303 15.7689 11.7303C17.4954 11.7303 18.5346 13.259 18.5346 14.6045V20.6665C18.5353 20.7456 18.567 20.8213 18.6229 20.8772C18.6788 20.9332 18.7545 20.9649 18.8336 20.9655H21.5704C21.6497 20.9655 21.7258 20.934 21.7819 20.8779C21.8379 20.8219 21.8694 20.7458 21.8694 20.6665V14.156C21.8694 11.0406 19.2122 8.59558 15.7689 8.59558Z" fill="white" fill-opacity="0.2"/>
</svg>
