<svg width="30" height="30" viewBox="0 0 30 30" fill="none" xmlns="http://www.w3.org/2000/svg">
<g clip-path="url(#clip0_646_11143)">
<path d="M8.54399 28.9364L9.1554 25.6449L7.79346 25.6181H1.29004L5.80958 1.33012C5.82361 1.25679 5.8692 1.18843 5.93584 1.13988C6.00247 1.09133 6.08782 1.06458 6.17666 1.06458H17.1423C20.7828 1.06458 23.295 1.70663 24.6067 2.97389C25.2216 3.56838 25.6133 4.18962 25.8027 4.87329C26.0014 5.59065 26.0049 6.44771 25.8108 7.49302L25.7968 7.56931V8.23911L26.4117 8.53437C26.9296 8.76722 27.3411 9.03375 27.6568 9.33892C28.1828 9.84721 28.523 10.4932 28.6668 11.2591C28.8153 12.0468 28.7662 12.9842 28.523 14.0453C28.2425 15.266 27.7889 16.3292 27.1763 17.1991C26.6128 18.0007 25.895 18.6655 25.0428 19.1807C24.2291 19.6702 23.2623 20.0418 22.1692 20.2796C21.1101 20.5134 19.9025 20.6313 18.5779 20.6313H17.7245C17.1143 20.6313 16.5216 20.8176 16.0563 21.1515C15.5898 21.4923 15.2812 21.958 15.1865 22.4673L15.1222 22.7636L14.042 28.5648L13.9929 28.7778C13.9801 28.8452 13.9579 28.8789 13.9251 28.9017C13.8959 28.9225 13.8538 28.9364 13.8129 28.9364H8.54399Z" fill="#005382"/>
<path d="M26.9939 7.64661C26.9612 7.82396 26.9238 8.00528 26.8817 8.19156C25.4356 14.4843 20.4882 16.6581 14.1695 16.6581H10.9523C10.1795 16.6581 9.52836 17.1337 9.40795 17.7797L7.76076 26.6337L7.29431 29.1435C7.21599 29.5675 7.60177 29.95 8.1068 29.95H13.8129C14.4886 29.95 15.0626 29.5338 15.169 28.9691L15.2251 28.7233L16.2995 22.9449L16.3685 22.6278C16.4737 22.0611 17.0489 21.6449 17.7246 21.6449H18.578C24.1064 21.6449 28.4342 19.7425 29.6991 14.2375C30.2275 11.9379 29.954 10.0176 28.5558 8.66715C28.1326 8.25992 27.6077 7.92205 26.9939 7.64661Z" fill="#005382"/>
<path d="M25.4812 7.13536C25.2603 7.08086 25.0323 7.03132 24.7985 6.98674C24.5635 6.94314 24.3227 6.9045 24.0748 6.87081C23.2074 6.75191 22.257 6.69543 21.2387 6.69543H12.6439C12.4323 6.69543 12.2312 6.73606 12.0512 6.80938C11.6549 6.97088 11.3603 7.28894 11.289 7.67833L9.46057 17.4934L9.40796 17.7797C9.52837 17.1337 10.1795 16.6581 10.9523 16.6581H14.1695C20.4882 16.6581 25.4356 14.4833 26.8817 8.19157C26.925 8.0053 26.9612 7.82398 26.994 7.64662C26.628 7.48215 26.2317 7.34145 25.805 7.22156C25.6998 7.19184 25.5911 7.1631 25.4812 7.13536Z" fill="#005382"/>
<path d="M11.289 7.67838C11.3603 7.28899 11.6549 6.97093 12.0512 6.81042C12.2324 6.7371 12.4324 6.69648 12.644 6.69648H21.2388C22.257 6.69648 23.2075 6.75295 24.0749 6.87185C24.3227 6.90554 24.5636 6.94418 24.7985 6.98778C25.0324 7.03236 25.2603 7.0819 25.4813 7.1364C25.5912 7.16414 25.6999 7.19288 25.8063 7.22161C26.233 7.3415 26.6293 7.48319 26.9952 7.64667C27.4254 5.32122 26.9917 3.73788 25.5082 2.30417C23.8727 0.725789 20.9208 0.0500488 17.1436 0.0500488H6.17794C5.40637 0.0500488 4.7482 0.525643 4.62895 1.17265L0.0614821 25.7103C-0.0285346 26.1958 0.413366 26.6338 0.990876 26.6338H7.76084L9.46063 17.4934L11.289 7.67838Z" fill="#005382"/>
</g>
<defs>
<clipPath id="clip0_646_11143">
<rect width="29.9" height="29.9" fill="white" transform="translate(0.0498047 0.0500488)"/>
</clipPath>
</defs>
</svg>
