<svg width="30" height="30" viewBox="0 0 30 30" fill="none" xmlns="http://www.w3.org/2000/svg">
<path d="M29.9497 15.0001C29.9497 23.2567 23.2563 29.9501 14.9997 29.9501C6.74316 29.9501 0.0498047 23.2567 0.0498047 15.0001C0.0498047 6.74333 6.74316 0.0500717 14.9997 0.0500717C23.2563 0.0500717 29.9497 6.74333 29.9497 15.0001Z" fill="white"/>
<path d="M29.9497 15.0001C29.9497 23.2567 23.2563 29.9501 14.9997 29.9501C6.74316 29.9501 0.0498047 23.2567 0.0498047 15.0001C0.0498047 6.74333 6.74316 0.0500717 14.9997 0.0500717C23.2563 0.0500717 29.9497 6.74333 29.9497 15.0001Z" fill="white" fill-opacity="0.2"/>
<path d="M14.9997 0.0500717C6.74316 0.0500717 0.0498047 6.74345 0.0498047 15.0001C0.0498047 21.3337 3.99035 26.748 9.5516 28.9263C9.42097 27.7435 9.30283 25.9243 9.60344 24.633C9.87513 23.4662 11.3565 17.2019 11.3565 17.2019C11.3565 17.2019 10.9093 16.3063 10.9093 14.9823C10.9093 12.9035 12.1142 11.3515 13.6145 11.3515C14.8899 11.3515 15.506 12.3091 15.506 13.4574C15.506 14.7401 14.6893 16.6579 14.2679 18.4351C13.9157 19.9231 15.0141 21.1366 16.4817 21.1366C19.1388 21.1366 21.1813 18.3349 21.1813 14.2906C21.1813 10.7111 18.6093 8.20841 14.9366 8.20841C10.6828 8.20841 8.18605 11.399 8.18605 14.6963C8.18605 15.9812 8.68102 17.359 9.29866 18.108C9.42085 18.2561 9.43874 18.3857 9.40234 18.5368C9.28886 19.009 9.03666 20.0245 8.98715 20.2323C8.92195 20.506 8.77048 20.564 8.48715 20.4322C6.62 19.5631 5.4526 16.8332 5.4526 14.6405C5.4526 9.92458 8.87906 5.59358 15.3306 5.59358C20.5168 5.59358 24.547 9.28917 24.547 14.228C24.547 19.3803 21.2984 23.5269 16.7893 23.5269C15.2744 23.5269 13.8502 22.7399 13.3627 21.8102C13.3627 21.8102 12.6131 24.6647 12.4314 25.3642C12.0939 26.6627 11.1827 28.2904 10.5733 29.2834C11.9721 29.7165 13.4586 29.9501 14.9997 29.9501C23.2565 29.9501 29.9498 23.2567 29.9498 15.0001C29.9498 6.74345 23.2565 0.0500717 14.9997 0.0500717Z" fill="#005382"/>
</svg>
