<svg width="30" height="30" viewBox="0 0 30 30" fill="none" xmlns="http://www.w3.org/2000/svg">
<g clip-path="url(#clip0_646_11153)">
<path d="M26.186 5.92155C26.1625 5.77196 26.0131 5.68928 25.8897 5.6802C25.7665 5.67112 23.1586 5.5017 23.1586 5.5017C23.1586 5.5017 21.3474 3.92528 21.1487 3.75084C20.9497 3.5764 20.5613 3.62945 20.4106 3.6684C20.3883 3.67413 20.0148 3.77521 19.3969 3.94272C18.7918 2.41649 17.7242 1.0138 15.8457 1.0138C15.7939 1.0138 15.7405 1.01571 15.6871 1.01834C15.1529 0.398952 14.4911 0.129883 13.9195 0.129883C9.54377 0.129883 7.45321 4.92557 6.79769 7.36272C5.09744 7.82463 3.88944 8.15296 3.73517 8.19549C2.7861 8.45644 2.75612 8.48272 2.63156 9.26675C2.53753 9.86032 0.0541992 26.6974 0.0541992 26.6974L19.4048 29.8761L29.8898 27.8874C29.8898 27.8874 26.2091 6.07114 26.186 5.92155ZM18.3274 4.23282C17.8414 4.36473 17.2889 4.51456 16.6901 4.67705C16.6907 4.57597 16.6912 4.47632 16.6912 4.36759C16.6912 3.41892 16.541 2.65521 16.3001 2.04969C17.2679 2.15626 17.9126 3.12166 18.3274 4.23282ZM15.0994 2.23775C15.3685 2.82893 15.5434 3.67724 15.5434 4.8221C15.5434 4.88064 15.5429 4.93417 15.5423 4.98841C14.4774 5.27755 13.3204 5.59155 12.1607 5.9065C12.8118 3.70329 14.0323 2.6392 15.0994 2.23775ZM13.7993 1.15884C13.9882 1.15884 14.1784 1.215 14.3605 1.32492C12.9582 1.90344 11.455 3.36062 10.8202 6.27043C9.89238 6.52229 8.98556 6.76842 8.14715 6.99615C8.89071 4.77669 10.6564 1.15884 13.7993 1.15884Z" fill="#005382"/>
<path d="M25.8897 5.68009C25.7665 5.67101 23.1587 5.50159 23.1587 5.50159C23.1587 5.50159 21.3475 3.92517 21.1488 3.75073C21.0744 3.68574 20.9741 3.65252 20.8691 3.63818L19.406 29.8757L29.8899 27.8873C29.8899 27.8873 26.2092 6.07103 26.186 5.92144C26.1626 5.77186 26.0132 5.68918 25.8897 5.68009Z" fill="#005382"/>
<path d="M15.8458 10.7593L14.553 14.1308C14.553 14.1308 13.4202 13.6008 12.0318 13.6008C9.99627 13.6008 9.89379 14.7208 9.89379 15.003C9.89379 16.5428 14.4723 17.1328 14.4723 20.7397C14.4723 23.5773 12.4194 25.4047 9.65121 25.4047C6.32947 25.4047 4.63086 23.5921 4.63086 23.5921L5.52023 21.0159C5.52023 21.0159 7.26628 22.3302 8.73975 22.3302C9.70245 22.3302 10.0941 21.6657 10.0941 21.1801C10.0941 19.1714 6.33792 19.0818 6.33792 15.7813C6.33792 13.0034 8.61219 10.3151 13.203 10.3151C14.9719 10.3151 15.8458 10.7593 15.8458 10.7593Z" fill="white"/>
<path d="M15.8458 10.7593L14.553 14.1308C14.553 14.1308 13.4202 13.6008 12.0318 13.6008C9.99627 13.6008 9.89379 14.7208 9.89379 15.003C9.89379 16.5428 14.4723 17.1328 14.4723 20.7397C14.4723 23.5773 12.4194 25.4047 9.65121 25.4047C6.32947 25.4047 4.63086 23.5921 4.63086 23.5921L5.52023 21.0159C5.52023 21.0159 7.26628 22.3302 8.73975 22.3302C9.70245 22.3302 10.0941 21.6657 10.0941 21.1801C10.0941 19.1714 6.33792 19.0818 6.33792 15.7813C6.33792 13.0034 8.61219 10.3151 13.203 10.3151C14.9719 10.3151 15.8458 10.7593 15.8458 10.7593Z" fill="white" fill-opacity="0.2"/>
</g>
<defs>
<clipPath id="clip0_646_11153">
<rect width="29.9" height="29.9" fill="white" transform="translate(0.0498047 0.0500488)"/>
</clipPath>
</defs>
</svg>
