<svg width="30" height="30" viewBox="0 0 30 30" fill="none" xmlns="http://www.w3.org/2000/svg">
<g clip-path="url(#clip0_646_11073)">
<path fill-rule="evenodd" clip-rule="evenodd" d="M10.9644 0.123657C10.5731 0.124021 10.1857 0.201465 9.8243 0.351569C9.46292 0.501672 9.13464 0.721494 8.85822 0.99848C8.5818 1.27547 8.36265 1.60419 8.21328 1.96588C8.06392 2.32757 7.98727 2.71514 7.9877 3.10646C7.98734 3.49773 8.06405 3.88524 8.21344 4.24687C8.36284 4.60849 8.582 4.93715 8.85841 5.21408C9.13483 5.49101 9.46308 5.71078 9.82443 5.86085C10.1858 6.01092 10.5731 6.08834 10.9644 6.08871H13.9411V3.10646C13.9416 2.71514 13.8649 2.32757 13.7155 1.96588C13.5662 1.60419 13.347 1.27547 13.0706 0.99848C12.7942 0.721494 12.4659 0.501672 12.1045 0.351569C11.7431 0.201465 11.3557 0.124021 10.9644 0.123657ZM10.9644 8.07761H3.02652C2.63525 8.07798 2.24788 8.1554 1.88653 8.30547C1.52518 8.45554 1.19693 8.67531 0.920518 8.95224C0.644105 9.22917 0.424943 9.55783 0.275546 9.91945C0.126149 10.2811 0.0494428 10.6686 0.0498065 11.0599C0.04937 11.4512 0.126023 11.8387 0.275387 12.2004C0.424751 12.5621 0.643902 12.8909 0.920322 13.1678C1.19674 13.4448 1.52502 13.6646 1.8864 13.8148C2.24779 13.9649 2.6352 14.0423 3.02652 14.0427H10.9644C11.3557 14.0423 11.7431 13.9649 12.1045 13.8148C12.4659 13.6646 12.7942 13.4448 13.0706 13.1678C13.347 12.8909 13.5662 12.5621 13.7155 12.2004C13.8649 11.8387 13.9416 11.4512 13.9411 11.0599C13.9415 10.6686 13.8648 10.2811 13.7154 9.91945C13.566 9.55783 13.3468 9.22917 13.0704 8.95224C12.794 8.67531 12.4657 8.45554 12.1044 8.30547C11.7431 8.1554 11.3557 8.07798 10.9644 8.07761Z" fill="#005382"/>
<path fill-rule="evenodd" clip-rule="evenodd" d="M29.8169 11.0597C29.8172 10.6685 29.7405 10.281 29.5911 9.91933C29.4417 9.5577 29.2226 9.22904 28.9461 8.95212C28.6697 8.67519 28.3415 8.45542 27.9801 8.30535C27.6188 8.15528 27.2314 8.07785 26.8401 8.07749C26.4489 8.07785 26.0615 8.15528 25.7002 8.30535C25.3388 8.45542 25.0106 8.67519 24.7341 8.95212C24.4577 9.22904 24.2386 9.5577 24.0892 9.91933C23.9398 10.281 23.8631 10.6685 23.8634 11.0597V14.0425H26.8401C27.2315 14.0422 27.6189 13.9647 27.9803 13.8146C28.3416 13.6645 28.6699 13.4447 28.9463 13.1677C29.2228 12.8907 29.4419 12.562 29.5913 12.2003C29.7406 11.8386 29.8173 11.4511 29.8169 11.0597ZM21.879 11.0597V3.10634C21.8794 2.71502 21.8027 2.32745 21.6534 1.96576C21.504 1.60407 21.2849 1.27534 21.0084 0.998358C20.732 0.721372 20.4037 0.50155 20.0424 0.351447C19.681 0.201343 19.2936 0.123899 18.9022 0.123535C18.5109 0.123899 18.1235 0.201343 17.7621 0.351447C17.4008 0.50155 17.0725 0.721372 16.7961 0.998358C16.5196 1.27534 16.3005 1.60407 16.1511 1.96576C16.0018 2.32745 15.9251 2.71502 15.9255 3.10634V11.0597C15.9251 11.4511 16.0018 11.8386 16.1511 12.2003C16.3005 12.562 16.5196 12.8907 16.7961 13.1677C17.0725 13.4447 17.4008 13.6645 17.7621 13.8146C18.1235 13.9647 18.5109 14.0422 18.9022 14.0425C19.2936 14.0422 19.681 13.9647 20.0424 13.8146C20.4037 13.6645 20.732 13.4447 21.0084 13.1677C21.2849 12.8907 21.504 12.562 21.6534 12.2003C21.8027 11.8386 21.8794 11.4511 21.879 11.0597Z" fill="#005382"/>
<path fill-rule="evenodd" clip-rule="evenodd" d="M18.9022 29.95C19.2936 29.9496 19.681 29.8722 20.0424 29.7221C20.4037 29.572 20.732 29.3522 21.0084 29.0752C21.2849 28.7982 21.504 28.4695 21.6534 28.1078C21.8027 27.7461 21.8794 27.3585 21.879 26.9672C21.8793 26.5759 21.8026 26.1884 21.6532 25.8268C21.5038 25.4652 21.2847 25.1365 21.0083 24.8596C20.7318 24.5827 20.4036 24.3629 20.0422 24.2128C19.6809 24.0627 19.2935 23.9853 18.9022 23.985H15.9255V26.9672C15.9251 27.3585 16.0018 27.7461 16.1511 28.1078C16.3005 28.4695 16.5196 28.7982 16.7961 29.0752C17.0725 29.3522 17.4008 29.572 17.7621 29.7221C18.1235 29.8722 18.5109 29.9496 18.9022 29.95ZM18.9022 21.9961H26.8401C27.2314 21.9957 27.6188 21.9183 27.9801 21.7682C28.3415 21.6181 28.6697 21.3984 28.9461 21.1214C29.2226 20.8445 29.4417 20.5158 29.5911 20.1542C29.7405 19.7926 29.8172 19.4051 29.8169 19.0138C29.8173 18.6225 29.7406 18.2349 29.5913 17.8732C29.4419 17.5115 29.2228 17.1828 28.9463 16.9058C28.6699 16.6288 28.3416 16.409 27.9803 16.2589C27.6189 16.1088 27.2315 16.0314 26.8401 16.031H18.9022C18.5109 16.0314 18.1235 16.1088 17.7621 16.2589C17.4008 16.409 17.0725 16.6288 16.7961 16.9058C16.5196 17.1828 16.3005 17.5115 16.1511 17.8732C16.0018 18.2349 15.9251 18.6225 15.9255 19.0138C15.9252 19.4051 16.0019 19.7926 16.1513 20.1542C16.3007 20.5158 16.5198 20.8445 16.7962 21.1214C17.0727 21.3984 17.4009 21.6181 17.7623 21.7682C18.1236 21.9183 18.511 21.9957 18.9022 21.9961Z" fill="#005382"/>
<path fill-rule="evenodd" clip-rule="evenodd" d="M0.0498072 19.0138C0.0494435 19.4051 0.12615 19.7926 0.275547 20.1542C0.424944 20.5158 0.644105 20.8445 0.920519 21.1214C1.19693 21.3984 1.52518 21.6181 1.88653 21.7682C2.24788 21.9183 2.63525 21.9957 3.02652 21.9961C3.41779 21.9957 3.80516 21.9183 4.16651 21.7682C4.52785 21.6181 4.85611 21.3984 5.13252 21.1214C5.40893 20.8445 5.62809 20.5158 5.77749 20.1542C5.92689 19.7926 6.00359 19.4051 6.00323 19.0138V16.031H3.02652C2.63515 16.0314 2.2477 16.1088 1.88628 16.259C1.52486 16.4091 1.19655 16.629 0.920127 16.906C0.643699 17.1831 0.42456 17.5119 0.275229 17.8736C0.125897 18.2354 0.0492979 18.623 0.0498072 19.0144V19.0138ZM7.9877 19.0138V26.9672C7.98727 27.3585 8.06392 27.7461 8.21328 28.1078C8.36265 28.4695 8.5818 28.7982 8.85822 29.0752C9.13464 29.3522 9.46292 29.572 9.8243 29.7221C10.1857 29.8722 10.5731 29.9496 10.9644 29.95C11.3557 29.9496 11.7431 29.8722 12.1045 29.7221C12.4659 29.572 12.7942 29.3522 13.0706 29.0752C13.347 28.7982 13.5662 28.4695 13.7155 28.1078C13.8649 27.7461 13.9416 27.3585 13.9411 26.9672V19.0144C13.9416 18.623 13.8649 18.2355 13.7155 17.8738C13.5662 17.5121 13.347 17.1834 13.0706 16.9064C12.7942 16.6294 12.4659 16.4096 12.1045 16.2595C11.7431 16.1094 11.3557 16.0319 10.9644 16.0316C10.5731 16.0319 10.1857 16.1094 9.8243 16.2595C9.46292 16.4096 9.13464 16.6294 8.85822 16.9064C8.5818 17.1834 8.36265 17.5121 8.21328 17.8738C8.06392 18.2355 7.98727 18.623 7.9877 19.0144" fill="#005382"/>
</g>
<defs>
<clipPath id="clip0_646_11073">
<rect width="29.9" height="29.9" fill="white" transform="translate(0.0498047 0.0500488)"/>
</clipPath>
</defs>
</svg>
