<svg width="30" height="30" viewBox="0 0 30 30" fill="none" xmlns="http://www.w3.org/2000/svg">
<g clip-path="url(#clip0_648_12793)">
<path d="M29.8417 21.8181C29.6343 21.2516 29.2372 20.9509 28.7876 20.6998C28.7029 20.6501 28.6241 20.6093 28.5598 20.5801C28.4255 20.51 28.2883 20.4428 28.151 20.3727C26.7465 19.6282 25.6486 18.688 24.8895 17.5755C24.6325 17.1988 24.4544 16.8601 24.3288 16.5827C24.2646 16.3958 24.2675 16.2907 24.3142 16.1943C24.3493 16.1213 24.4427 16.0454 24.4953 16.0075C24.7376 15.8469 24.9858 15.6863 25.1552 15.5782C25.4559 15.3826 25.6954 15.2278 25.8472 15.1227C26.4253 14.7198 26.8283 14.2905 27.0794 13.8117C27.4356 13.1372 27.4794 12.3663 27.205 11.6422C26.8254 10.6377 25.8735 10.0129 24.723 10.0129C24.4836 10.0129 24.2412 10.0391 24.0018 10.0917C23.9376 10.1063 23.8763 10.1209 23.8149 10.1355C23.8266 9.45224 23.8091 8.72226 23.7478 8.0098C23.5317 5.49866 22.6528 4.18178 21.736 3.13353C21.3534 2.69554 20.6877 2.05607 19.6891 1.48377C18.2963 0.683711 16.7195 0.280762 14.9997 0.280762C13.2857 0.280762 11.7089 0.683711 10.3161 1.48085C9.31169 2.05315 8.64594 2.69554 8.26635 3.13061C7.3495 4.17886 6.4706 5.49574 6.25453 8.00688C6.19321 8.71934 6.17861 9.44932 6.18737 10.1326C6.12605 10.118 6.06181 10.1034 6.0005 10.0888C5.76106 10.0362 5.51579 10.0099 5.27927 10.0099C4.12883 10.0099 3.17693 10.6348 2.79734 11.6393C2.52287 12.3634 2.56667 13.1343 2.9229 13.8088C3.17401 14.2876 3.57988 14.7169 4.1551 15.1198C4.30986 15.2278 4.54637 15.3826 4.84713 15.5753C5.01064 15.6804 5.24716 15.8352 5.48075 15.9899C5.51579 16.0133 5.64135 16.1067 5.68514 16.1943C5.73478 16.2936 5.73478 16.4017 5.66178 16.6002C5.53915 16.8718 5.36103 17.2046 5.10992 17.5725C4.36534 18.6617 3.29957 19.5844 1.9418 20.3202C1.22058 20.7027 0.473083 20.9567 0.157732 21.8152C-0.0817021 22.4634 0.0759737 23.2022 0.680398 23.8241C0.878952 24.0372 1.13007 24.227 1.44542 24.4022C2.18708 24.811 2.81778 25.0125 3.31417 25.1497C3.40176 25.176 3.60324 25.2403 3.69084 25.3191C3.91275 25.5118 3.88063 25.8038 4.17554 26.2301C4.35366 26.4958 4.55805 26.6769 4.72741 26.7937C5.34351 27.22 6.03845 27.2462 6.77427 27.2754C7.4371 27.3017 8.19044 27.3309 9.04889 27.6142C9.40512 27.7309 9.77595 27.9587 10.2023 28.2215C11.2301 28.8551 12.6404 29.7194 14.9968 29.7194C17.3561 29.7194 18.7722 28.8493 19.8088 28.2157C20.2351 27.9558 20.603 27.728 20.9476 27.6142C21.806 27.3309 22.5594 27.3017 23.2222 27.2754C23.958 27.2462 24.65 27.22 25.2691 26.7937C25.4618 26.6593 25.707 26.4403 25.8998 26.1075C26.11 25.7483 26.1071 25.4943 26.3056 25.322C26.3874 25.2519 26.5655 25.1906 26.6619 25.1614C27.1612 25.0242 27.8006 24.8227 28.5569 24.4052C28.8927 24.2212 29.1526 24.0197 29.3599 23.7891L29.3686 23.7803C29.9322 23.1671 30.0753 22.4517 29.8417 21.8181ZM27.7481 22.9423C26.4691 23.6489 25.6194 23.573 24.9595 23.9964C24.3989 24.3584 24.7289 25.1381 24.323 25.4184C23.8208 25.7658 22.3404 25.395 20.4278 26.0257C18.8511 26.5484 17.8437 28.0463 15.0026 28.0463C12.1557 28.0463 11.1775 26.5542 9.5774 26.0257C7.66485 25.395 6.18153 25.7658 5.68222 25.4184C5.27635 25.1381 5.60631 24.3584 5.04568 23.9964C4.38578 23.5701 3.53608 23.646 2.25716 22.9423C1.4425 22.4926 1.90384 22.2152 2.1754 22.0838C6.80639 19.8442 7.54221 16.3812 7.57725 16.1213C7.61813 15.8118 7.66193 15.5666 7.3203 15.2483C6.99035 14.9417 5.52163 14.0336 5.11576 13.7504C4.44126 13.2803 4.14635 12.8101 4.36534 12.232C4.51718 11.832 4.89092 11.6831 5.28511 11.6831C5.40775 11.6831 5.53331 11.6977 5.65302 11.7239C6.39176 11.8845 7.11007 12.2554 7.52469 12.3546C7.58309 12.3692 7.63273 12.3751 7.67653 12.3751C7.89844 12.3751 7.97436 12.2641 7.95976 12.0101C7.91304 11.2013 7.79625 9.62451 7.92472 8.14995C8.09992 6.12353 8.75398 5.11907 9.53068 4.2285C9.90443 3.80219 11.6564 1.95096 15.0055 1.95096C18.3634 1.95096 20.1066 3.80219 20.4804 4.2285C21.2571 5.11615 21.9111 6.12061 22.0863 8.14995C22.2148 9.62451 22.1039 11.2013 22.0513 12.0101C22.0338 12.2758 22.1155 12.3751 22.3345 12.3751C22.3783 12.3751 22.4309 12.3692 22.4864 12.3546C22.901 12.2554 23.6193 11.8845 24.358 11.7239C24.4778 11.6977 24.6033 11.6831 24.726 11.6831C25.1201 11.6831 25.4939 11.8349 25.6457 12.232C25.8647 12.8101 25.5669 13.2803 24.8953 13.7504C24.4894 14.0336 23.0207 14.9417 22.6908 15.2483C22.3491 15.5636 22.3929 15.8089 22.4338 16.1213C22.4659 16.3812 23.2047 19.8442 27.8357 22.0838C28.0985 22.2152 28.5627 22.4926 27.7481 22.9423Z" fill="#005382"/>
</g>
<defs>
<clipPath id="clip0_648_12793">
<rect width="29.9" height="29.9" fill="white" transform="translate(0.0498047 0.0500488)"/>
</clipPath>
</defs>
</svg>
