<svg width="30" height="30" viewBox="0 0 30 30" fill="none" xmlns="http://www.w3.org/2000/svg">
<g clip-path="url(#clip0_646_11103)">
<path d="M14.9992 0.0993652C6.76801 0.0993652 0.0949707 6.77223 0.0949707 15.0034C0.0949707 23.235 6.76801 29.9074 14.9992 29.9074C23.2313 29.9074 29.9037 23.235 29.9037 15.0034C29.9037 6.77276 23.2313 0.100077 14.9991 0.100077L14.9992 0.0993652ZM21.8342 21.5953C21.5673 22.0332 20.9942 22.172 20.5564 21.9032C17.057 19.7657 12.6517 19.2816 7.46372 20.467C6.96379 20.5809 6.46545 20.2676 6.35155 19.7675C6.23711 19.2674 6.5491 18.7691 7.05028 18.6552C12.7277 17.3575 17.5977 17.9166 21.5263 20.3175C21.9642 20.5862 22.103 21.1575 21.8342 21.5953ZM23.6585 17.5366C23.3221 18.0839 22.6066 18.2565 22.0603 17.9201C18.054 15.4571 11.9471 14.744 7.2085 16.1824C6.59395 16.368 5.94487 16.0216 5.75835 15.4082C5.57326 14.7936 5.91978 14.1458 6.53326 13.9589C11.9461 12.3165 18.6752 13.1121 23.2758 15.9392C23.8222 16.2756 23.9949 16.9911 23.6585 17.5368V17.5366ZM23.8151 13.3107C19.0115 10.4576 11.0862 10.1952 6.49998 11.5872C5.76351 11.8106 4.98469 11.3948 4.76151 10.6583C4.53832 9.92152 4.95372 9.14323 5.69072 8.91933C10.9554 7.32111 19.7074 7.62989 25.2378 10.913C25.9017 11.3062 26.1188 12.1617 25.7255 12.8232C25.334 13.4857 24.4761 13.704 23.8158 13.3107H23.8151Z" fill="#005382"/>
</g>
<defs>
<clipPath id="clip0_646_11103">
<rect width="29.9" height="29.9" fill="white" transform="translate(0.0498047 0.0500488)"/>
</clipPath>
</defs>
</svg>
