<svg width="30" height="30" viewBox="0 0 30 30" fill="none" xmlns="http://www.w3.org/2000/svg">
<g clip-path="url(#clip0_646_11174)">
<path d="M24.9658 0.0500488H5.03379C2.29339 0.0500488 0.0498047 2.29259 0.0498047 5.03423V24.9676C0.0498047 27.7069 2.29339 29.9501 5.03379 29.9501H24.9664C27.7068 29.9501 29.9504 27.7075 29.9504 24.9676V5.03423C29.9498 2.29259 27.7062 0.0500488 24.9658 0.0500488ZM24.5128 22.9296C24.5128 23.8008 23.7996 24.5117 22.9279 24.5117H7.07055C6.19942 24.5117 5.48566 23.8002 5.48566 22.9296V7.07219C5.48566 6.20102 6.19942 5.48723 7.07055 5.48723H22.9279C23.7996 5.48723 24.5128 6.20102 24.5128 7.07219V22.9296ZM19.0781 18.1714C19.0781 18.671 18.6701 19.0774 18.1733 19.0774H11.8309C11.3323 19.0774 10.926 18.6705 10.926 18.1714V11.8293C10.926 11.3308 11.3323 10.9239 11.8309 10.9239H18.1727C18.6701 10.9239 19.0775 11.3313 19.0775 11.8293V18.1714H19.0781Z" fill="#005382"/>
</g>
<defs>
<clipPath id="clip0_646_11174">
<rect width="29.9" height="29.9" fill="white" transform="translate(0.0498047 0.0500488)"/>
</clipPath>
</defs>
</svg>
