<svg width="30" height="30" viewBox="0 0 30 30" fill="none" xmlns="http://www.w3.org/2000/svg">
<path d="M15.6622 29.9109L9.5279 29.7487C7.54174 29.6922 5.55064 29.805 3.60343 29.2195C0.641269 28.3447 0.431419 24.0553 0.211833 20.4574C-0.0907341 15.3991 0.0263986 10.249 0.597381 5.23295C0.91972 2.41841 2.18825 0.738963 4.15 0.556207C10.7723 -0.107042 17.4387 -0.0284403 24.0463 0.280989C24.7442 0.309355 25.4468 0.464395 26.1349 0.640872C29.5316 1.5016 29.6145 6.3624 29.8346 10.4543C30.0542 14.5884 29.9615 18.7437 29.5418 22.8496C29.2051 26.2493 28.5609 29.1002 25.8421 29.3754C22.4357 29.7353 19.1074 30.025 15.6914 29.9327C15.6916 29.9109 15.672 29.9109 15.6622 29.9109ZM12.0558 21.304C14.6229 19.1733 17.1409 17.0781 19.6933 14.9617C17.1214 12.831 14.6082 10.7358 12.0558 8.61935V21.304Z" fill="#005382"/>
</svg>
