<svg width="22" height="22" viewBox="0 0 22 22" fill="none" xmlns="http://www.w3.org/2000/svg">
<path d="M10.9998 5.5V6.875" stroke="#005382" stroke-width="1.5" stroke-linecap="round" stroke-linejoin="round"/>
<path d="M16.8336 5.16637C20.0554 8.3882 20.0554 13.6118 16.8336 16.8336C13.6118 20.0554 8.38818 20.0554 5.16637 16.8336C1.94454 13.6118 1.94454 8.38818 5.16637 5.16637C8.3882 1.94454 13.6118 1.94454 16.8336 5.16637" stroke="#005382" stroke-width="1.5" stroke-linecap="round" stroke-linejoin="round"/>
<path d="M10.9998 16.5V15.125" stroke="#005382" stroke-width="1.5" stroke-linecap="round" stroke-linejoin="round"/>
<path d="M8.25 13.0671V13.0671C8.25 14.2065 9.17308 15.1296 10.3125 15.1296H11.8186C12.8847 15.1296 13.75 14.2652 13.75 13.1982V13.1982C13.75 12.3127 13.1478 11.5408 12.2888 11.3254L9.71117 10.6792C8.85225 10.4638 8.25 9.69192 8.25 8.80642V8.80642C8.25 7.73942 9.11442 6.875 10.1814 6.875H11.6875C12.8269 6.875 13.75 7.79808 13.75 8.9375V8.9375" stroke="#005382" stroke-width="1.5" stroke-linecap="round" stroke-linejoin="round"/>
</svg>
