<svg width="22" height="22" viewBox="0 0 22 22" fill="none" xmlns="http://www.w3.org/2000/svg">
<path fill-rule="evenodd" clip-rule="evenodd" d="M12.376 18.7949V18.4226C12.379 17.3633 13.237 16.5053 14.2963 16.5023H17.3335C18.3928 16.5053 19.2508 17.3633 19.2538 18.4226V18.7949C19.2538 19.0481 19.0486 19.2534 18.7953 19.2534H12.8345C12.5813 19.2534 12.376 19.0481 12.376 18.7949Z" stroke="#005382" stroke-width="1.5" stroke-linecap="round" stroke-linejoin="round"/>
<path fill-rule="evenodd" clip-rule="evenodd" d="M13.9805 12.3682C13.9845 11.3563 14.8075 10.5388 15.8195 10.5415C16.8314 10.5442 17.65 11.366 17.6487 12.378C17.6473 13.39 16.8266 14.2097 15.8146 14.2097C15.3269 14.2097 14.8593 14.0154 14.5151 13.6699C14.1709 13.3243 13.9785 12.8559 13.9805 12.3682V12.3682Z" stroke="#005382" stroke-width="1.5" stroke-linecap="round" stroke-linejoin="round"/>
<path d="M2.74658 17.4193C2.74658 18.4323 3.56774 19.2534 4.58068 19.2534" stroke="#005382" stroke-width="1.5" stroke-linecap="round" stroke-linejoin="round"/>
<path d="M2.74661 14.6682V17.4194" stroke="#005382" stroke-width="1.5" stroke-linecap="round" stroke-linejoin="round"/>
<path d="M8.24925 19.2534H4.58105" stroke="#005382" stroke-width="1.5" stroke-linecap="round" stroke-linejoin="round"/>
<path d="M2.74658 17.4193C2.74658 18.4323 3.56774 19.2534 4.58068 19.2534" stroke="#005382" stroke-width="1.5" stroke-linecap="round" stroke-linejoin="round"/>
<path d="M2.74661 14.6682V17.4194" stroke="#005382" stroke-width="1.5" stroke-linecap="round" stroke-linejoin="round"/>
<path d="M8.24925 19.2534H4.58105" stroke="#005382" stroke-width="1.5" stroke-linecap="round" stroke-linejoin="round"/>
<path d="M2.74658 17.4193C2.74658 18.4323 3.56774 19.2534 4.58068 19.2534" stroke="#005382" stroke-width="1.5" stroke-linecap="round" stroke-linejoin="round"/>
<path d="M2.74661 14.6682V17.4194" stroke="#005382" stroke-width="1.5" stroke-linecap="round" stroke-linejoin="round"/>
<path d="M9.1663 19.2534H4.58105" stroke="#005382" stroke-width="1.5" stroke-linecap="round" stroke-linejoin="round"/>
<path fill-rule="evenodd" clip-rule="evenodd" d="M2.74658 11V10.6277C2.7496 9.5684 3.60758 8.71042 4.66688 8.7074H7.70415C8.76344 8.71042 9.62142 9.5684 9.62445 10.6277V11C9.62445 11.2533 9.41916 11.4585 9.16592 11.4585H3.20511C2.95187 11.4585 2.74658 11.2533 2.74658 11Z" stroke="#005382" stroke-width="1.5" stroke-linecap="round" stroke-linejoin="round"/>
<path fill-rule="evenodd" clip-rule="evenodd" d="M4.35158 4.57332C4.35564 3.56134 5.17858 2.74387 6.19056 2.74656C7.20254 2.74926 8.02111 3.57111 8.01977 4.58309C8.01843 5.59508 7.19768 6.41475 6.18569 6.41475C5.69798 6.41475 5.23036 6.22052 4.88619 5.87497C4.54201 5.52942 4.34964 5.06102 4.35158 4.57332V4.57332Z" stroke="#005382" stroke-width="1.5" stroke-linecap="round" stroke-linejoin="round"/>
<path d="M19.2535 4.60909C19.2535 3.59615 18.4324 2.77499 17.4194 2.77499" stroke="#005382" stroke-width="1.5" stroke-linecap="round" stroke-linejoin="round"/>
<path d="M19.2534 8.24887V4.6091" stroke="#005382" stroke-width="1.5" stroke-linecap="round" stroke-linejoin="round"/>
<path d="M11 2.77499H17.4193" stroke="#005382" stroke-width="1.5" stroke-linecap="round" stroke-linejoin="round"/>
</svg>
