<svg width="22" height="22" viewBox="0 0 22 22" fill="none" xmlns="http://www.w3.org/2000/svg">
<path fill-rule="evenodd" clip-rule="evenodd" d="M13.3964 19.0782C13.2313 19.2433 13.0074 19.3362 12.7739 19.3362H11V17.5622C11 17.3288 11.0928 17.1049 11.2579 16.9398L17.2171 10.9762C17.5013 10.692 17.8867 10.5324 18.2886 10.5324C18.6904 10.5324 19.0758 10.692 19.36 10.9762V10.9762C19.6444 11.2602 19.8042 11.6457 19.8042 12.0476C19.8042 12.4495 19.6444 12.835 19.36 13.119L13.3964 19.0782Z" stroke="#005382" stroke-width="1.5" stroke-linecap="round" stroke-linejoin="round"/>
<path d="M15.0181 13.1815L17.1574 15.3208" stroke="#005382" stroke-width="1.5" stroke-linecap="round" stroke-linejoin="round"/>
<path d="M18.6748 13.8031L19.4671 14.5954V14.5954C19.8842 15.0133 19.8842 15.69 19.4671 16.1079L18.0225 17.5526" stroke="#005382" stroke-width="1.5" stroke-linecap="round" stroke-linejoin="round"/>
<path d="M6.59814 8.77179H11.8803" stroke="#005382" stroke-width="1.5" stroke-linecap="round" stroke-linejoin="round"/>
<path d="M6.59814 12.2932H10.1196" stroke="#005382" stroke-width="1.5" stroke-linecap="round" stroke-linejoin="round"/>
<path d="M8.35886 19.3362H5.71776C4.25912 19.3362 3.07666 18.1537 3.07666 16.6951V6.13069C3.07666 4.67205 4.25912 3.48959 5.71776 3.48959H16.2822C17.7408 3.48959 18.9233 4.67205 18.9233 6.13069V7.89143" stroke="#005382" stroke-width="1.5" stroke-linecap="round" stroke-linejoin="round"/>
</svg>
