<svg width="42" height="46" viewBox="0 0 42 46" fill="none" xmlns="http://www.w3.org/2000/svg">
<g clip-path="url(#clip0_4_678)">
<path d="M76.2177 11.5576C76.2177 13.2152 74.9075 14.5506 73.281 14.5506C71.6546 14.5506 70.3443 13.2152 70.3443 11.5576C70.3443 9.8999 71.6094 8.56456 73.281 8.56456C74.9527 8.61061 76.2177 9.94595 76.2177 11.5576ZM64.1096 17.5896C64.1096 17.8659 64.1096 18.3263 64.1096 18.3263C64.1096 18.3263 62.709 16.4845 59.7272 16.4845C54.8026 16.4845 50.9623 20.3063 50.9623 25.6016C50.9623 30.8509 54.7574 34.7187 59.7272 34.7187C62.7542 34.7187 64.1096 32.8308 64.1096 32.8308V33.6136C64.1096 33.982 64.3807 34.2583 64.7421 34.2583H68.4016V16.9449C68.4016 16.9449 65.0583 16.9449 64.7421 16.9449C64.3807 16.9449 64.1096 17.2673 64.1096 17.5896ZM64.1096 28.6867C63.4319 29.6997 62.0765 30.5746 60.45 30.5746C57.5586 30.5746 55.3448 28.7327 55.3448 25.6016C55.3448 22.4705 57.5586 20.6286 60.45 20.6286C62.0313 20.6286 63.4771 21.5496 64.1096 22.5165V28.6867ZM71.1124 16.9449H75.4496V34.2583H71.1124V16.9449ZM135.9 16.4845C132.918 16.4845 131.517 18.3263 131.517 18.3263V8.61061H127.18V34.2583C127.18 34.2583 130.523 34.2583 130.84 34.2583C131.201 34.2583 131.472 33.9359 131.472 33.6136V32.8308C131.472 32.8308 132.873 34.7187 135.855 34.7187C140.779 34.7187 144.619 30.8509 144.619 25.6016C144.619 20.3524 140.779 16.4845 135.9 16.4845ZM135.177 30.5285C133.505 30.5285 132.195 29.6537 131.517 28.6406V22.4705C132.195 21.5495 133.641 20.5826 135.177 20.5826C138.068 20.5826 140.282 22.4244 140.282 25.5556C140.282 28.6867 138.068 30.5285 135.177 30.5285ZM124.921 23.99V34.3043H120.584V24.4965C120.584 21.6416 119.68 20.4905 117.241 20.4905C115.93 20.4905 114.575 21.1812 113.717 22.1942V34.2583H109.379V16.9449H112.813C113.175 16.9449 113.446 17.2673 113.446 17.5896V18.3263C114.711 16.991 116.382 16.4845 118.054 16.4845C119.951 16.4845 121.533 17.037 122.798 18.1421C124.334 19.4314 124.921 21.0891 124.921 23.99ZM98.8526 16.4845C95.8708 16.4845 94.4702 18.3263 94.4702 18.3263V8.61061H90.133V34.2583C90.133 34.2583 93.4763 34.2583 93.7925 34.2583C94.154 34.2583 94.425 33.9359 94.425 33.6136V32.8308C94.425 32.8308 95.8256 34.7187 98.8074 34.7187C103.732 34.7187 107.572 30.8509 107.572 25.6016C107.617 20.3524 103.777 16.4845 98.8526 16.4845ZM98.1297 30.5285C96.4581 30.5285 95.1479 29.6537 94.4702 28.6406V22.4705C95.1479 21.5495 96.5936 20.5826 98.1297 20.5826C101.021 20.5826 103.235 22.4244 103.235 25.5556C103.235 28.6867 101.021 30.5285 98.1297 30.5285ZM86.3831 16.4845C87.6933 16.4845 88.371 16.7147 88.371 16.7147V20.8128C88.371 20.8128 84.7566 19.5696 82.4976 22.1942V34.3043H78.1604V16.9449C78.1604 16.9449 81.5037 16.9449 81.82 16.9449C82.1814 16.9449 82.4525 17.2673 82.4525 17.5896V18.3263C83.2657 17.3594 85.0277 16.4845 86.3831 16.4845ZM41.3391 32.6927C41.1132 32.1401 40.8873 31.5415 40.6614 31.035C40.3 30.2062 39.9385 29.4234 39.6223 28.6867L39.5771 28.6406C36.4597 21.7337 33.1164 14.7347 29.5924 7.82783L29.4569 7.55155C29.0955 6.86086 28.734 6.12412 28.3726 5.38739C27.9208 4.55856 27.469 3.68368 26.7461 2.85485C25.3004 1.01301 23.2221 0 21.0083 0C18.7494 0 16.7163 1.01301 15.2254 2.76276C14.5477 3.59159 14.0507 4.46647 13.5989 5.2953C13.2375 6.03203 12.876 6.76877 12.5146 7.45946L12.379 7.73574C8.90022 14.6426 5.51176 21.6416 2.39437 28.5485L2.34919 28.6406C2.03294 29.3774 1.6715 30.1602 1.31006 30.989C1.08417 31.4955 0.858269 32.048 0.632372 32.6466C0.0450382 34.3503 -0.13568 35.962 0.0902177 37.6196C0.587192 41.0731 2.84617 43.974 5.96355 45.2633C7.13822 45.7698 8.35807 46 9.62309 46C9.98453 46 10.4363 45.9539 10.7978 45.9079C12.2887 45.7237 13.8248 45.2172 15.3157 44.3423C17.1681 43.2833 18.9301 41.7638 20.918 39.5536C22.9059 41.7638 24.7131 43.2833 26.5202 44.3423C28.0112 45.2172 29.5473 45.7237 31.0382 45.9079C31.3996 45.9539 31.8514 46 32.2128 46C33.4779 46 34.7429 45.7698 35.8724 45.2633C39.035 43.974 41.2487 41.027 41.7457 37.6196C42.1072 36.008 41.9264 34.3964 41.3391 32.6927ZM20.9632 35.0871C18.5235 31.956 16.9422 29.009 16.4 26.5225C16.1741 25.4635 16.1289 24.5425 16.2645 23.7137C16.3548 22.977 16.6259 22.3323 16.9874 21.7798C17.8458 20.5365 19.2915 19.7538 20.9632 19.7538C22.6348 19.7538 24.1257 20.4905 24.9389 21.7798C25.3004 22.3323 25.5715 22.977 25.6618 23.7137C25.7974 24.5425 25.7522 25.5095 25.5263 26.5225C24.9841 28.963 23.4028 31.9099 20.9632 35.0871ZM38.9898 37.2513C38.6735 39.6456 37.0922 41.7177 34.8784 42.6386C33.7941 43.0991 32.6195 43.2372 31.4448 43.0991C30.3153 42.961 29.1858 42.5926 28.0112 41.9019C26.3847 40.981 24.7582 39.5536 22.8607 37.4354C25.8425 33.7057 27.6497 30.2983 28.3274 27.2593C28.6437 25.8318 28.6888 24.5425 28.5533 23.3453C28.3726 22.1942 27.966 21.1351 27.3335 20.2142C25.9329 18.1421 23.5836 16.9449 20.9632 16.9449C18.3427 16.9449 15.9934 18.1882 14.5928 20.2142C13.9603 21.1351 13.5537 22.1942 13.373 23.3453C13.1923 24.5425 13.2375 25.8779 13.5989 27.2593C14.2766 30.2983 16.1289 33.7518 19.0656 37.4815C17.2133 39.5996 15.5416 41.027 13.9151 41.9479C12.7405 42.6386 11.611 43.007 10.4815 43.1451C9.26166 43.2833 8.08699 43.0991 7.04786 42.6847C4.83407 41.7638 3.25278 39.6917 2.93653 37.2973C2.80099 36.1461 2.89135 34.995 3.34314 33.7057C3.47868 33.2452 3.70458 32.7848 3.93048 32.2322C4.24673 31.4955 4.60817 30.7127 4.9696 29.9299L5.01478 29.8378C8.13217 22.977 11.4755 15.978 14.9543 9.16316L15.0898 8.88689C15.4513 8.1962 15.8127 7.45946 16.1741 6.76877C16.5356 6.03203 16.9422 5.34134 17.4391 4.74274C18.3879 3.63764 19.6529 3.03904 21.0535 3.03904C22.4541 3.03904 23.7191 3.63764 24.6679 4.74274C25.1648 5.34134 25.5715 6.03203 25.9329 6.76877C26.2943 7.45946 26.6558 8.1962 27.0172 8.88689L27.1527 9.16316C30.5864 16.024 33.9297 23.023 37.0471 29.8839V29.9299C37.4085 30.6667 37.7248 31.4955 38.0862 32.2322C38.3121 32.7848 38.538 33.2452 38.6735 33.7057C39.035 34.9029 39.1705 36.0541 38.9898 37.2513Z" fill="#FF5A5F"/>
</g>
<defs>
<clipPath id="clip0_4_678">
<rect width="42" height="46" fill="white"/>
</clipPath>
</defs>
</svg>
