<svg width="56" height="42" viewBox="0 0 56 42" fill="none" xmlns="http://www.w3.org/2000/svg">
<g clip-path="url(#clip0_4_395)">
<g clip-path="url(#clip1_4_395)">
<path d="M47.4432 3.51749C43.8178 1.87425 39.9413 0.68001 35.8886 0C35.3908 0.871749 34.8093 2.04427 34.4084 2.97701C30.1002 2.34936 25.8317 2.34936 21.6027 2.97701C21.2019 2.04427 20.6072 0.871749 20.105 0C16.0479 0.68001 12.1669 1.87864 8.54151 3.52619C1.22899 14.2311 -0.75332 24.67 0.237835 34.9608C5.08789 38.4695 9.78817 40.6009 14.4091 41.9957C15.5501 40.4745 16.5676 38.8574 17.4442 37.1532C15.7747 36.5386 14.1757 35.7802 12.6647 34.8998C13.0656 34.6121 13.4577 34.3113 13.8365 34.0019C23.052 38.1775 33.0649 38.1775 42.1703 34.0019C42.5535 34.3113 42.9456 34.6121 43.342 34.8998C41.8266 35.7846 40.2232 36.543 38.5537 37.1576C39.4303 38.8574 40.4435 40.4789 41.5888 42C46.2142 40.6052 50.9189 38.4739 55.7689 34.9608C56.9319 23.0312 53.7822 12.6881 47.4432 3.51749ZM18.6997 28.6321C15.9333 28.6321 13.6647 26.1302 13.6647 23.0835C13.6647 20.0368 15.8849 17.5306 18.6997 17.5306C21.5147 17.5306 23.7833 20.0324 23.7348 23.0835C23.7392 26.1302 21.5147 28.6321 18.6997 28.6321ZM37.307 28.6321C34.5406 28.6321 32.2719 26.1302 32.2719 23.0835C32.2719 20.0368 34.4921 17.5306 37.307 17.5306C40.1219 17.5306 42.3906 20.0324 42.3421 23.0835C42.3421 26.1302 40.1219 28.6321 37.307 28.6321Z" fill="#5865F2"/>
</g>
</g>
<defs>
<clipPath id="clip0_4_395">
<rect width="56" height="42" fill="white"/>
</clipPath>
<clipPath id="clip1_4_395">
<rect width="224" height="42" fill="white"/>
</clipPath>
</defs>
</svg>
