<svg width="36" height="52" viewBox="0 0 36 52" fill="none" xmlns="http://www.w3.org/2000/svg">
<path d="M9.33313 51.9999C14.1171 51.9999 17.9998 48.1173 17.9998 43.3333V34.6667H9.33313C4.54915 34.6667 0.666504 38.5493 0.666504 43.3333C0.666504 48.1173 4.54915 51.9999 9.33313 51.9999Z" fill="#0ACF83"/>
<path d="M0.666504 25.9999C0.666504 21.216 4.54915 17.3333 9.33313 17.3333H17.9998V34.6665H9.33313C4.54915 34.6665 0.666504 30.7839 0.666504 25.9999Z" fill="#A259FF"/>
<path d="M0.666504 8.66662C0.666504 3.88265 4.54915 0 9.33313 0H17.9998V17.3332H9.33313C4.54915 17.3332 0.666504 13.4506 0.666504 8.66662Z" fill="#F24E1E"/>
<path d="M18 0.00012207H26.6666C31.4506 0.00012207 35.3333 3.88277 35.3333 8.66674C35.3333 13.4507 31.4506 17.3334 26.6666 17.3334H18V0.00012207Z" fill="#FF7262"/>
<path d="M35.3333 25.9999C35.3333 30.7839 31.4506 34.6665 26.6666 34.6665C21.8827 34.6665 18 30.7839 18 25.9999C18 21.216 21.8827 17.3333 26.6666 17.3333C31.4506 17.3333 35.3333 21.216 35.3333 25.9999Z" fill="#1ABCFE"/>
</svg>
