<svg width="41" height="42" viewBox="0 0 41 42" fill="none" xmlns="http://www.w3.org/2000/svg">
<g clip-path="url(#clip0_4_379)">
<path d="M41 21.4823C41 20.0548 40.8847 18.6195 40.6388 17.2151H20.9111V25.3019H32.2082C31.7394 27.91 30.2332 30.2172 28.0275 31.6833V36.9304H34.7674C38.7252 33.2728 41 27.8714 41 21.4823Z" fill="#4285F4"/>
<path d="M20.9114 42C26.5522 42 31.3093 40.1403 34.7753 36.9303L28.0354 31.6832C26.1603 32.9642 23.7395 33.6895 20.919 33.6895C15.4626 33.6895 10.8362 29.9934 9.17621 25.024H2.22119V30.4332C5.77171 37.5245 13.0034 42 20.9114 42Z" fill="#34A853"/>
<path d="M9.16826 25.0241C8.29216 22.416 8.29216 19.5918 9.16826 16.9837V11.5745H2.22093C-0.745518 17.5084 -0.745518 24.4994 2.22093 30.4332L9.16826 25.0241Z" fill="#FBBC04"/>
<path d="M20.9114 8.3105C23.8932 8.2642 26.7751 9.39079 28.9346 11.4588L34.9059 5.46318C31.1248 1.89823 26.1065 -0.0617193 20.9114 1.13569e-05C13.0034 1.13569e-05 5.77171 4.47548 2.22119 11.5745L9.16852 16.9837C10.8208 12.0066 15.4549 8.3105 20.9114 8.3105Z" fill="#EA4335"/>
</g>
<defs>
<clipPath id="clip0_4_379">
<rect width="41" height="42" fill="white"/>
</clipPath>
</defs>
</svg>
