<svg width="46" height="46" viewBox="0 0 46 46" fill="none" xmlns="http://www.w3.org/2000/svg">
<g clip-path="url(#clip0_672_28)">
<path fill-rule="evenodd" clip-rule="evenodd" d="M16.7917 0.113281C16.1897 0.11384 15.5937 0.232986 15.0377 0.463914C14.4817 0.694842 13.9767 1.03303 13.5514 1.45916C13.1261 1.88529 12.789 2.39102 12.5592 2.94747C12.3294 3.50392 12.2115 4.10018 12.2122 4.70221C12.2116 5.30416 12.3296 5.90033 12.5594 6.45668C12.7893 7.01303 13.1265 7.51866 13.5517 7.9447C13.977 8.37074 14.482 8.70885 15.0379 8.93973C15.5938 9.1706 16.1898 9.28972 16.7917 9.29028H21.3713V4.70221C21.3719 4.10018 21.254 3.50392 21.0242 2.94747C20.7944 2.39102 20.4573 1.88529 20.032 1.45916C19.6067 1.03303 19.1017 0.694842 18.5457 0.463914C17.9898 0.232986 17.3937 0.11384 16.7917 0.113281ZM16.7917 12.3501H4.57956C3.9776 12.3507 3.38165 12.4698 2.82573 12.7007C2.26981 12.9316 1.76481 13.2697 1.33956 13.6957C0.914308 14.1218 0.577136 14.6274 0.347295 15.1837C0.117453 15.7401 -0.000556742 16.3363 2.852e-06 16.9382C-0.000668689 17.5402 0.117259 18.1365 0.34705 18.6929C0.576841 19.2494 0.913995 19.7551 1.33926 20.1813C1.76452 20.6074 2.26956 20.9456 2.82554 21.1765C3.38151 21.4074 3.97753 21.5266 4.57956 21.5271H16.7917C17.3937 21.5266 17.9898 21.4074 18.5457 21.1765C19.1017 20.9456 19.6067 20.6074 20.032 20.1813C20.4573 19.7551 20.7944 19.2494 21.0242 18.6929C21.254 18.1365 21.3719 17.5402 21.3713 16.9382C21.3718 16.3363 21.2538 15.7401 21.024 15.1837C20.7941 14.6274 20.457 14.1218 20.0317 13.6957C19.6065 13.2697 19.1015 12.9316 18.5455 12.7007C17.9896 12.4698 17.3937 12.3507 16.7917 12.3501Z" fill="#36C5F0"/>
<path fill-rule="evenodd" clip-rule="evenodd" d="M45.7956 16.9382C45.7961 16.3363 45.6781 15.7401 45.4483 15.1837C45.2184 14.6274 44.8813 14.1218 44.456 13.6957C44.0308 13.2697 43.5258 12.9316 42.9698 12.7007C42.4139 12.4698 41.818 12.3507 41.216 12.3501C40.6141 12.3507 40.0181 12.4698 39.4622 12.7007C38.9063 12.9316 38.4013 13.2697 37.976 13.6957C37.5508 14.1218 37.2136 14.6274 36.9838 15.1837C36.7539 15.7401 36.6359 16.3363 36.6365 16.9382V21.5271H41.216C41.818 21.5266 42.4141 21.4074 42.97 21.1765C43.526 20.9456 44.0311 20.6074 44.4563 20.1813C44.8816 19.7551 45.2187 19.2494 45.4485 18.6929C45.6783 18.1365 45.7962 17.5402 45.7956 16.9382ZM33.5834 16.9382V4.70221C33.5841 4.10018 33.4662 3.50392 33.2364 2.94747C33.0066 2.39102 32.6694 1.88529 32.2442 1.45916C31.8189 1.03303 31.3139 0.694842 30.7579 0.463914C30.2019 0.232986 29.6059 0.11384 29.0039 0.113281C28.4018 0.11384 27.8058 0.232986 27.2499 0.463914C26.6939 0.694842 26.1888 1.03303 25.7636 1.45916C25.3383 1.88529 25.0012 2.39102 24.7714 2.94747C24.5416 3.50392 24.4236 4.10018 24.4243 4.70221V16.9382C24.4236 17.5402 24.5416 18.1365 24.7714 18.6929C25.0012 19.2494 25.3383 19.7551 25.7636 20.1813C26.1888 20.6074 26.6939 20.9456 27.2499 21.1765C27.8058 21.4074 28.4018 21.5266 29.0039 21.5271C29.6059 21.5266 30.2019 21.4074 30.7579 21.1765C31.3139 20.9456 31.8189 20.6074 32.2442 20.1813C32.6694 19.7551 33.0066 19.2494 33.2364 18.6929C33.4662 18.1365 33.5841 17.5402 33.5834 16.9382Z" fill="#2EB67D"/>
<path fill-rule="evenodd" clip-rule="evenodd" d="M29.0039 46C29.6059 45.9994 30.2019 45.8803 30.7579 45.6493C31.3139 45.4184 31.8189 45.0802 32.2442 44.6541C32.6694 44.228 33.0066 43.7222 33.2364 43.1658C33.4662 42.6093 33.5841 42.0131 33.5834 41.411C33.584 40.8091 33.466 40.2129 33.2361 39.6566C33.0063 39.1002 32.6691 38.5946 32.2439 38.1686C31.8186 37.7425 31.3136 37.4044 30.7577 37.1735C30.2018 36.9426 29.6058 36.8235 29.0039 36.823H24.4243V41.411C24.4236 42.0131 24.5416 42.6093 24.7714 43.1658C25.0012 43.7222 25.3383 44.228 25.7636 44.6541C26.1888 45.0802 26.6939 45.4184 27.2499 45.6493C27.8058 45.8803 28.4018 45.9994 29.0039 46ZM29.0039 33.7631H41.216C41.818 33.7626 42.4139 33.6434 42.9698 33.4126C43.5258 33.1817 44.0308 32.8436 44.456 32.4175C44.8813 31.9915 45.2184 31.4859 45.4483 30.9295C45.6781 30.3732 45.7961 29.777 45.7956 29.175C45.7962 28.573 45.6783 27.9768 45.4485 27.4203C45.2187 26.8639 44.8816 26.3581 44.4563 25.932C44.0311 25.5059 43.526 25.1677 42.97 24.9368C42.4141 24.7058 41.818 24.5867 41.216 24.5861H29.0039C28.4018 24.5867 27.8058 24.7058 27.2499 24.9368C26.6939 25.1677 26.1888 25.5059 25.7636 25.932C25.3383 26.3581 25.0012 26.8639 24.7714 27.4203C24.5416 27.9768 24.4236 28.573 24.4243 29.175C24.4238 29.777 24.5418 30.3732 24.7716 30.9295C25.0015 31.4859 25.3386 31.9915 25.7639 32.4175C26.1891 32.8436 26.6941 33.1817 27.25 33.4126C27.806 33.6434 28.4019 33.7626 29.0039 33.7631Z" fill="#ECB22E"/>
<path fill-rule="evenodd" clip-rule="evenodd" d="M3.88145e-06 29.175C-0.000555712 29.777 0.117454 30.3732 0.347296 30.9295C0.577137 31.4859 0.914309 31.9915 1.33956 32.4175C1.76481 32.8436 2.26981 33.1817 2.82573 33.4126C3.38165 33.6434 3.9776 33.7626 4.57956 33.7631C5.18151 33.7626 5.77747 33.6434 6.33339 33.4126C6.88931 33.1817 7.39431 32.8436 7.81956 32.4175C8.24481 31.9915 8.58198 31.4859 8.81182 30.9295C9.04167 30.3732 9.15967 29.777 9.15912 29.175V24.5861H4.57956C3.97746 24.5867 3.38137 24.7059 2.82534 24.9368C2.26931 25.1678 1.76423 25.5061 1.33896 25.9323C0.913684 26.3585 0.576547 26.8644 0.346806 27.4209C0.117065 27.9774 -0.000779633 28.5738 3.88145e-06 29.1759V29.175ZM12.2122 29.175V41.411C12.2115 42.0131 12.3294 42.6093 12.5592 43.1658C12.789 43.7222 13.1261 44.228 13.5514 44.6541C13.9767 45.0802 14.4817 45.4184 15.0377 45.6493C15.5937 45.8803 16.1897 45.9994 16.7917 46C17.3937 45.9994 17.9898 45.8803 18.5457 45.6493C19.1017 45.4184 19.6067 45.0802 20.032 44.6541C20.4573 44.228 20.7944 43.7222 21.0242 43.1658C21.254 42.6093 21.3719 42.0131 21.3713 41.411V29.1759C21.3719 28.5739 21.254 27.9776 21.0242 27.4212C20.7944 26.8647 20.4573 26.359 20.032 25.9329C19.6067 25.5067 19.1017 25.1685 18.5457 24.9376C17.9898 24.7067 17.3937 24.5875 16.7917 24.587C16.1897 24.5875 15.5937 24.7067 15.0377 24.9376C14.4817 25.1685 13.9767 25.5067 13.5514 25.9329C13.1261 26.359 12.789 26.8647 12.5592 27.4212C12.3294 27.9776 12.2115 28.5739 12.2122 29.1759" fill="#E01E5A"/>
</g>
<defs>
<clipPath id="clip0_672_28">
<rect width="46" height="46" fill="white"/>
</clipPath>
</defs>
</svg>
