<svg width="48" height="48" viewBox="0 0 48 48" fill="none" xmlns="http://www.w3.org/2000/svg">
<g clip-path="url(#clip0_4_385)">
<path d="M23.9988 0.0791626C10.7848 0.0791626 0.0722656 10.7914 0.0722656 24.0054C0.0722656 37.22 10.7848 47.9314 23.9988 47.9314C37.2143 47.9314 47.9257 37.22 47.9257 24.0054C47.9257 10.7923 37.2143 0.0803054 23.9986 0.0803054L23.9988 0.0791626ZM34.9714 34.5877C34.5428 35.2906 33.6228 35.5134 32.92 35.082C27.3023 31.6506 20.2303 30.8734 11.9017 32.7763C11.0991 32.9592 10.2991 32.4563 10.1163 31.6534C9.93255 30.8506 10.4334 30.0506 11.238 29.8677C20.3523 27.7846 28.1703 28.682 34.4771 32.5363C35.18 32.9677 35.4028 33.8849 34.9714 34.5877ZM37.9 28.072C37.36 28.9506 36.2114 29.2277 35.3343 28.6877C28.9028 24.7337 19.0991 23.5889 11.492 25.898C10.5054 26.196 9.46341 25.64 9.16398 24.6552C8.86684 23.6686 9.42312 22.6286 10.408 22.3286C19.0974 19.692 29.9 20.9692 37.2857 25.5077C38.1628 26.0477 38.44 27.1963 37.9 28.0723V28.072ZM38.1514 21.288C30.44 16.7077 17.7171 16.2866 10.3546 18.5212C9.17227 18.8797 7.92198 18.2123 7.56369 17.03C7.20541 15.8472 7.87227 14.5977 9.05541 14.2383C17.5071 11.6726 31.5571 12.1683 40.4354 17.4389C41.5011 18.07 41.8497 19.4434 41.2183 20.5054C40.5897 21.5689 39.2126 21.9194 38.1525 21.288H38.1514Z" fill="#1ED760"/>
</g>
<defs>
<clipPath id="clip0_4_385">
<rect width="48" height="48" fill="white"/>
</clipPath>
</defs>
</svg>
