<svg width="45" height="44" viewBox="0 0 45 44" fill="none" xmlns="http://www.w3.org/2000/svg">
<g clip-path="url(#clip0_4_376)">
<path d="M22.5982 44.1528L28.877 9.38541C34.8618 9.38541 36.7496 10.0316 37.0221 12.6689C37.0221 12.6689 41.0369 11.1951 43.0618 8.20169C35.16 4.59668 27.2206 4.4341 27.2206 4.4341L22.5877 9.98973L22.5982 9.98903L17.9654 4.43323C17.9654 4.43323 10.0257 4.59598 2.125 8.20099C4.14814 11.1944 8.16452 12.6682 8.16452 12.6682C8.43867 10.0307 10.3241 9.38454 16.2688 9.38036L22.5982 44.1528Z" fill="#E82127"/>
<path d="M22.5959 2.82934C28.9833 2.78125 36.2945 3.80222 43.7789 7.01393C44.7793 5.24122 45.0364 4.45777 45.0364 4.45777C36.8548 1.2708 29.1929 0.180129 22.595 0.152771C15.9974 0.180129 8.3358 1.27097 0.155273 4.45777C0.155273 4.45777 0.520221 5.4228 1.41188 7.01393C8.89491 3.80222 16.2073 2.78125 22.595 2.82934H22.5959Z" fill="#E82127"/>
</g>
<defs>
<clipPath id="clip0_4_376">
<rect width="45" height="44" fill="white"/>
</clipPath>
</defs>
</svg>
