<svg width="43" height="48" viewBox="0 0 43 48" fill="none" xmlns="http://www.w3.org/2000/svg">
<path d="M16.7567 18.9037V17.0331C16.0991 16.9303 15.4348 16.874 14.7691 16.8646C8.32339 16.851 2.61688 20.975 0.681236 27.045C-1.2544 33.1151 1.0304 39.7228 6.3211 43.3573C4.38099 41.3073 3.08331 38.7467 2.58471 35.9846C2.08612 33.2225 2.40791 30.3769 3.51125 27.7914C4.61459 25.2059 6.45232 22.9909 8.8026 21.4139C11.1529 19.8368 13.9153 18.9651 16.7563 18.9039L16.7567 18.9037Z" fill="#25F4EE"/>
<path d="M17.1139 40.0917C20.7177 40.0869 23.68 37.2838 23.8378 33.7292V2.00849H29.7073C29.5875 1.34566 29.5303 0.673272 29.5366 0L21.5083 0V31.6901C21.3748 35.2628 18.4054 38.0928 14.7844 38.0985C13.7023 38.0895 12.6378 37.8268 11.6787 37.332C12.3003 38.1823 13.1167 38.8755 14.0612 39.3551C15.0058 39.8347 16.0518 40.0871 17.1139 40.0917ZM40.6705 12.771V11.0079C38.5103 11.0087 36.3981 10.3794 34.5989 9.1989C36.1761 11.0091 38.3074 12.263 40.6705 12.771Z" fill="#25F4EE"/>
<path d="M34.5991 9.19889C32.8267 7.20634 31.8497 4.64485 31.8506 1.99298H29.7074C29.9842 3.45917 30.5607 4.85429 31.4018 6.09321C32.2428 7.33212 33.3307 8.38885 34.5991 9.19889ZM14.7691 24.7909C13.266 24.7985 11.8086 25.3019 10.6287 26.2211C9.44868 27.1404 8.61383 28.4227 8.25682 29.8643C7.89982 31.3058 8.04116 32.8238 8.65837 34.1769C9.27558 35.53 10.3332 36.6405 11.6632 37.332C10.936 36.3408 10.5006 35.1704 10.405 33.9501C10.3093 32.7298 10.5572 31.5072 11.1212 30.4174C11.6853 29.3275 12.5435 28.4127 13.6011 27.7742C14.6586 27.1357 15.8744 26.7983 17.1141 26.7992C17.788 26.8079 18.4572 26.9115 19.1015 27.1068V19.0416C18.4435 18.9442 17.7794 18.893 17.1141 18.8883H16.7567V25.0208C16.109 24.8493 15.4394 24.7718 14.7691 24.7909Z" fill="#FE2C55"/>
<path d="M40.6709 12.7709V18.9036C36.6718 18.8959 32.7766 17.6462 29.5369 15.3313V31.4447C29.5197 39.485 22.913 45.9943 14.7693 45.9943C11.7447 45.9996 8.79299 45.0783 6.32129 43.3572C8.33681 45.4976 10.9585 46.9891 13.8448 47.6374C16.7311 48.2857 19.7483 48.0609 22.5033 46.9921C25.2583 45.9234 27.6235 44.0602 29.2908 41.6454C30.958 39.2306 31.8501 36.3761 31.8507 33.4536V17.3859C35.1013 19.6855 39.0013 20.9189 43.0002 20.9121V13.0157C42.2173 13.0134 41.4367 12.9314 40.6709 12.7709Z" fill="#FE2C55"/>
<path d="M29.5368 31.4447V15.3313C32.7863 17.633 36.6871 18.8667 40.6863 18.8576V12.7251C38.3237 12.2325 36.1873 10.9949 34.5992 9.19889C33.3308 8.38885 32.2429 7.33212 31.4019 6.09321C30.5609 4.85429 29.9844 3.45917 29.7076 1.99298H23.8381V33.7296C23.7809 35.111 23.2893 36.4406 22.4316 37.5335C21.5739 38.6264 20.3926 39.4283 19.052 39.8279C17.7114 40.2275 16.278 40.2048 14.9511 39.7631C13.6241 39.3213 12.4694 38.4824 11.6476 37.363C10.3174 36.6716 9.25955 35.5611 8.64218 34.2079C8.02481 32.8547 7.8834 31.3365 8.24043 29.8949C8.59746 28.4532 9.43243 27.1708 10.6126 26.2515C11.7927 25.3322 13.2503 24.8289 14.7535 24.8215C15.4277 24.8274 16.0973 24.9308 16.7412 25.1282V18.9955C13.8848 19.0434 11.1043 19.9107 8.73862 21.4917C6.37293 23.0727 4.52427 25.2992 3.41806 27.8996C2.31184 30.5 1.99586 33.362 2.50864 36.1367C3.02142 38.9113 4.34082 41.4787 6.30594 43.5258C8.80193 45.1901 11.7578 46.0523 14.7692 45.9943C22.9129 45.9943 29.5196 39.4851 29.5368 31.4447Z" fill="black"/>
</svg>
